<svg width="24" height="24" viewBox="0 0 24 24" fill="none" xmlns="http://www.w3.org/2000/svg">
<g clip-path="url(#clip0_50_19114)">
<path d="M9.95393 20.0461L10.2929 19.7071C10.7457 19.2543 11.3597 19 12 19C12.317 19 12.631 19.0624 12.9239 19.1838C13.2168 19.3051 13.4829 19.4829 13.7071 19.7071L14.0461 20.0461C14.6569 20.6569 15.4853 21 16.3491 21H16.7431C17.6069 21 18.4353 20.6569 19.0461 20.0461C19.6569 19.4353 20 18.6069 20 17.7431C20 17.2069 19.8676 16.679 19.6146 16.2063C19.3616 15.7335 18.9958 15.3305 18.5497 15.0331C17.5303 14.3535 16.6811 13.4482 16.0679 12.3875L15.148 10.796C14.8324 10.2499 14.3786 9.79646 13.8322 9.48121C13.2859 9.16596 12.6663 9 12.0355 9C11.4147 9 10.8044 9.16076 10.2642 9.46664C9.72398 9.77251 9.27216 10.2131 8.95275 10.7454L7.923 12.4617C7.31526 13.4746 6.49017 14.3399 5.50732 14.9951L5.45032 15.0331C5.00419 15.3305 4.63839 15.7335 4.38539 16.2062C4.13238 16.679 4.00001 17.2069 4 17.7431C4 18.6069 4.34314 19.4353 4.95394 20.0461C5.56473 20.6569 6.39315 21 7.25694 21H7.65094C8.51473 21 9.34314 20.6569 9.95393 20.0461Z" stroke="black" stroke-width="1.5" stroke-linecap="round" stroke-linejoin="round"/>
<path d="M4.5 11C5.32843 11 6 10.3284 6 9.5C6 8.67157 5.32843 8 4.5 8C3.67157 8 3 8.67157 3 9.5C3 10.3284 3.67157 11 4.5 11Z" stroke="black" stroke-width="1.5" stroke-linecap="round" stroke-linejoin="round"/>
<path d="M19.5 11C20.3284 11 21 10.3284 21 9.5C21 8.67157 20.3284 8 19.5 8C18.6716 8 18 8.67157 18 9.5C18 10.3284 18.6716 11 19.5 11Z" stroke="black" stroke-width="1.5" stroke-linecap="round" stroke-linejoin="round"/>
<path d="M8.78571 6C9.61413 6 10.2857 5.32843 10.2857 4.5C10.2857 3.67157 9.61413 3 8.78571 3C7.95728 3 7.28571 3.67157 7.28571 4.5C7.28571 5.32843 7.95728 6 8.78571 6Z" stroke="black" stroke-width="1.5" stroke-linecap="round" stroke-linejoin="round"/>
<path d="M15.2143 6C16.0427 6 16.7143 5.32843 16.7143 4.5C16.7143 3.67157 16.0427 3 15.2143 3C14.3859 3 13.7143 3.67157 13.7143 4.5C13.7143 5.32843 14.3859 6 15.2143 6Z" stroke="black" stroke-width="1.5" stroke-linecap="round" stroke-linejoin="round"/>
</g>
<defs>
<clipPath id="clip0_50_19114">
<rect width="24" height="24" fill="white"/>
</clipPath>
</defs>
</svg>
