<svg width="24" height="24" viewBox="0 0 24 24" fill="none" xmlns="http://www.w3.org/2000/svg">
<g clip-path="url(#clip0_50_16209)">
<path d="M11.617 14.408L13.117 15.908L11.617 17.408" stroke="black" stroke-width="1.5" stroke-linecap="round" stroke-linejoin="round"/>
<path d="M9.59799 11.617L8.09799 13.117L6.59799 11.617" stroke="black" stroke-width="1.5" stroke-linecap="round" stroke-linejoin="round"/>
<path d="M8.36899 15.643C8.93799 19.362 10.35 22 12.005 22C14.163 22 15.913 17.523 15.913 12C15.913 6.477 14.163 2 12.005 2C9.84699 2 8.09799 6.477 8.09799 12V13.117" stroke="black" stroke-width="1.5" stroke-linecap="round" stroke-linejoin="round"/>
<path d="M13.117 15.908H12C6.477 15.908 2 14.158 2 12C2 9.84201 6.477 8.09201 12 8.09201C17.523 8.09201 22 9.84201 22 12C22 13.655 19.362 15.067 15.643 15.636" stroke="black" stroke-width="1.5" stroke-linecap="round" stroke-linejoin="round"/>
</g>
<defs>
<clipPath id="clip0_50_16209">
<rect width="24" height="24" fill="white"/>
</clipPath>
</defs>
</svg>
