<svg width="24" height="24" viewBox="0 0 24 24" fill="none" xmlns="http://www.w3.org/2000/svg">
<g clip-path="url(#clip0_50_16175)">
<path d="M10 9.056C9.094 7.818 7.652 7 6 7C3.239 7 1 9.239 1 12C1 14.761 3.239 17 6 17C7.861 17 9.586 16.023 10.543 14.428L12 12L13.457 9.572C14.414 7.977 16.139 7 18 7C20.761 7 23 9.239 23 12C23 14.761 20.761 17 18 17C16.348 17 14.906 16.182 14 14.944" stroke="black" stroke-width="1.5" stroke-linecap="round" stroke-linejoin="round"/>
<path d="M9.93001 6.02802L10.451 8.98202L7.49701 9.50302" stroke="black" stroke-width="1.5" stroke-linecap="round" stroke-linejoin="round"/>
</g>
<defs>
<clipPath id="clip0_50_16175">
<rect width="24" height="24" fill="white"/>
</clipPath>
</defs>
</svg>
