<svg width="24" height="24" viewBox="0 0 24 24" fill="none" xmlns="http://www.w3.org/2000/svg">
<g clip-path="url(#clip0_50_16195)">
<path d="M13.5599 5.87401L11.7829 4.10001L10.0049 5.87401" stroke="black" stroke-width="1.5" stroke-linecap="round" stroke-linejoin="round"/>
<path d="M11.783 10.319V4.10001" stroke="black" stroke-width="1.5" stroke-linecap="round" stroke-linejoin="round"/>
<path d="M18.0049 13.874L19.7829 12.1L18.0049 10.322" stroke="black" stroke-width="1.5" stroke-linecap="round" stroke-linejoin="round"/>
<path d="M14.449 12.1H19.783" stroke="black" stroke-width="1.5" stroke-linecap="round" stroke-linejoin="round"/>
<path d="M5.55996 10.319L3.78296 12.1L5.55996 13.874" stroke="black" stroke-width="1.5" stroke-linecap="round" stroke-linejoin="round"/>
<path d="M9.11596 12.1H3.78296" stroke="black" stroke-width="1.5" stroke-linecap="round" stroke-linejoin="round"/>
<path d="M2.78296 7.1V5.347C2.78462 4.10553 3.7915 3.1 5.03297 3.10001H6.78297" stroke="black" stroke-width="1.5" stroke-linecap="round" stroke-linejoin="round"/>
<path d="M16.783 3.10001H18.533C19.7756 3.10001 20.783 4.10737 20.783 5.35001V7.10001" stroke="black" stroke-width="1.5" stroke-linecap="round" stroke-linejoin="round"/>
<path d="M20.783 17.1V18.85C20.7825 20.0924 19.7756 21.0993 18.5332 21.1H16.7832" stroke="black" stroke-width="1.5" stroke-linecap="round" stroke-linejoin="round"/>
<path d="M6.78296 21.1H5.03296C3.79032 21.1 2.78296 20.0926 2.78296 18.85V17.1" stroke="black" stroke-width="1.5" stroke-linecap="round" stroke-linejoin="round"/>
<path d="M10.0049 18.319L11.7829 20.1L13.5599 18.322" stroke="black" stroke-width="1.5" stroke-linecap="round" stroke-linejoin="round"/>
<path d="M11.783 13.874V20.1" stroke="black" stroke-width="1.5" stroke-linecap="round" stroke-linejoin="round"/>
</g>
<defs>
<clipPath id="clip0_50_16195">
<rect width="24" height="24" fill="white"/>
</clipPath>
</defs>
</svg>
