<svg width="24" height="24" viewBox="0 0 24 24" fill="none" xmlns="http://www.w3.org/2000/svg">
<g clip-path="url(#clip0_50_16246)">
<path d="M14.888 10.544C11.444 10.544 8.379 11.738 6.904 15V14C6.904 9.032 10.526 6.04499 14.888 6.04499V3.88699C14.888 3.13199 15.771 2.72299 16.347 3.21199L21.687 7.74499C22.095 8.08999 22.106 8.71699 21.709 9.07599L16.369 13.917C15.8 14.432 14.888 14.029 14.888 13.261V10.544Z" stroke="black" stroke-width="1.5" stroke-linecap="round" stroke-linejoin="round"/>
<path d="M10 3H5C3.895 3 3 3.895 3 5V19C3 20.105 3.895 21 5 21H19C20.105 21 21 20.105 21 19V15" stroke="black" stroke-width="1.5" stroke-linecap="round" stroke-linejoin="round"/>
</g>
<defs>
<clipPath id="clip0_50_16246">
<rect width="24" height="24" fill="white"/>
</clipPath>
</defs>
</svg>
