<svg width="24" height="24" viewBox="0 0 24 24" fill="none" xmlns="http://www.w3.org/2000/svg">
<g clip-path="url(#clip0_50_16254)">
<path d="M7.969 4.577C5.14015 4.89779 3.0022 7.29002 3 10.137V10.491C4.22941 9.00971 6.04426 8.13899 7.969 8.107V9.975C7.96913 10.366 8.28623 10.6829 8.67724 10.6827C8.83605 10.6827 8.99022 10.6292 9.11499 10.531L13.74 6.878C14.036 6.6451 14.0872 6.21633 13.8543 5.9203C13.8209 5.8778 13.7825 5.83943 13.74 5.806L9.115 2.154C8.80893 1.91154 8.36426 1.96312 8.12181 2.26919C8.02268 2.39433 7.96882 2.54935 7.969 2.709L7.969 4.577Z" stroke="black" stroke-width="1.5" stroke-linecap="round" stroke-linejoin="round"/>
<path d="M15 3H16C18.7614 3 21 5.23858 21 8V16C21 18.7614 18.7614 21 16 21H8C5.23858 21 3 18.7614 3 16V14" stroke="black" stroke-width="1.5" stroke-linecap="round" stroke-linejoin="round"/>
</g>
<defs>
<clipPath id="clip0_50_16254">
<rect width="24" height="24" fill="white"/>
</clipPath>
</defs>
</svg>
