<svg width="24" height="24" viewBox="0 0 24 24" fill="none" xmlns="http://www.w3.org/2000/svg">
<g clip-path="url(#clip0_50_19035)">
<path fill-rule="evenodd" clip-rule="evenodd" d="M7.99982 4.00008C12.4181 6.20919 17.7906 11.5817 19.9997 16C22.2088 20.4182 20.418 22.2091 15.9998 19.9999C11.5815 17.7908 6.20899 12.4183 3.99986 8.00004C1.79075 3.5818 3.58159 1.79096 7.99982 4.00008Z" stroke="black" stroke-width="1.5" stroke-linecap="round" stroke-linejoin="round"/>
<path fill-rule="evenodd" clip-rule="evenodd" d="M15.9998 4.00005C20.418 1.79094 22.2089 3.58178 19.9997 8.00001C17.7906 12.4182 12.4181 17.7908 7.99982 19.9999C3.58159 22.209 1.79074 20.4182 3.99986 16C6.20898 11.5817 11.5815 6.20917 15.9998 4.00005Z" stroke="black" stroke-width="1.5" stroke-linecap="round" stroke-linejoin="round"/>
<path d="M12.5 12C12.5 11.724 12.2762 11.5 12 11.5C11.7238 11.5 11.5 11.724 11.5 12C11.5 12.276 11.7238 12.5 12 12.5C12.2762 12.5 12.5 12.276 12.5 12Z" stroke="black" stroke-width="2" stroke-linecap="round" stroke-linejoin="round"/>
</g>
<defs>
<clipPath id="clip0_50_19035">
<rect width="24" height="24" fill="white"/>
</clipPath>
</defs>
</svg>
