<svg width="24" height="24" viewBox="0 0 24 24" fill="none" xmlns="http://www.w3.org/2000/svg">
<g clip-path="url(#clip0_50_30909)">
<path d="M19 20H5C3.895 20 3 19.105 3 18V9.5C3 8.395 3.895 7.5 5 7.5H19C20.105 7.5 21 8.395 21 9.5V18C21 19.105 20.105 20 19 20Z" stroke="black" stroke-width="1.5566" stroke-linecap="round" stroke-linejoin="round"/>
<path d="M15.645 7.5V5.927C15.645 4.822 14.75 3.927 13.645 3.927H10.354C9.249 3.927 8.354 4.822 8.354 5.927V7.5" stroke="black" stroke-width="1.3416" stroke-linecap="round" stroke-linejoin="round"/>
<path d="M7.5 7.5V20" stroke="black" stroke-width="1.5" stroke-linecap="round" stroke-linejoin="round"/>
<path d="M16.5 13V7.5" stroke="black" stroke-width="1.5" stroke-linecap="round" stroke-linejoin="round"/>
<path d="M13 13H18V16H13V13Z" stroke="black" stroke-width="1.5" stroke-linecap="round" stroke-linejoin="round"/>
<path d="M16.5 20V16" stroke="black" stroke-width="1.5" stroke-linecap="round" stroke-linejoin="round"/>
</g>
<defs>
<clipPath id="clip0_50_30909">
<rect width="24" height="24" fill="white"/>
</clipPath>
</defs>
</svg>
