<svg width="24" height="24" viewBox="0 0 24 24" fill="none" xmlns="http://www.w3.org/2000/svg">
<g clip-path="url(#clip0_50_18425)">
<path d="M5.96899 6.625L5.30199 3.625H3.37299" stroke="black" stroke-width="1.5" stroke-linecap="round" stroke-linejoin="round"/>
<path d="M7.73099 14.835L5.96899 6.625H18.627C19.264 6.625 19.738 7.212 19.605 7.835L18.103 14.835C18.004 15.296 17.597 15.625 17.125 15.625H8.70799C8.23699 15.625 7.82999 15.296 7.73099 14.835Z" stroke="black" stroke-width="1.5" stroke-linecap="round" stroke-linejoin="round"/>
<path d="M8.49801 19C8.22165 19 7.99735 19.224 8.00002 19.5C7.99869 19.776 8.22298 20 8.49934 20C8.77571 20 9 19.776 9 19.5C9 19.224 8.77571 19 8.49801 19Z" stroke="black" stroke-width="1.5" stroke-linecap="round" stroke-linejoin="round"/>
<path d="M16.498 19C16.2216 19 15.9974 19.224 16 19.5C15.9987 19.776 16.223 20 16.4993 20C16.7757 20 17 19.776 17 19.5C17 19.224 16.7757 19 16.498 19Z" stroke="black" stroke-width="1.5" stroke-linecap="round" stroke-linejoin="round"/>
</g>
<defs>
<clipPath id="clip0_50_18425">
<rect width="24" height="24" fill="white"/>
</clipPath>
</defs>
</svg>
