<svg width="24" height="24" viewBox="0 0 24 24" fill="none" xmlns="http://www.w3.org/2000/svg">
<g clip-path="url(#clip0_50_30856)">
<path d="M12.1817 11.5096L9.63107 17.5266" stroke="black" stroke-width="1.5" stroke-linecap="round" stroke-linejoin="round"/>
<path d="M15.542 3.58285C17.1833 4.27942 18.5137 5.55154 19.283 7.16005C20.0522 8.76857 20.2075 10.6027 19.7195 12.3176L19.6539 12.5495C19.5862 12.7877 19.4687 13.0088 19.309 13.198C19.1494 13.3873 18.9513 13.5405 18.7279 13.6473C18.5045 13.7541 18.261 13.8122 18.0134 13.8177C17.7659 13.8232 17.52 13.776 17.2921 13.6792L7.06451 9.3372C6.83652 9.24046 6.63173 9.09633 6.46371 8.91438C6.2957 8.73243 6.16832 8.51681 6.09003 8.28185C6.01174 8.04689 5.98433 7.79797 6.00962 7.5516C6.03491 7.30524 6.11232 7.06707 6.23671 6.85292L6.35746 6.64379C7.25242 5.10199 8.67962 3.94011 10.3709 3.37646C12.0621 2.81281 13.901 2.8862 15.542 3.58285Z" stroke="black" stroke-width="1.5" stroke-linecap="round" stroke-linejoin="round"/>
<path d="M15.542 3.58289L15.7686 4.49907C16.101 5.84487 16.1291 7.24787 15.8507 8.60588C15.5723 9.96388 14.9945 11.2427 14.1594 12.3492" stroke="black" stroke-width="1.5" stroke-linecap="round" stroke-linejoin="round"/>
<path d="M15.542 3.58289L14.7256 4.05629C13.5266 4.75215 12.4979 5.70666 11.7144 6.8503C10.9308 7.99393 10.4122 9.29791 10.1963 10.6673" stroke="black" stroke-width="1.5" stroke-linecap="round" stroke-linejoin="round"/>
<path d="M3 20C3.7893 19.2107 4.72633 18.5846 5.7576 18.1574C6.78887 17.7302 7.89417 17.5104 9.01041 17.5104C10.1266 17.5104 11.232 17.7302 12.2632 18.1574C13.2945 18.5846 14.2315 19.2107 15.0208 20" stroke="black" stroke-width="1.5" stroke-linecap="round" stroke-linejoin="round"/>
</g>
<defs>
<clipPath id="clip0_50_30856">
<rect width="24" height="24" fill="white"/>
</clipPath>
</defs>
</svg>
