<svg width="24" height="24" viewBox="0 0 24 24" fill="none" xmlns="http://www.w3.org/2000/svg">
<path d="M9.56909 19.01L9.68809 19.355C10.1001 20.552 11.4041 21.188 12.6011 20.776C13.7981 20.364 14.4341 19.06 14.0221 17.863L13.9031 17.518" stroke="black" stroke-width="1.5" stroke-linecap="round" stroke-linejoin="round"/>
<path d="M10.9851 5.20397L10.6861 4.33597C10.3561 3.37897 9.31312 2.86997 8.35512 3.19997C7.39812 3.52997 6.88912 4.57297 7.21812 5.52997L7.51712 6.39797" stroke="black" stroke-width="1.5" stroke-linecap="round" stroke-linejoin="round"/>
<path d="M5.55411 11.766C4.73911 9.39998 5.99711 6.82098 8.36311 6.00598L10.0771 5.41598C12.4431 4.60098 15.0221 5.85898 15.8371 8.22498L16.7471 10.869C16.9201 11.371 17.2851 11.783 17.7611 12.015L18.5761 12.412C19.0531 12.645 19.4181 13.057 19.5901 13.558C19.9301 14.545 19.4051 15.621 18.4181 15.961L8.28311 19.451C7.29611 19.791 6.22011 19.266 5.88011 18.279C5.70711 17.777 5.74111 17.228 5.97311 16.751L6.37011 15.936C6.60311 15.459 6.63611 14.91 6.46311 14.408L5.55411 11.766Z" stroke="black" stroke-width="1.5" stroke-linecap="round" stroke-linejoin="round"/>
</svg>
