<svg width="24" height="24" viewBox="0 0 24 24" fill="none" xmlns="http://www.w3.org/2000/svg">
<g clip-path="url(#clip0_50_18332)">
<path d="M12 20C11.6957 19.3914 11.228 18.8796 10.6492 18.5219C10.0704 18.1642 9.40341 17.9747 8.723 17.9747H5.519C5.11614 17.9747 4.72979 17.8146 4.44492 17.5298C4.16005 17.2449 4.00001 16.8586 4 16.4557V6.519C4 6.11614 4.16004 5.72977 4.4449 5.4449C4.72977 5.16004 5.11614 5 5.519 5H7.94937C9.05366 5.06922 10.0893 5.5594 10.8429 6.36954C11.5966 7.17968 12.0107 8.24803 12 9.35444V20Z" stroke="black" stroke-width="1.5" stroke-linecap="round" stroke-linejoin="round"/>
<path d="M12 20C12.3043 19.3914 12.772 18.8796 13.3508 18.5219C13.9296 18.1642 14.5966 17.9747 15.277 17.9747H18.481C18.8839 17.9747 19.2702 17.8147 19.5551 17.5298C19.8399 17.2449 20 16.8586 20 16.4557V6.519C20 6.11615 19.84 5.72979 19.5551 5.44493C19.2703 5.16006 18.8839 5.00002 18.4811 5H16.0507C14.9464 5.06921 13.9107 5.5594 13.1571 6.36953C12.4035 7.17967 11.9893 8.24803 12 9.35444V20Z" stroke="black" stroke-width="1.5" stroke-linecap="round" stroke-linejoin="round"/>
</g>
<defs>
<clipPath id="clip0_50_18332">
<rect width="24" height="24" fill="white"/>
</clipPath>
</defs>
</svg>
