<svg width="24" height="24" viewBox="0 0 24 24" fill="none" xmlns="http://www.w3.org/2000/svg">
<g clip-path="url(#clip0_50_18374)">
<path d="M6.96608 20.2882L4.24408 20.9687C4.07654 21.0105 3.901 21.0083 3.73456 20.9622C3.56813 20.9161 3.41647 20.8277 3.29435 20.7056C3.17223 20.5835 3.08382 20.4318 3.03772 20.2654C2.99162 20.0989 2.9894 19.9234 3.03129 19.7559L3.71346 17.0272C3.85849 16.447 4.19359 15.9322 4.66532 15.5647C5.13704 15.1971 5.71824 14.9982 6.31623 14.9994H6.32318C7.034 15.0009 7.71517 15.2844 8.21714 15.7877C8.71911 16.291 9.00086 16.9729 9.00052 17.6837C9.00025 18.2825 8.7999 18.864 8.4313 19.3359C8.06269 19.8078 7.54698 20.1429 6.96608 20.2882Z" stroke="black" stroke-width="1.5" stroke-linecap="round" stroke-linejoin="round"/>
<path d="M8.27 12.79L3.3 7.81999C3.10789 7.62761 2.99998 7.36686 2.99998 7.09499C2.99998 6.82312 3.10789 6.56236 3.3 6.36999L6.37 3.29999C6.56237 3.10787 6.82313 2.99997 7.095 2.99997C7.36687 2.99997 7.62763 3.10787 7.82 3.29999L12.55 8.02999" stroke="black" stroke-width="1.5" stroke-linecap="round" stroke-linejoin="round"/>
<path d="M15.97 11.45L20.7 16.18C20.8921 16.3724 21 16.6331 21 16.905C21 17.1769 20.8921 17.4376 20.7 17.63L17.63 20.7C17.4376 20.8921 17.1769 21 16.905 21C16.6331 21 16.3724 20.8921 16.18 20.7L11.21 15.73" stroke="black" stroke-width="1.5" stroke-linecap="round" stroke-linejoin="round"/>
<path d="M6.78 15.04C8.167 12.7445 9.8478 10.64 11.7798 8.77977C15.8105 4.74902 19.8483 2.25163 20.7983 3.20168C21.7484 4.15173 19.251 8.18948 15.22 12.22C13.3599 14.1521 11.2555 15.833 8.96 17.22" stroke="black" stroke-width="1.5" stroke-linecap="round" stroke-linejoin="round"/>
</g>
<defs>
<clipPath id="clip0_50_18374">
<rect width="24" height="24" fill="white"/>
</clipPath>
</defs>
</svg>
