<svg width="24" height="24" viewBox="0 0 24 24" fill="none" xmlns="http://www.w3.org/2000/svg">
<g clip-path="url(#clip0_50_18574)">
<path d="M8 14V21" stroke="black" stroke-width="1.5" stroke-linecap="round" stroke-linejoin="round"/>
<path d="M12 14V21" stroke="black" stroke-width="1.5" stroke-linecap="round" stroke-linejoin="round"/>
<path d="M16 14V21" stroke="black" stroke-width="1.5" stroke-linecap="round" stroke-linejoin="round"/>
<path d="M22 21H2" stroke="black" stroke-width="1.5" stroke-linecap="round" stroke-linejoin="round"/>
<path d="M12 7V2.5C12 2.22386 12.2239 2 12.5 2H15.5C15.7761 2 16 2.22386 16 2.5V3.918C16 4.19414 15.7761 4.418 15.5 4.418H12" stroke="black" stroke-width="1.5" stroke-linecap="round" stroke-linejoin="round"/>
<path d="M8 10V8.414C8 8.14881 8.10534 7.89468 8.29285 7.70715L8.70685 7.29315C8.89435 7.10551 9.14873 7.00006 9.414 7H14.586C14.8512 7.00006 15.1055 7.10545 15.293 7.293L15.707 7.707C15.8945 7.89449 15.9999 8.14881 16 8.414V10" stroke="black" stroke-width="1.5" stroke-linecap="round" stroke-linejoin="round"/>
<path d="M4 14H20" stroke="black" stroke-width="1.5" stroke-linecap="round" stroke-linejoin="round"/>
<path d="M20 21V11.414C20 11.1488 19.8947 10.8947 19.7072 10.7072L19.2932 10.2932C19.1056 10.1055 18.8513 10.0001 18.586 10H5.414C5.14881 10.0001 4.89449 10.1055 4.707 10.293L4.293 10.707C4.10545 10.8945 4.00006 11.1488 4 11.414V21" stroke="black" stroke-width="1.5" stroke-linecap="round" stroke-linejoin="round"/>
</g>
<defs>
<clipPath id="clip0_50_18574">
<rect width="24" height="24" fill="white"/>
</clipPath>
</defs>
</svg>
