<svg width="24" height="24" viewBox="0 0 24 24" fill="none" xmlns="http://www.w3.org/2000/svg">
<g clip-path="url(#clip0_50_18620)">
<path d="M2 21H22" stroke="black" stroke-width="1.5" stroke-linecap="round" stroke-linejoin="round"/>
<path d="M8.5 16.95H15.5" stroke="black" stroke-width="1.5" stroke-linecap="round" stroke-linejoin="round"/>
<path d="M12 16.95V21" stroke="black" stroke-width="1.5" stroke-linecap="round" stroke-linejoin="round"/>
<path d="M3 21V14C3 13.4477 3.44771 13 4 13H6" stroke="black" stroke-width="1.5" stroke-linecap="round" stroke-linejoin="round"/>
<path d="M18 13H20C20.5523 13 21 13.4477 21 14V21" stroke="black" stroke-width="1.5" stroke-linecap="round" stroke-linejoin="round"/>
<path d="M6 21V10.357C5.9993 9.99902 6.19 9.66796 6.50002 9.48898L11.5 6.63198C11.8074 6.45641 12.1847 6.45641 12.492 6.63198L17.492 9.48898C17.802 9.66797 17.9927 9.99901 17.992 10.357V21" stroke="black" stroke-width="1.5" stroke-linecap="round" stroke-linejoin="round"/>
<path d="M15 16.95V21" stroke="black" stroke-width="1.5" stroke-linecap="round" stroke-linejoin="round"/>
<path d="M9 21V16.95" stroke="black" stroke-width="1.5" stroke-linecap="round" stroke-linejoin="round"/>
<path d="M12 6.5V2.5C12 2.22386 12.2239 2 12.5 2H15.5C15.7761 2 16 2.22386 16 2.5V3.918C16 4.19414 15.7761 4.418 15.5 4.418H12" stroke="black" stroke-width="1.5" stroke-linecap="round" stroke-linejoin="round"/>
<path d="M15 13H9" stroke="black" stroke-width="1.5" stroke-linecap="round" stroke-linejoin="round"/>
</g>
<defs>
<clipPath id="clip0_50_18620">
<rect width="24" height="24" fill="white"/>
</clipPath>
</defs>
</svg>
