<svg width="24" height="24" viewBox="0 0 24 24" fill="none" xmlns="http://www.w3.org/2000/svg">
<g clip-path="url(#clip0_50_18609)">
<path d="M19.49 18V21" stroke="black" stroke-width="1.5" stroke-linecap="round" stroke-linejoin="round"/>
<path d="M20.6193 11H18.3807C17.6182 11 17 11.6182 17 12.3807V16.6193C17 17.3818 17.6182 18 18.3807 18H20.6193C21.3818 18 22 17.3818 22 16.6193V12.3807C22 11.6182 21.3818 11 20.6193 11Z" stroke="black" stroke-width="1.5" stroke-linecap="round" stroke-linejoin="round"/>
<path d="M8.5 19V21" stroke="black" stroke-width="1.5" stroke-linecap="round" stroke-linejoin="round"/>
<path d="M5.5 16H11.5" stroke="black" stroke-width="1.5" stroke-linecap="round" stroke-linejoin="round"/>
<path d="M5.5 13H11.5" stroke="black" stroke-width="1.5" stroke-linecap="round" stroke-linejoin="round"/>
<path d="M5.5 10H11.5" stroke="black" stroke-width="1.5" stroke-linecap="round" stroke-linejoin="round"/>
<path d="M19.5 11V4C19.5 3.44771 19.0523 3 18.5 3H9C8.44771 3 8 3.44771 8 4V7" stroke="black" stroke-width="1.5" stroke-linecap="round" stroke-linejoin="round"/>
<path d="M3 21V8C3 7.44771 3.44771 7 4 7H13C13.5523 7 14 7.44771 14 8V21" stroke="black" stroke-width="1.5" stroke-linecap="round" stroke-linejoin="round"/>
<path d="M2 21H22" stroke="black" stroke-width="1.5" stroke-linecap="round" stroke-linejoin="round"/>
</g>
<defs>
<clipPath id="clip0_50_18609">
<rect width="24" height="24" fill="white"/>
</clipPath>
</defs>
</svg>
