<svg width="24" height="24" viewBox="0 0 24 24" fill="none" xmlns="http://www.w3.org/2000/svg">
<g clip-path="url(#clip0_50_34358)">
<path d="M3 16H21C21.2652 16 21.5196 16.1054 21.7071 16.2929C21.8946 16.4804 22 16.7348 22 17V18C22 18.5304 21.7893 19.0391 21.4142 19.4142C21.0391 19.7893 20.5304 20 20 20H4C3.46957 20 2.96086 19.7893 2.58579 19.4142C2.21071 19.0391 2 18.5304 2 18V17C2 16.7348 2.10536 16.4804 2.29289 16.2929C2.48043 16.1054 2.73478 16 3 16Z" stroke="black" stroke-width="1.5" stroke-linecap="round" stroke-linejoin="round"/>
<path d="M12 10H3.11112C2.83137 10.0139 2.55747 9.91658 2.34927 9.72921C2.14108 9.54183 2.01551 9.27967 2 9C2 5.68631 6.47714 3 12 3C17.5229 3 22 5.68631 22 9C21.9845 9.27967 21.8589 9.54183 21.6507 9.7292C21.4425 9.91658 21.1686 10.0139 20.8889 10H12Z" stroke="black" stroke-width="1.5" stroke-linecap="round" stroke-linejoin="round"/>
<path d="M2.5 13C3.71732 12.5 5.08268 12.5 6.3 13C7.51732 13.5 8.88268 13.5 10.1 13C11.3173 12.5 12.6827 12.5 13.9 13C15.1173 13.5 16.4827 13.5 17.7 13C18.9173 12.5 20.2827 12.5 21.5 13" stroke="black" stroke-width="1.5" stroke-linecap="round" stroke-linejoin="round"/>
</g>
<defs>
<clipPath id="clip0_50_34358">
<rect width="24" height="24" fill="white"/>
</clipPath>
</defs>
</svg>
