<svg width="24" height="24" viewBox="0 0 24 24" fill="none" xmlns="http://www.w3.org/2000/svg">
<g clip-path="url(#clip0_50_16851)">
<path d="M13.5701 15.5H16.2501" stroke="black" stroke-width="1.5" stroke-linecap="round" stroke-linejoin="round"/>
<path d="M14.91 15.5V10.5L13.45 11.82" stroke="black" stroke-width="1.5" stroke-linecap="round" stroke-linejoin="round"/>
<path d="M8 2.88V5.12" stroke="black" stroke-width="1.5" stroke-linecap="round" stroke-linejoin="round"/>
<path d="M16 2.88V5.12" stroke="black" stroke-width="1.5" stroke-linecap="round" stroke-linejoin="round"/>
<path d="M18 21H6C4.343 21 3 19.657 3 18V7C3 5.343 4.343 4 6 4H18C19.657 4 21 5.343 21 7V18C21 19.657 19.657 21 18 21Z" stroke="black" stroke-width="1.5" stroke-linecap="round" stroke-linejoin="round"/>
<path d="M8.25 11.46C8.409 10.91 8.895 10.5 9.496 10.5C10.224 10.5 10.815 11.09 10.815 11.819C10.815 12.471 10.286 13 9.634 13C10.286 13 10.815 13.529 10.815 14.181C10.815 14.909 10.225 15.5 9.496 15.5C8.895 15.5 8.409 15.09 8.25 14.54" stroke="black" stroke-width="1.5" stroke-linecap="round" stroke-linejoin="round"/>
</g>
<defs>
<clipPath id="clip0_50_16851">
<rect width="24" height="24" fill="white"/>
</clipPath>
</defs>
</svg>
