<svg width="24" height="24" viewBox="0 0 24 24" fill="none" xmlns="http://www.w3.org/2000/svg">
<g clip-path="url(#clip0_50_16865)">
<path d="M7.5 3V6" stroke="black" stroke-width="1.5" stroke-linecap="round" stroke-linejoin="round"/>
<path d="M16.5 3V6" stroke="black" stroke-width="1.5" stroke-linecap="round" stroke-linejoin="round"/>
<path d="M18 4.5H6C4.34315 4.5 3 5.84315 3 7.5V18C3 19.6569 4.34315 21 6 21H18C19.6569 21 21 19.6569 21 18V7.5C21 5.84315 19.6569 4.5 18 4.5Z" stroke="black" stroke-width="1.5" stroke-linecap="round" stroke-linejoin="round"/>
<path d="M10.495 13L8.495 15L10.495 17" stroke="black" stroke-width="1.5" stroke-linecap="round" stroke-linejoin="round"/>
<path d="M12.505 11H13.505C14.0354 11 14.5441 11.2107 14.9192 11.5858C15.2943 11.9609 15.505 12.4696 15.505 13C15.505 13.5304 15.2943 14.0391 14.9192 14.4142C14.5441 14.7893 14.0354 15 13.505 15H8.505" stroke="black" stroke-width="1.5" stroke-linecap="round" stroke-linejoin="round"/>
</g>
<defs>
<clipPath id="clip0_50_16865">
<rect width="24" height="24" fill="white"/>
</clipPath>
</defs>
</svg>
