<svg width="24" height="24" viewBox="0 0 24 24" fill="none" xmlns="http://www.w3.org/2000/svg">
<g clip-path="url(#clip0_50_19203)">
<path d="M14.5858 4.5858L15.7071 5.70712C15.8946 5.89465 16.149 6 16.4142 6H19C19.5304 6 20.0391 6.21071 20.4142 6.58579C20.7893 6.96086 21 7.46957 21 8V17C21 17.5304 20.7893 18.0391 20.4142 18.4142C20.0391 18.7893 19.5304 19 19 19H5C4.46957 19 3.96086 18.7893 3.58579 18.4142C3.21071 18.0391 3 17.5304 3 17V8C3 7.46957 3.21071 6.96086 3.58579 6.58579C3.96086 6.21071 4.46957 6 5 6H7.58579C7.851 6 8.10535 5.89464 8.29289 5.70711L9.41421 4.5858C9.59993 4.40008 9.82041 4.25276 10.0631 4.15225C10.3057 4.05173 10.5658 4 10.8284 4H13.1716C13.4342 4 13.6943 4.05173 13.9369 4.15225C14.1796 4.25276 14.4001 4.40008 14.5858 4.5858Z" stroke="black" stroke-width="1.5" stroke-linecap="round" stroke-linejoin="round"/>
<path d="M12 16C14.2091 16 16 14.2091 16 12C16 9.79086 14.2091 8 12 8C9.79086 8 8 9.79086 8 12C8 14.2091 9.79086 16 12 16Z" stroke="black" stroke-width="1.5" stroke-linecap="round" stroke-linejoin="round"/>
<path d="M18.05 9.00008C18.0499 9.00997 18.047 9.01962 18.0415 9.02784C18.036 9.03605 18.0282 9.04245 18.0191 9.04622C18.0099 9.05 17.9999 9.05098 17.9902 9.04905C17.9805 9.04712 17.9716 9.04235 17.9646 9.03536C17.9576 9.02837 17.9528 9.01947 17.9509 9.00978C17.949 9.00008 17.95 8.99004 17.9537 8.9809C17.9575 8.97177 17.9639 8.96396 17.9721 8.95846C17.9803 8.95297 17.99 8.95002 17.9999 8.95001C18.0065 8.95 18.013 8.95129 18.0191 8.95381C18.0251 8.95632 18.0307 8.96001 18.0353 8.96466C18.04 8.96931 18.0436 8.97483 18.0462 8.98091C18.0487 8.98698 18.05 8.99351 18.05 9.00008Z" stroke="black" stroke-width="1.5" stroke-linecap="round" stroke-linejoin="round"/>
<path d="M10.5 12C10.5 11.6022 10.658 11.2206 10.9393 10.9393C11.2206 10.658 11.6022 10.5 12 10.5" stroke="black" stroke-width="1.5" stroke-linecap="round" stroke-linejoin="round"/>
</g>
<defs>
<clipPath id="clip0_50_19203">
<rect width="24" height="24" fill="white"/>
</clipPath>
</defs>
</svg>
