<svg width="24" height="24" viewBox="0 0 24 24" fill="none" xmlns="http://www.w3.org/2000/svg">
<g clip-path="url(#clip0_50_18371)">
<path d="M15.9236 8.4689L12.5374 11.8553C11.577 12.8158 11.577 14.3729 12.5374 15.3334L12.5904 15.3864C13.5507 16.3468 15.1078 16.3469 16.0683 15.3866M16.0683 15.3866C16.0683 15.3865 16.0682 15.3866 16.0683 15.3866ZM16.0683 15.3866L19.4566 11.9981C21.5145 9.94002 21.5145 6.60333 19.4566 4.54524L19.455 4.54371C17.3963 2.48493 14.0585 2.48481 11.9997 4.54344M11.9997 4.54344C11.9997 4.54353 11.9998 4.54335 11.9997 4.54344ZM11.9997 4.54344L4.54405 11.9996C2.48528 14.0585 2.48528 17.3965 4.54405 19.4554C6.60267 21.5142 9.94048 21.5143 11.9992 19.4556M11.9992 19.4556C11.9993 19.4556 11.9992 19.4557 11.9992 19.4556Z" stroke="black" stroke-width="1.5" stroke-linecap="round" stroke-linejoin="round"/>
</g>
<defs>
<clipPath id="clip0_50_18371">
<rect width="24" height="24" fill="white"/>
</clipPath>
</defs>
</svg>
