<svg width="24" height="24" viewBox="0 0 24 24" fill="none" xmlns="http://www.w3.org/2000/svg">
<g clip-path="url(#clip0_50_18761)">
<path d="M9.65425 6.02319C8.06507 6.50613 6.72585 7.58791 5.91951 9.03999C5.11317 10.4921 4.90284 12.2007 5.33298 13.805C5.76311 15.4093 6.80001 16.7835 8.22463 17.6374C9.64924 18.4914 11.35 18.7581 12.9676 18.3812C18.0015 17.0316 17.5794 10.5179 20.0236 8.10234C18.5818 6.96216 16.8907 6.17939 15.0885 5.81803C13.2863 5.45666 11.4241 5.52697 9.65425 6.02319Z" stroke="black" stroke-width="1.50018" stroke-linecap="round" stroke-linejoin="round"/>
<path d="M11.8729 11.3314C10.2411 12.0753 8.78468 13.1554 7.59898 14.5009C6.41327 15.8463 5.52496 17.427 4.99213 19.1394" stroke="black" stroke-width="1.50018" stroke-linecap="round" stroke-linejoin="round"/>
</g>
<defs>
<clipPath id="clip0_50_18761">
<rect width="24" height="24" fill="white"/>
</clipPath>
</defs>
</svg>
