<svg width="24" height="24" viewBox="0 0 24 24" fill="none" xmlns="http://www.w3.org/2000/svg">
<g clip-path="url(#clip0_50_34400)">
<path d="M16 7H5.00006C4.86274 7 4.72688 7.02828 4.60097 7.08309C4.47506 7.13789 4.36178 7.21805 4.2682 7.31855C4.17462 7.41905 4.10274 7.53775 4.05705 7.66725C4.01135 7.79675 3.99282 7.93427 4.0026 8.07125L4.79341 19.1425C4.82945 19.647 5.05527 20.1191 5.42542 20.4637C5.79557 20.8084 6.28256 21 6.78832 21H14.2117C14.7175 21 15.2045 20.8084 15.5746 20.4637C15.9448 20.1191 16.1706 19.647 16.2066 19.1425L16.9974 8.07125C17.0072 7.93428 16.9887 7.79676 16.943 7.66726C16.8973 7.53777 16.8254 7.41907 16.7318 7.31857C16.6383 7.21806 16.525 7.13791 16.3991 7.0831C16.2732 7.0283 16.1373 7.00001 16 7Z" stroke="black" stroke-width="1.5" stroke-linecap="round" stroke-linejoin="round"/>
<path d="M10 13L8.63972 3.853C8.60454 3.61586 8.48531 3.39926 8.30376 3.24268C8.12222 3.0861 7.89046 2.99997 7.65072 3H5" stroke="black" stroke-width="1.5" stroke-linecap="round" stroke-linejoin="round"/>
<path d="M16.6454 13H4.35468" stroke="black" stroke-width="1.5" stroke-linecap="round" stroke-linejoin="round"/>
<path d="M13 7C13 6.20888 13.2346 5.43552 13.6741 4.77772C14.1136 4.11992 14.7384 3.60723 15.4693 3.30448C16.2002 3.00173 17.0044 2.92252 17.7804 3.07686C18.5563 3.2312 19.269 3.61216 19.8284 4.17157C20.3878 4.73098 20.7688 5.44372 20.9231 6.21964C21.0775 6.99556 20.9983 7.79983 20.6955 8.53074C20.3928 9.26164 19.8801 9.88635 19.2223 10.3259C18.5645 10.7654 17.7911 11 17 11C16.9299 11.0017 16.8597 10.9983 16.79 10.99" stroke="black" stroke-width="1.5" stroke-linecap="round" stroke-linejoin="round"/>
</g>
<defs>
<clipPath id="clip0_50_34400">
<rect width="24" height="24" fill="white"/>
</clipPath>
</defs>
</svg>
