<svg width="24" height="24" viewBox="0 0 24 24" fill="none" xmlns="http://www.w3.org/2000/svg">
<g clip-path="url(#clip0_50_34413)">
<path d="M4 10.5H16C16.2652 10.5 16.5196 10.6054 16.7071 10.7929C16.8946 10.9804 17 11.2348 17 11.5V14.5C17 16.0913 16.3679 17.6174 15.2426 18.7426C14.1174 19.8679 12.5913 20.5 11 20.5H9C7.4087 20.5 5.88258 19.8679 4.75736 18.7426C3.63214 17.6174 3 16.0913 3 14.5V11.5C3 11.2348 3.10536 10.9804 3.29289 10.7929C3.48043 10.6054 3.73478 10.5 4 10.5Z" stroke="black" stroke-width="1.5" stroke-linecap="round" stroke-linejoin="round"/>
<path d="M13.5 7.5C13.179 7.16298 13 6.71541 13 6.25C13 5.78459 13.179 5.33702 13.5 5C13.821 4.66298 14 4.21541 14 3.75C14 3.28459 13.821 2.83702 13.5 2.5" stroke="black" stroke-width="1.5" stroke-linecap="round" stroke-linejoin="round"/>
<path d="M10 7.5C9.67903 7.16298 9.5 6.71541 9.5 6.25C9.5 5.78459 9.67903 5.33702 10 5C10.321 4.66298 10.5 4.21541 10.5 3.75C10.5 3.28459 10.321 2.83702 10 2.5" stroke="black" stroke-width="1.5" stroke-linecap="round" stroke-linejoin="round"/>
<path d="M6.5 7.5C6.17903 7.16298 6 6.71541 6 6.25C6 5.78459 6.17903 5.33702 6.5 5C6.82097 4.66298 7 4.21541 7 3.75C7 3.28459 6.82097 2.83702 6.5 2.5" stroke="black" stroke-width="1.5" stroke-linecap="round" stroke-linejoin="round"/>
<path d="M16.1278 17.6149L17.9736 17.1926C18.8334 16.9958 19.6011 16.513 20.1508 15.8232C20.7006 15.1334 21 14.2774 21 13.3954C21 13.0151 20.9251 12.6386 20.7796 12.2874C20.6341 11.9361 20.4208 11.6169 20.152 11.348C19.8831 11.0792 19.5639 10.8659 19.2127 10.7204C18.8614 10.5749 18.4849 10.5 18.1047 10.5H15.5" stroke="black" stroke-width="1.5" stroke-linecap="round" stroke-linejoin="round"/>
</g>
<defs>
<clipPath id="clip0_50_34413">
<rect width="24" height="24" fill="white"/>
</clipPath>
</defs>
</svg>
