<svg width="24" height="24" viewBox="0 0 24 24" fill="none" xmlns="http://www.w3.org/2000/svg">
<g clip-path="url(#clip0_50_18530)">
<path d="M9 12.5C12.3137 12.5 15 11.3807 15 10C15 8.61929 12.3137 7.5 9 7.5C5.68629 7.5 3 8.61929 3 10C3 11.3807 5.68629 12.5 9 12.5Z" stroke="black" stroke-width="1.5" stroke-linecap="round" stroke-linejoin="round"/>
<path d="M15 13.5C15 14.8807 12.3137 16 9 16C5.68629 16 3 14.8807 3 13.5" stroke="black" stroke-width="1.5" stroke-linecap="round" stroke-linejoin="round"/>
<path d="M21 10C21 11.3807 18.3137 12.5 15 12.5" stroke="black" stroke-width="1.5" stroke-linecap="round" stroke-linejoin="round"/>
<path d="M15 10V17.5C15 18.8807 12.3137 20 9 20C5.68629 20 3 18.8807 3 17.5V10" stroke="black" stroke-width="1.5" stroke-linecap="round" stroke-linejoin="round"/>
<path d="M21 6.5V14C21 15.3807 18.3137 16.5 15 16.5" stroke="black" stroke-width="1.5" stroke-linecap="round" stroke-linejoin="round"/>
<path d="M9.5 7.51C9.35307 7.38388 9.23307 7.22944 9.14717 7.05591C9.06126 6.88237 9.01121 6.69331 9 6.5C9 5.12 11.69 4 15 4C18.31 4 21 5.12 21 6.5C21 7.88 18.31 9 15 9C14.83 9 14.66 9 14.5 8.99" stroke="black" stroke-width="1.5" stroke-linecap="round" stroke-linejoin="round"/>
</g>
<defs>
<clipPath id="clip0_50_18530">
<rect width="24" height="24" fill="white"/>
</clipPath>
</defs>
</svg>
