<svg width="24" height="24" viewBox="0 0 24 24" fill="none" xmlns="http://www.w3.org/2000/svg">
<g clip-path="url(#clip0_50_18551)">
<path d="M15 18H18C18.7956 18 19.5587 17.6839 20.1213 17.1213C20.6839 16.5587 21 15.7956 21 15V7C21 6.20435 20.6839 5.44129 20.1213 4.87868C19.5587 4.31607 18.7956 4 18 4H6C5.20435 4 4.44129 4.31607 3.87868 4.87868C3.31607 5.44129 3 6.20435 3 7V9" stroke="black" stroke-width="1.5" stroke-linecap="round" stroke-linejoin="round"/>
<path d="M18 15H17" stroke="black" stroke-width="1.5" stroke-linecap="round" stroke-linejoin="round"/>
<path d="M7 7H6" stroke="black" stroke-width="1.5" stroke-linecap="round" stroke-linejoin="round"/>
<path d="M13.7677 12.7678C14.2366 12.2989 14.5 11.663 14.5 11C14.5 10.337 14.2366 9.70108 13.7677 9.23223C13.2989 8.76339 12.663 8.5 11.9999 8.5C11.3369 8.5 10.701 8.76339 10.2322 9.23223" stroke="black" stroke-width="1.5" stroke-linecap="round" stroke-linejoin="round"/>
<path d="M5.5 19C4.80777 19 4.13108 18.7947 3.55551 18.4101C2.97993 18.0256 2.53133 17.4789 2.26642 16.8394C2.00152 16.1999 1.9322 15.4961 2.06725 14.8172C2.2023 14.1383 2.53564 13.5146 3.02513 13.0251C3.51461 12.5356 4.13825 12.2023 4.81719 12.0673C5.49612 11.9322 6.19985 12.0015 6.83939 12.2664C7.47894 12.5313 8.02556 12.9799 8.41015 13.5555C8.79473 14.1311 9 14.8078 9 15.5C9.00009 15.9597 8.90961 16.4148 8.73375 16.8395C8.55789 17.2642 8.30008 17.65 7.97506 17.9751C7.65004 18.3001 7.26417 18.5579 6.83949 18.7338C6.41482 18.9096 5.95965 19.0001 5.5 19Z" stroke="black" stroke-width="1.5" stroke-linecap="round" stroke-linejoin="round"/>
<path d="M5.34497 18.9919C5.60797 19.5521 6.01504 20.0322 6.52453 20.3834C7.03402 20.7346 7.62765 20.9441 8.24468 20.9905C8.86172 21.037 9.48002 20.9187 10.0363 20.6477C10.5926 20.3768 11.067 19.963 11.4109 19.4485C11.7548 18.9341 11.9558 18.3376 11.9935 17.7199C12.0312 17.1023 11.9041 16.4857 11.6253 15.9333C11.3465 15.3809 10.9259 14.9125 10.4067 14.5759C9.88742 14.2394 9.28808 14.0468 8.66997 14.0179" stroke="black" stroke-width="1.5" stroke-linecap="round" stroke-linejoin="round"/>
</g>
<defs>
<clipPath id="clip0_50_18551">
<rect width="24" height="24" fill="white"/>
</clipPath>
</defs>
</svg>
