<svg width="24" height="24" viewBox="0 0 24 24" fill="none" xmlns="http://www.w3.org/2000/svg">
<g clip-path="url(#clip0_50_18522)">
<path d="M13.999 5C14 3.895 11.76 3 9 3C6.24 3 4.002 3.896 4 5C4 6.105 6.238 7 9 7C11.762 7 14 6.105 14 5" stroke="black" stroke-width="1.5" stroke-linecap="round" stroke-linejoin="round"/>
<path d="M14 5V12.76" stroke="black" stroke-width="1.5" stroke-linecap="round" stroke-linejoin="round"/>
<path d="M4.001 9C4.001 10.105 6.239 11 9.001 11C11.763 11 14.001 10.105 14.001 9" stroke="black" stroke-width="1.5" stroke-linecap="round" stroke-linejoin="round"/>
<path d="M19.682 13.318C21.439 15.075 21.439 17.925 19.682 19.682C17.925 21.439 15.075 21.439 13.318 19.682C11.561 17.925 11.561 15.075 13.318 13.318C15.075 11.561 17.925 11.561 19.682 13.318Z" stroke="black" stroke-width="1.5" stroke-linecap="round" stroke-linejoin="round"/>
<path d="M12.505 14.425C11.603 14.78 10.366 15 9 15C6.239 15 4.001 14.105 4.001 13" stroke="black" stroke-width="1.5" stroke-linecap="round" stroke-linejoin="round"/>
<path d="M12.445 18.444C11.548 18.787 10.339 19 9 19C6.239 19 4.001 18.105 4 17V5" stroke="black" stroke-width="1.5" stroke-linecap="round" stroke-linejoin="round"/>
</g>
<defs>
<clipPath id="clip0_50_18522">
<rect width="24" height="24" fill="white"/>
</clipPath>
</defs>
</svg>
