<svg width="24" height="24" viewBox="0 0 24 24" fill="none" xmlns="http://www.w3.org/2000/svg">
<g clip-path="url(#clip0_50_18380)">
<path d="M11.999 6.375C11.847 6.375 11.724 6.498 11.726 6.65C11.726 6.802 11.849 6.925 12.001 6.925C12.153 6.925 12.276 6.802 12.276 6.65C12.274 6.498 12.152 6.375 11.999 6.375Z" stroke="black" stroke-width="1.5" stroke-linecap="round" stroke-linejoin="round"/>
<path d="M6.924 11.999C6.924 11.847 6.801 11.724 6.65 11.726C6.498 11.726 6.375 11.849 6.375 12.001C6.375 12.153 6.498 12.276 6.65 12.276C6.802 12.276 6.924 12.152 6.924 11.999Z" stroke="black" stroke-width="1.5" stroke-linecap="round" stroke-linejoin="round"/>
<path d="M15.977 8.02199C15.87 7.91499 15.696 7.91499 15.59 8.02299C15.483 8.12999 15.483 8.30399 15.59 8.41099C15.697 8.51799 15.871 8.51799 15.978 8.41099C16.085 8.30299 16.085 8.12999 15.977 8.02199Z" stroke="black" stroke-width="1.5" stroke-linecap="round" stroke-linejoin="round"/>
<path d="M8.41 15.589C8.303 15.482 8.129 15.482 8.023 15.59C7.916 15.697 7.916 15.871 8.023 15.978C8.13 16.085 8.304 16.085 8.411 15.978C8.518 15.871 8.518 15.697 8.41 15.589Z" stroke="black" stroke-width="1.5" stroke-linecap="round" stroke-linejoin="round"/>
<path d="M8.411 8.41C8.518 8.303 8.518 8.129 8.41 8.023C8.303 7.916 8.129 7.916 8.022 8.023C7.915 8.13 7.915 8.304 8.022 8.411C8.129 8.518 8.303 8.518 8.411 8.41Z" stroke="black" stroke-width="1.5" stroke-linecap="round" stroke-linejoin="round"/>
<path d="M12 21C6.945 21 2.863 16.832 3.004 11.745C3.134 7.049 7.049 3.134 11.745 3.004C16.832 2.863 21 6.945 21 12V13C21 14.105 20.105 15 19 15H16.937C15.608 15 14.649 16.272 15.014 17.549L15.271 18.45C15.637 19.728 14.677 21 13.349 21H12Z" stroke="black" stroke-width="1.5" stroke-linecap="round" stroke-linejoin="round"/>
</g>
<defs>
<clipPath id="clip0_50_18380">
<rect width="24" height="24" fill="white"/>
</clipPath>
</defs>
</svg>
