<svg width="24" height="24" viewBox="0 0 24 24" fill="none" xmlns="http://www.w3.org/2000/svg">
<g clip-path="url(#clip0_50_17857)">
<path d="M15.8046 14.8046L18.1954 17.1954" stroke="black" stroke-width="1.5" stroke-linecap="round" stroke-linejoin="round"/>
<path d="M8 12H12" stroke="black" stroke-width="1.5" stroke-linecap="round" stroke-linejoin="round"/>
<path d="M8 15H10" stroke="black" stroke-width="1.5" stroke-linecap="round" stroke-linejoin="round"/>
<path d="M9 21H6.5C5.83696 21 5.20107 20.7366 4.73223 20.2678C4.26339 19.7989 4 19.163 4 18.5V8.37167C4 7.57602 4.31607 6.81296 4.87868 6.25035L7.25035 3.87868C7.81296 3.31607 8.57602 3 9.37167 3H16.5C17.163 3 17.7989 3.26339 18.2678 3.73223C18.7366 4.20107 19 4.83696 19 5.5V9" stroke="black" stroke-width="1.5" stroke-linecap="round" stroke-linejoin="round"/>
<path d="M4.02356 8H7.49999C7.89781 8 8.27935 7.84197 8.56065 7.56066C8.84195 7.27936 8.99999 6.89783 8.99999 6.5V3.02362" stroke="black" stroke-width="1.5" stroke-linecap="round" stroke-linejoin="round"/>
<path d="M19.7055 15.7055L20.4601 16.4601C20.5761 16.5761 20.6682 16.7139 20.731 16.8656C20.7938 17.0172 20.8262 17.1798 20.8262 17.3439C20.8262 17.5081 20.7938 17.6706 20.731 17.8223C20.6682 17.974 20.5761 18.1118 20.4601 18.2278L19.3439 19.3439" stroke="black" stroke-width="1.5" stroke-linecap="round" stroke-linejoin="round"/>
<path d="M15.0863 20.3244C14.7705 20.6401 14.3582 20.8411 13.915 20.8953L13.1217 20.9924C12.9692 21.011 12.8145 20.9943 12.6695 20.9435C12.5245 20.8927 12.3932 20.8091 12.2857 20.6994C12.1782 20.5896 12.0975 20.4565 12.0497 20.3105C12.002 20.1644 11.9886 20.0094 12.0104 19.8573L12.1308 19.0214C12.1923 18.594 12.3907 18.1981 12.6961 17.8928L18.0897 12.4993C18.248 12.341 18.436 12.2154 18.6428 12.1298C18.8496 12.0441 19.0713 12 19.2952 12C19.5191 12 19.7408 12.0441 19.9476 12.1298C20.1545 12.2154 20.3424 12.341 20.5007 12.4993C20.659 12.6576 20.7846 12.8456 20.8703 13.0524C20.9559 13.2593 21 13.4809 21 13.7048C21 13.9287 20.9559 14.1504 20.8703 14.3572C20.7846 14.5641 20.659 14.752 20.5007 14.9103L15.0863 20.3244Z" stroke="black" stroke-width="1.5" stroke-linecap="round" stroke-linejoin="round"/>
</g>
<defs>
<clipPath id="clip0_50_17857">
<rect width="24" height="24" fill="white"/>
</clipPath>
</defs>
</svg>
