<svg width="24" height="24" viewBox="0 0 24 24" fill="none" xmlns="http://www.w3.org/2000/svg">
<g clip-path="url(#clip0_50_17924)">
<path d="M17 18L17 10C17 9.20435 16.6839 8.44129 16.1213 7.87868C15.5587 7.31607 14.7957 7 14 7L6 7C5.20435 7 4.44129 7.31607 3.87868 7.87868C3.31607 8.44129 3 9.20435 3 10L3 18C3 18.7956 3.31607 19.5587 3.87868 20.1213C4.44129 20.6839 5.20435 21 6 21L14 21C14.7956 21 15.5587 20.6839 16.1213 20.1213C16.6839 19.5587 17 18.7956 17 18Z" stroke="black" stroke-width="1.5" stroke-linecap="round" stroke-linejoin="round"/>
<path d="M10 16L10 12" stroke="black" stroke-width="1.5" stroke-linecap="round" stroke-linejoin="round"/>
<path d="M8 14L12 14" stroke="black" stroke-width="1.5" stroke-linecap="round" stroke-linejoin="round"/>
<path d="M7 7L7 6C7 5.20435 7.31607 4.44129 7.87868 3.87868C8.44129 3.31607 9.20435 3 10 3L18 3C18.7957 3 19.5587 3.31607 20.1213 3.87868C20.6839 4.44129 21 5.20435 21 6L21 14C21 14.7956 20.6839 15.5587 20.1213 16.1213C19.5587 16.6839 18.7956 17 18 17L17 17" stroke="black" stroke-width="1.5" stroke-linecap="round" stroke-linejoin="round"/>
</g>
<defs>
<clipPath id="clip0_50_17924">
<rect width="24" height="24" fill="white"/>
</clipPath>
</defs>
</svg>
