<svg width="24" height="24" viewBox="0 0 24 24" fill="none" xmlns="http://www.w3.org/2000/svg">
<g clip-path="url(#clip0_50_18564)">
<path d="M6 16H5C4.33696 16 3.70107 15.7366 3.23223 15.2678C2.76339 14.7989 2.5 14.163 2.5 13.5V6.5C2.5 5.83696 2.76339 5.20107 3.23223 4.73223C3.70107 4.26339 4.33696 4 5 4H16C16.663 4 17.2989 4.26339 17.7678 4.73223C18.2366 5.20107 18.5 5.83696 18.5 6.5V8" stroke="black" stroke-width="1.5" stroke-linecap="round" stroke-linejoin="round"/>
<path d="M19 8H9C7.61929 8 6.5 9.11929 6.5 10.5V17.5C6.5 18.8807 7.61929 20 9 20H19C20.3807 20 21.5 18.8807 21.5 17.5V10.5C21.5 9.11929 20.3807 8 19 8Z" stroke="black" stroke-width="1.5" stroke-linecap="round" stroke-linejoin="round"/>
<path d="M6.5 12H21.5" stroke="black" stroke-width="1.5" stroke-linecap="round" stroke-linejoin="round"/>
<path d="M12 16H10" stroke="black" stroke-width="1.5" stroke-linecap="round" stroke-linejoin="round"/>
</g>
<defs>
<clipPath id="clip0_50_18564">
<rect width="24" height="24" fill="white"/>
</clipPath>
</defs>
</svg>
