<svg width="24" height="24" viewBox="0 0 24 24" fill="none" xmlns="http://www.w3.org/2000/svg">
<g clip-path="url(#clip0_50_18977)">
<path d="M8 4H16C16.2652 4 16.5196 4.10536 16.7071 4.29289C16.8946 4.48043 17 4.73478 17 5V11C17 12.3261 16.4732 13.5979 15.5355 14.5355C14.5979 15.4732 13.3261 16 12 16C10.6739 16 9.40215 15.4732 8.46447 14.5355C7.52678 13.5979 7 12.3261 7 11V5C7 4.73478 7.10536 4.48043 7.29289 4.29289C7.48043 4.10536 7.73478 4 8 4Z" stroke="black" stroke-width="1.5" stroke-linecap="round" stroke-linejoin="round"/>
<path d="M16.6732 12.7801L18.5652 11.8341C19.1466 11.5434 19.6355 11.0966 19.9773 10.5437C20.319 9.99075 20.5 9.3536 20.5 8.70361V7.3667C20.5 7.13463 20.4078 6.91207 20.2437 6.74798C20.0796 6.58389 19.8571 6.4917 19.625 6.4917H17" stroke="black" stroke-width="1.5" stroke-linecap="round" stroke-linejoin="round"/>
<path d="M12 20V16" stroke="black" stroke-width="1.5" stroke-linecap="round" stroke-linejoin="round"/>
<path d="M16 20H8" stroke="black" stroke-width="1.5" stroke-linecap="round" stroke-linejoin="round"/>
<path d="M7.32677 12.7801L5.43477 11.8341C4.8534 11.5434 4.36446 11.0966 4.02274 10.5437C3.68101 9.99075 3.50001 9.3536 3.5 8.70361V7.3667C3.5 7.13463 3.59219 6.91207 3.75628 6.74798C3.92038 6.58389 4.14294 6.4917 4.375 6.4917H7" stroke="black" stroke-width="1.5" stroke-linecap="round" stroke-linejoin="round"/>
</g>
<defs>
<clipPath id="clip0_50_18977">
<rect width="24" height="24" fill="white"/>
</clipPath>
</defs>
</svg>
