<svg width="24" height="24" viewBox="0 0 24 24" fill="none" xmlns="http://www.w3.org/2000/svg">
<g clip-path="url(#clip0_50_18882)">
<path d="M16 5H12" stroke="black" stroke-width="1.5" stroke-linecap="round" stroke-linejoin="round"/>
<path d="M20 7H17C16.448 7 16 6.552 16 6V4C16 3.448 16.448 3 17 3H20C20.552 3 21 3.448 21 4V6C21 6.552 20.552 7 20 7Z" stroke="black" stroke-width="1.5" stroke-linecap="round" stroke-linejoin="round"/>
<path d="M16 12H12" stroke="black" stroke-width="1.5" stroke-linecap="round" stroke-linejoin="round"/>
<path d="M20 14H17C16.448 14 16 13.552 16 13V11C16 10.448 16.448 10 17 10H20C20.552 10 21 10.448 21 11V13C21 13.552 20.552 14 20 14Z" stroke="black" stroke-width="1.5" stroke-linecap="round" stroke-linejoin="round"/>
<path d="M8 5H12" stroke="black" stroke-width="1.5" stroke-linecap="round" stroke-linejoin="round"/>
<path d="M4 2H6C7.105 2 8 2.895 8 4V6C8 7.105 7.105 8 6 8H4C2.895 8 2 7.105 2 6V4C2 2.895 2.895 2 4 2Z" stroke="black" stroke-width="1.5" stroke-linecap="round" stroke-linejoin="round"/>
<path d="M20 21H17C16.448 21 16 20.552 16 20V18C16 17.448 16.448 17 17 17H20C20.552 17 21 17.448 21 18V20C21 20.552 20.552 21 20 21Z" stroke="black" stroke-width="1.5" stroke-linecap="round" stroke-linejoin="round"/>
<path d="M16 19H13C12.448 19 12 18.552 12 18V5" stroke="black" stroke-width="1.5" stroke-linecap="round" stroke-linejoin="round"/>
</g>
<defs>
<clipPath id="clip0_50_18882">
<rect width="24" height="24" fill="white"/>
</clipPath>
</defs>
</svg>
