<svg width="24" height="24" viewBox="0 0 24 24" fill="none" xmlns="http://www.w3.org/2000/svg">
<g clip-path="url(#clip0_50_18457)">
<path d="M12.607 3.27099L14.057 2.56199C14.726 2.23499 15.535 2.49699 15.884 3.15599L16.641 4.58199C16.841 4.95799 17.203 5.22099 17.623 5.29499L19.213 5.57399C19.947 5.70299 20.446 6.38999 20.342 7.12799L20.116 8.72599C20.056 9.14799 20.195 9.57399 20.491 9.87999L21.613 11.04C22.131 11.575 22.131 12.425 21.613 12.961L20.491 14.121C20.195 14.427 20.056 14.853 20.116 15.275L20.342 16.873C20.446 17.611 19.947 18.298 19.213 18.427L17.623 18.706C17.203 18.78 16.841 19.043 16.641 19.419L15.884 20.845C15.535 21.503 14.727 21.766 14.057 21.439L12.607 20.73C12.224 20.543 11.777 20.543 11.394 20.73L9.944 21.439C9.275 21.766 8.466 21.504 8.117 20.845L7.36 19.418C7.16 19.042 6.798 18.779 6.378 18.705L4.788 18.426C4.054 18.297 3.555 17.61 3.659 16.872L3.885 15.274C3.945 14.852 3.806 14.426 3.51 14.12L2.388 12.96C1.87 12.425 1.87 11.575 2.388 11.039L3.51 9.87899C3.806 9.57299 3.945 9.14699 3.885 8.72499L3.66 7.12699C3.555 6.38999 4.055 5.70199 4.789 5.57399L6.379 5.29499C6.798 5.22099 7.16 4.95799 7.36 4.58199L8.117 3.15599C8.466 2.49799 9.274 2.23499 9.944 2.56199L11.394 3.27099C11.776 3.45799 12.224 3.45799 12.607 3.27099Z" stroke="black" stroke-width="1.5" stroke-linecap="round" stroke-linejoin="round"/>
<path d="M9 15L15 9" stroke="black" stroke-width="1.5" stroke-linecap="round" stroke-linejoin="round"/>
<path d="M14.994 13.5C14.1649 13.5 13.4921 14.172 13.5001 15C13.4961 15.828 14.1689 16.5 14.998 16.5C15.8271 16.5 16.5 15.828 16.5 15C16.5 14.172 15.8271 13.5 14.994 13.5Z" stroke="black" stroke-width="1.5" stroke-linecap="round" stroke-linejoin="round"/>
<path d="M8.99403 7.5C8.16494 7.5 7.49206 8.172 7.50007 9C7.49607 9.828 8.16895 10.5 8.99803 10.5C9.82712 10.5 10.5 9.828 10.5 9C10.5 8.172 9.82712 7.5 8.99403 7.5Z" stroke="black" stroke-width="1.5" stroke-linecap="round" stroke-linejoin="round"/>
</g>
<defs>
<clipPath id="clip0_50_18457">
<rect width="24" height="24" fill="white"/>
</clipPath>
</defs>
</svg>
