<svg width="24" height="24" viewBox="0 0 24 24" fill="none" xmlns="http://www.w3.org/2000/svg">
<g clip-path="url(#clip0_50_17462)">
<path d="M8.29999 13.5V4" stroke="black" stroke-width="1.5" stroke-linecap="round" stroke-linejoin="round"/>
<path d="M8.30001 13.5L10.63 19.37H10.62C10.82 19.88 11.39 20.13 11.9 19.94L12.53 19.7L12.52 19.71C13.68 19.27 14.46 18.16 14.46 16.91V13.53H17.45C18.83 13.53 19.94 12.42 19.94 11.03C19.93 10.83 19.91 10.63 19.86 10.43L18.735 5.93H18.725C18.445 4.82 17.445 4.04 16.295 4.04H5.41001H5.40001C4.57001 4.05 3.90001 4.72 3.90001 5.54V12.041C3.89001 12.871 4.57001 13.551 5.39001 13.551L8.30001 13.5Z" stroke="black" stroke-width="1.5" stroke-linecap="round" stroke-linejoin="round"/>
</g>
<defs>
<clipPath id="clip0_50_17462">
<rect width="24" height="24" fill="white" transform="matrix(1 0 0 -1 0 24)"/>
</clipPath>
</defs>
</svg>
