<svg width="24" height="24" viewBox="0 0 24 24" fill="none" xmlns="http://www.w3.org/2000/svg">
<g clip-path="url(#clip0_50_19101)">
<path d="M8.05113 17.8466L7 21" stroke="black" stroke-width="1.5" stroke-linecap="round" stroke-linejoin="round"/>
<path d="M15.9489 17.8466L17 21" stroke="black" stroke-width="1.5" stroke-linecap="round" stroke-linejoin="round"/>
<path d="M11 13H13" stroke="black" stroke-width="1.5" stroke-linecap="round" stroke-linejoin="round"/>
<path d="M8 4.99998C8.86346 4.34701 9.91746 3.99568 11 3.99998H13C14.0825 3.99568 15.1365 4.34701 16 4.99998" stroke="black" stroke-width="1.5" stroke-linecap="round" stroke-linejoin="round"/>
<path d="M6.1 8C6.03111 8.32882 5.99759 8.66405 6 9V15C6 15.7956 6.31607 16.5587 6.87868 17.1213C7.44129 17.6839 8.20435 18 9 18H10C10.5304 18 11.0391 17.7893 11.4142 17.4142C11.7893 17.0391 12 16.5304 12 16C12 16.5304 12.2107 17.0391 12.5858 17.4142C12.9609 17.7893 13.4696 18 14 18H15C15.7956 18 16.5587 17.6839 17.1213 17.1213C17.6839 16.5587 18 15.7956 18 15V9C18.0024 8.66405 17.9689 8.32882 17.9 8" stroke="black" stroke-width="1.5" stroke-linecap="round" stroke-linejoin="round"/>
<path d="M5 3H7C7.26522 3 7.51957 3.10536 7.70711 3.29289C7.89464 3.48043 8 3.73478 8 4V6C8 6.53043 7.78929 7.03914 7.41421 7.41421C7.03914 7.78929 6.53043 8 6 8C5.46957 8 4.96086 7.78929 4.58579 7.41421C4.21071 7.03914 4 6.53043 4 6V4C4 3.73478 4.10536 3.48043 4.29289 3.29289C4.48043 3.10536 4.73478 3 5 3Z" stroke="black" stroke-width="1.5" stroke-linecap="round" stroke-linejoin="round"/>
<path d="M17 3H19C19.2652 3 19.5196 3.10536 19.7071 3.29289C19.8946 3.48043 20 3.73478 20 4V6C20 6.53043 19.7893 7.03914 19.4142 7.41421C19.0391 7.78929 18.5304 8 18 8C17.4696 8 16.9609 7.78929 16.5858 7.41421C16.2107 7.03914 16 6.53043 16 6V4C16 3.73478 16.1054 3.48043 16.2929 3.29289C16.4804 3.10536 16.7348 3 17 3Z" stroke="black" stroke-width="1.5" stroke-linecap="round" stroke-linejoin="round"/>
<path d="M14 18V19C14 19.3978 13.842 19.7794 13.5607 20.0607C13.2794 20.342 12.8978 20.5 12.5 20.5H11.5C11.1022 20.5 10.7206 20.342 10.4393 20.0607C10.158 19.7794 10 19.3978 10 19V18" stroke="black" stroke-width="1.5" stroke-linecap="round" stroke-linejoin="round"/>
<path d="M12 13V16" stroke="black" stroke-width="1.5" stroke-linecap="round" stroke-linejoin="round"/>
<path d="M15 9.50064C14.9999 9.59948 14.9705 9.69606 14.9155 9.77819C14.8605 9.86031 14.7824 9.9243 14.691 9.96206C14.5997 9.99983 14.4992 10.0097 14.4023 9.99036C14.3054 9.97105 14.2163 9.92344 14.1464 9.85355C14.0766 9.78367 14.029 9.69463 14.0096 9.5977C13.9903 9.50077 14.0002 9.40029 14.0379 9.30895C14.0757 9.21762 14.1397 9.13952 14.2218 9.08453C14.3039 9.02954 14.4005 9.00013 14.4994 9C14.5651 8.99992 14.6303 9.01281 14.691 9.03794C14.7518 9.06307 14.807 9.09994 14.8536 9.14645C14.9001 9.19295 14.9369 9.24818 14.9621 9.30895C14.9872 9.36973 15.0001 9.43487 15 9.50064Z" stroke="black" stroke-width="1.5" stroke-linecap="round" stroke-linejoin="round"/>
<path d="M10 9.50064C9.99987 9.59948 9.97046 9.69606 9.91547 9.77819C9.86048 9.86031 9.78238 9.9243 9.69105 9.96206C9.59971 9.99983 9.49923 10.0097 9.4023 9.99036C9.30537 9.97105 9.21633 9.92344 9.14645 9.85355C9.07656 9.78367 9.02895 9.69463 9.00964 9.5977C8.99033 9.50077 9.00017 9.40029 9.03794 9.30895C9.0757 9.21762 9.13969 9.13952 9.22182 9.08453C9.30394 9.02954 9.40052 9.00013 9.49936 9C9.56513 8.99992 9.63027 9.01281 9.69105 9.03794C9.75182 9.06307 9.80705 9.09994 9.85355 9.14645C9.90006 9.19295 9.93693 9.24818 9.96206 9.30895C9.98719 9.36973 10.0001 9.43487 10 9.50064Z" stroke="black" stroke-width="1.5" stroke-linecap="round" stroke-linejoin="round"/>
</g>
<defs>
<clipPath id="clip0_50_19101">
<rect width="24" height="24" fill="white"/>
</clipPath>
</defs>
</svg>
