<svg width="24" height="24" viewBox="0 0 24 24" fill="none" xmlns="http://www.w3.org/2000/svg">
<g clip-path="url(#clip0_50_17659)">
<path d="M12 16L12 8" stroke="black" stroke-width="1.5" stroke-linecap="round" stroke-linejoin="round"/>
<path d="M15 13L12 16L8.99999 13" stroke="black" stroke-width="1.5" stroke-linecap="round" stroke-linejoin="round"/>
<path d="M11.928 3C16.8986 3 20.928 7.02944 20.928 12C20.928 16.9706 16.8986 21 11.928 21" stroke="black" stroke-width="1.5" stroke-linecap="round" stroke-linejoin="round"/>
<path d="M8.853 20.449C7.86648 20.0918 6.95001 19.5649 6.145 18.892" stroke="black" stroke-width="1.5" stroke-linecap="round" stroke-linejoin="round"/>
<path d="M6.145 5.108C6.94953 4.43442 7.86612 3.90741 8.853 3.55099" stroke="black" stroke-width="1.5" stroke-linecap="round" stroke-linejoin="round"/>
<path d="M3.07201 10.438C3.2527 9.40369 3.61387 8.40922 4.13901 7.5" stroke="black" stroke-width="1.5" stroke-linecap="round" stroke-linejoin="round"/>
<path d="M3.07201 13.561C3.25259 14.5957 3.61376 15.5905 4.13901 16.5" stroke="black" stroke-width="1.5" stroke-linecap="round" stroke-linejoin="round"/>
</g>
<defs>
<clipPath id="clip0_50_17659">
<rect width="24" height="24" fill="white"/>
</clipPath>
</defs>
</svg>
