<svg width="24" height="24" viewBox="0 0 24 24" fill="none" xmlns="http://www.w3.org/2000/svg">
<g clip-path="url(#clip0_50_17369)">
<path d="M12 21C10.22 21 8.47991 20.4722 6.99986 19.4832C5.51982 18.4943 4.36627 17.0887 3.68508 15.4441C3.00389 13.7996 2.82566 11.99 3.17293 10.2442C3.5202 8.49836 4.37736 6.89471 5.63604 5.63604C6.89471 4.37736 8.49836 3.5202 10.2442 3.17293C11.99 2.82566 13.7996 3.00389 15.4441 3.68508C17.0887 4.36627 18.4943 5.51982 19.4832 6.99986C20.4722 8.47991 21 10.22 21 12" stroke="black" stroke-width="1.5" stroke-linecap="round" stroke-linejoin="round"/>
<path d="M3.51388 15H6C6.53043 15 7.03914 14.7893 7.41421 14.4142C7.78928 14.0391 8 13.5304 8 13V11C8 10.4696 8.21071 9.96086 8.58578 9.58578C8.96086 9.21071 9.46957 9 10 9H12C12.5304 9 13.0391 8.78928 13.4142 8.41421C13.7893 8.03914 14 7.53043 14 7V3.22468" stroke="black" stroke-width="1.5" stroke-linecap="round" stroke-linejoin="round"/>
<path d="M17.498 17C17.3992 17.0004 17.3027 17.0301 17.2208 17.0853C17.1388 17.1404 17.075 17.2187 17.0375 17.3101C16.9999 17.4015 16.9903 17.5019 17.0099 17.5988C17.0294 17.6956 17.0771 17.7845 17.1472 17.8543C17.2172 17.924 17.3062 17.9714 17.4032 17.9905C17.5001 18.0097 17.6005 17.9997 17.6918 17.9617C17.783 17.9238 17.861 17.8598 17.9159 17.7776C17.9707 17.6954 18 17.5988 18 17.5C18.0003 17.4341 17.9876 17.3687 17.9625 17.3078C17.9373 17.2468 17.9003 17.1915 17.8536 17.145C17.8069 17.0984 17.7514 17.0617 17.6904 17.0368C17.6293 17.0119 17.5639 16.9994 17.498 17Z" stroke="black" stroke-width="1.5" stroke-linecap="round" stroke-linejoin="round"/>
<path d="M14 17.5C14 16.5717 14.3687 15.6815 15.0251 15.0251C15.6815 14.3687 16.5717 14 17.5 14C18.4283 14 19.3185 14.3687 19.9749 15.0251C20.6313 15.6815 21 16.5717 21 17.5C21 19.1385 19.212 20.8888 18.192 21.7544C17.9966 21.9133 17.7524 22 17.5005 22C17.2486 22 17.0044 21.9133 16.809 21.7544C15.788 20.8888 14 19.1385 14 17.5Z" stroke="black" stroke-width="1.5" stroke-linecap="round" stroke-linejoin="round"/>
</g>
<defs>
<clipPath id="clip0_50_17369">
<rect width="24" height="24" fill="white"/>
</clipPath>
</defs>
</svg>
