<svg width="24" height="24" viewBox="0 0 24 24" fill="none" xmlns="http://www.w3.org/2000/svg">
<g clip-path="url(#clip0_50_18765)">
<path d="M18 2.75V7.25C18 7.38261 17.9473 7.50979 17.8536 7.60355C17.7598 7.69732 17.6326 7.75 17.5 7.75H16C15.337 7.75 14.7011 7.48661 14.2322 7.01777C13.7634 6.54893 13.5 5.91304 13.5 5.25V4.75C13.5 4.08696 13.7634 3.45107 14.2322 2.98223C14.7011 2.51339 15.337 2.25 16 2.25H17.5C17.6326 2.25 17.7598 2.30268 17.8536 2.39645C17.9473 2.49021 18 2.61739 18 2.75Z" stroke="black" stroke-width="1.5" stroke-linecap="round" stroke-linejoin="round"/>
<path d="M18 6.5H20" stroke="black" stroke-width="1.5" stroke-linecap="round" stroke-linejoin="round"/>
<path d="M18 3.5H20" stroke="black" stroke-width="1.5" stroke-linecap="round" stroke-linejoin="round"/>
<path d="M13.5 5H12C9.87827 5 7.84344 5.84285 6.34315 7.34315C4.84285 8.84344 4 10.8783 4 13C4 15.1217 4.84285 17.1566 6.34315 18.6569C7.84344 20.1571 9.87827 21 12 21C14.1217 21 16.1566 20.1571 17.6569 18.6569C19.1571 17.1566 20 15.1217 20 13" stroke="black" stroke-width="1.5" stroke-linecap="round" stroke-linejoin="round"/>
<path d="M11.594 10L10 13H14L12.406 16" stroke="black" stroke-width="1.5" stroke-linecap="round" stroke-linejoin="round"/>
</g>
<defs>
<clipPath id="clip0_50_18765">
<rect width="24" height="24" fill="white"/>
</clipPath>
</defs>
</svg>
