<svg width="24" height="24" viewBox="0 0 24 24" fill="none" xmlns="http://www.w3.org/2000/svg">
<path d="M15 19.4V10.863C15 10.438 14.831 10.031 14.531 9.731L12.269 7.469C11.969 7.169 11.562 7 11.137 7H5.6C4.716 7 4 7.716 4 8.6V19.4C4 20.284 4.716 21 5.6 21H13.4C14.284 21 15 20.284 15 19.4Z" stroke="black" stroke-width="1.5" stroke-linecap="round" stroke-linejoin="round"/>
<path d="M15 17H18.4C19.284 17 20 16.284 20 15.4V6.863C20 6.438 19.831 6.031 19.531 5.731L17.269 3.469C16.969 3.169 16.562 3 16.137 3H10.6C9.716 3 9 3.716 9 4.6V7" stroke="black" stroke-width="1.5" stroke-linecap="round" stroke-linejoin="round"/>
<path d="M20 7H16.8C16.358 7 16 6.642 16 6.2V3" stroke="black" stroke-width="1.5" stroke-linecap="round" stroke-linejoin="round"/>
<path d="M15 11H11.8C11.358 11 11 10.642 11 10.2V7" stroke="black" stroke-width="1.5" stroke-linecap="round" stroke-linejoin="round"/>
</svg>
