<svg width="24" height="24" viewBox="0 0 24 24" fill="none" xmlns="http://www.w3.org/2000/svg">
<g clip-path="url(#clip0_50_16514)">
<path d="M19 11V7.828C19 7.298 18.789 6.789 18.414 6.414L15.586 3.586C15.211 3.211 14.702 3 14.172 3H7C5.895 3 5 3.895 5 5V19C5 20.105 5.895 21 7 21H11" stroke="black" stroke-width="1.5" stroke-linecap="round" stroke-linejoin="round"/>
<path d="M19 8H15C14.448 8 14 7.552 14 7V3" stroke="black" stroke-width="1.5" stroke-linecap="round" stroke-linejoin="round"/>
<path d="M17.146 20.707L20.706 17.147C21.097 16.756 21.097 16.123 20.706 15.733L19.12 14.147C18.729 13.756 18.096 13.756 17.706 14.147L14.146 17.707C13.958 17.895 13.853 18.149 13.853 18.414V21H16.439C16.704 21 16.958 20.895 17.146 20.707Z" stroke="black" stroke-width="1.5" stroke-linecap="round" stroke-linejoin="round"/>
</g>
<defs>
<clipPath id="clip0_50_16514">
<rect width="24" height="24" fill="white"/>
</clipPath>
</defs>
</svg>
