<svg width="24" height="24" viewBox="0 0 24 24" fill="none" xmlns="http://www.w3.org/2000/svg">
<g clip-path="url(#clip0_50_16403)">
<path d="M18.414 6.414L15.586 3.586C15.211 3.211 14.702 3 14.172 3H7C5.895 3 5 3.895 5 5V19C5 20.105 5.895 21 7 21H17C18.105 21 19 20.105 19 19V7.828C19 7.298 18.789 6.789 18.414 6.414Z" stroke="black" stroke-width="1.5" stroke-linecap="round" stroke-linejoin="round"/>
<path d="M19 8H15C14.448 8 14 7.552 14 7V3" stroke="black" stroke-width="1.5" stroke-linecap="round" stroke-linejoin="round"/>
<path d="M12 11V18" stroke="black" stroke-width="1.5" stroke-linecap="round" stroke-linejoin="round"/>
<path d="M8 14.5H16" stroke="black" stroke-width="1.5" stroke-linecap="round" stroke-linejoin="round"/>
<path d="M15 18H9C8.448 18 8 17.552 8 17V12C8 11.448 8.448 11 9 11H15C15.552 11 16 11.448 16 12V17C16 17.552 15.552 18 15 18Z" stroke="black" stroke-width="1.5" stroke-linecap="round" stroke-linejoin="round"/>
</g>
<defs>
<clipPath id="clip0_50_16403">
<rect width="24" height="24" fill="white"/>
</clipPath>
</defs>
</svg>
