<svg width="24" height="24" viewBox="0 0 24 24" fill="none" xmlns="http://www.w3.org/2000/svg">
<g clip-path="url(#clip0_50_16370)">
<path d="M18.414 6.414L15.586 3.586C15.211 3.211 14.702 3 14.172 3H7C5.895 3 5 3.895 5 5V19C5 20.105 5.895 21 7 21H17C18.105 21 19 20.105 19 19V7.828C19 7.298 18.789 6.789 18.414 6.414Z" stroke="black" stroke-width="1.5" stroke-linecap="round" stroke-linejoin="round"/>
<path d="M19 8H15C14.448 8 14 7.552 14 7V3" stroke="black" stroke-width="1.5" stroke-linecap="round" stroke-linejoin="round"/>
<path d="M15.195 18C15.04 17.61 14.799 17.259 14.491 16.974C13.969 16.491 13.285 16.222 12.574 16.222H11.426C10.715 16.222 10.03 16.491 9.509 16.974C9.2 17.259 8.96 17.61 8.805 18" stroke="black" stroke-width="1.5" stroke-linecap="round" stroke-linejoin="round"/>
<path d="M13.149 11.069C13.7836 11.7036 13.7836 12.7325 13.149 13.3671C12.5144 14.0017 11.4855 14.0017 10.8509 13.3671C10.2163 12.7325 10.2163 11.7036 10.8509 11.069C11.4855 10.4344 12.5144 10.4344 13.149 11.069Z" stroke="black" stroke-width="1.5" stroke-linecap="round" stroke-linejoin="round"/>
</g>
<defs>
<clipPath id="clip0_50_16370">
<rect width="24" height="24" fill="white"/>
</clipPath>
</defs>
</svg>
