<svg width="24" height="24" viewBox="0 0 24 24" fill="none" xmlns="http://www.w3.org/2000/svg">
<g clip-path="url(#clip0_50_16519)">
<path d="M19 11V7.828C19 7.298 18.789 6.789 18.414 6.414L15.586 3.586C15.211 3.211 14.702 3 14.172 3H7C5.895 3 5 3.895 5 5V19C5 20.105 5.895 21 7 21H12" stroke="black" stroke-width="1.5" stroke-linecap="round" stroke-linejoin="round"/>
<path d="M19 8H15C14.448 8 14 7.552 14 7V3" stroke="black" stroke-width="1.5" stroke-linecap="round" stroke-linejoin="round"/>
<path d="M18.343 20.023L20.098 20.945C20.44 21.125 20.839 20.834 20.774 20.454L20.439 18.5L21.859 17.117C22.136 16.848 21.983 16.378 21.601 16.323L19.639 16.038L18.762 14.259C18.591 13.913 18.097 13.913 17.927 14.259L17.05 16.038L15.088 16.323C14.706 16.379 14.553 16.848 14.83 17.117L16.25 18.5L15.914 20.455C15.849 20.835 16.248 21.125 16.59 20.946L18.345 20.024" stroke="black" stroke-width="1.5" stroke-linecap="round" stroke-linejoin="round"/>
</g>
<defs>
<clipPath id="clip0_50_16519">
<rect width="24" height="24" fill="white"/>
</clipPath>
</defs>
</svg>
