<svg width="24" height="24" viewBox="0 0 24 24" fill="none" xmlns="http://www.w3.org/2000/svg">
<g clip-path="url(#clip0_50_16554)">
<path d="M19 11V7.828C19 7.298 18.789 6.789 18.414 6.414L15.586 3.586C15.211 3.211 14.702 3 14.172 3H7C5.895 3 5 3.895 5 5V19C5 20.105 5.895 21 7 21H11" stroke="black" stroke-width="1.5" stroke-linecap="round" stroke-linejoin="round"/>
<path d="M19 8H15C14.448 8 14 7.552 14 7V3" stroke="black" stroke-width="1.5" stroke-linecap="round" stroke-linejoin="round"/>
<path d="M18.687 17.354V15.603C18.687 14.762 17.97 14 17.084 14C16.198 14 15.481 14.717 15.481 15.603V17.354" stroke="black" stroke-width="1.5" stroke-linecap="round" stroke-linejoin="round"/>
<path d="M19.345 21H14.824C14.461 21 14.167 20.706 14.167 20.344V18.011C14.167 17.648 14.461 17.355 14.823 17.355H19.344C19.707 17.355 20 17.649 20 18.011V20.344C20.001 20.706 19.707 21 19.345 21Z" stroke="black" stroke-width="1.5" stroke-linecap="round" stroke-linejoin="round"/>
</g>
<defs>
<clipPath id="clip0_50_16554">
<rect width="24" height="24" fill="white"/>
</clipPath>
</defs>
</svg>
