<svg width="24" height="24" viewBox="0 0 24 24" fill="none" xmlns="http://www.w3.org/2000/svg">
<g clip-path="url(#clip0_50_17177)">
<path d="M6.399 8.343C9.523 5.219 14.589 5.219 17.713 8.343" stroke="black" stroke-width="1.5" stroke-linecap="round" stroke-linejoin="round"/>
<path d="M14.667 16.667C13.194 16.667 12 15.473 12 14" stroke="black" stroke-width="1.5" stroke-linecap="round" stroke-linejoin="round"/>
<path d="M11.23 18C10.107 17.028 9.38901 15.604 9.38901 14C9.38901 12.527 10.583 11.333 12.056 11.333C13.529 11.333 14.723 12.527 14.723 14" stroke="black" stroke-width="1.5" stroke-linecap="round" stroke-linejoin="round"/>
<path d="M7.797 18C7.115 16.823 6.722 15.458 6.722 14C6.722 11.054 9.11 8.667 12.055 8.667C15 8.667 17.388 11.055 17.388 14" stroke="black" stroke-width="1.5" stroke-linecap="round" stroke-linejoin="round"/>
<path d="M3 17V19C3 20.105 3.895 21 5 21H7" stroke="black" stroke-width="1.5" stroke-linecap="round" stroke-linejoin="round"/>
<path d="M21 7V5C21 3.895 20.105 3 19 3H17" stroke="black" stroke-width="1.5" stroke-linecap="round" stroke-linejoin="round"/>
<path d="M7 3H5C3.895 3 3 3.895 3 5V7" stroke="black" stroke-width="1.5" stroke-linecap="round" stroke-linejoin="round"/>
<path d="M17 21H19C20.105 21 21 20.105 21 19V17" stroke="black" stroke-width="1.5" stroke-linecap="round" stroke-linejoin="round"/>
</g>
<defs>
<clipPath id="clip0_50_17177">
<rect width="24" height="24" fill="white"/>
</clipPath>
</defs>
</svg>
