<svg width="24" height="24" viewBox="0 0 24 24" fill="none" xmlns="http://www.w3.org/2000/svg">
<g clip-path="url(#clip0_50_16743)">
<path d="M8.01 17H15.99" stroke="black" stroke-width="1.5" stroke-linecap="round" stroke-linejoin="round"/>
<path d="M8.01 13H15.99" stroke="black" stroke-width="1.5" stroke-linecap="round" stroke-linejoin="round"/>
<path d="M19 9H12.535C12.201 9 11.888 8.833 11.703 8.555L10.297 6.446C10.111 6.167 9.799 6 9.465 6H5C3.895 6 3 6.895 3 8V19C3 20.105 3.895 21 5 21H19C20.105 21 21 20.105 21 19V11C21 9.895 20.105 9 19 9Z" stroke="black" stroke-width="1.5" stroke-linecap="round" stroke-linejoin="round"/>
<path d="M5 6V5C5 3.895 5.895 3 7 3H17C18.105 3 19 3.895 19 5V9" stroke="black" stroke-width="1.5" stroke-linecap="round" stroke-linejoin="round"/>
</g>
<defs>
<clipPath id="clip0_50_16743">
<rect width="24" height="24" fill="white"/>
</clipPath>
</defs>
</svg>
