<svg width="24" height="24" viewBox="0 0 24 24" fill="none" xmlns="http://www.w3.org/2000/svg">
<g clip-path="url(#clip0_50_16709)">
<path d="M6 19V20.499C6 20.5936 6.02681 20.6862 6.07732 20.7661C6.12783 20.846 6.19997 20.91 6.28536 20.9506C6.37076 20.9912 6.46591 21.0067 6.55979 20.9954C6.65366 20.9841 6.7424 20.9464 6.81572 20.8867L9.13263 19H11C11.5304 19 12.0391 18.7893 12.4142 18.4142C12.7893 18.0391 13 17.5304 13 17V14C13 13.4696 12.7893 12.9609 12.4142 12.5858C12.0391 12.2107 11.5304 12 11 12H5C4.46957 12 3.96086 12.2107 3.58579 12.5858C3.21071 12.9609 3 13.4696 3 14V17C3 17.5304 3.21071 18.0391 3.58579 18.4142C3.96086 18.7893 4.46957 19 5 19H6Z" stroke="black" stroke-width="1.5" stroke-linecap="round" stroke-linejoin="round"/>
<path d="M16 20H19C19.5304 20 20.0391 19.7893 20.4142 19.4142C20.7893 19.0391 21 18.5304 21 18V8.94C21 8.40957 20.7893 7.90086 20.4142 7.52579C20.0391 7.15071 19.5304 6.94 19 6.94H12.5291C12.3661 6.94 12.2055 6.90014 12.0614 6.82389C11.9173 6.74764 11.7941 6.63732 11.7024 6.50253L10.2974 4.43747C10.2056 4.30267 10.0824 4.19235 9.93826 4.1161C9.79415 4.03985 9.63358 3.99999 9.47054 4H5C4.46957 4 3.96086 4.21071 3.58579 4.58579C3.21071 4.96086 3 5.46957 3 6V9" stroke="black" stroke-width="1.5" stroke-linecap="round" stroke-linejoin="round"/>
</g>
<defs>
<clipPath id="clip0_50_16709">
<rect width="24" height="24" fill="white"/>
</clipPath>
</defs>
</svg>
