<svg width="24" height="24" viewBox="0 0 24 24" fill="none" xmlns="http://www.w3.org/2000/svg">
<g clip-path="url(#clip0_50_16666)">
<path d="M22 17.5C22 19.437 20.437 21 18.5 21C16.563 21 15 19.437 15 17.5C15 15.563 16.563 14 18.5 14C20.437 14 22 15.563 22 17.5Z" stroke="black" stroke-width="1.5" stroke-linecap="round" stroke-linejoin="round"/>
<path d="M16.026 19.974L20.974 15.026" stroke="black" stroke-width="1.5" stroke-linecap="round" stroke-linejoin="round"/>
<path d="M21 11V7.94C21 6.836 20.105 5.94 19 5.94H12.529C12.198 5.94 11.888 5.776 11.702 5.502L10.297 3.437C10.111 3.164 9.802 3 9.471 3H5C3.895 3 3 3.895 3 5V17C3 18.105 3.895 19 5 19H11" stroke="black" stroke-width="1.5" stroke-linecap="round" stroke-linejoin="round"/>
</g>
<defs>
<clipPath id="clip0_50_16666">
<rect width="24" height="24" fill="white"/>
</clipPath>
</defs>
</svg>
