<svg width="24" height="24" viewBox="0 0 24 24" fill="none" xmlns="http://www.w3.org/2000/svg">
<g clip-path="url(#clip0_50_16698)">
<path d="M17.146 20.707L20.706 17.147C21.097 16.756 21.097 16.123 20.706 15.733L19.12 14.147C18.729 13.756 18.096 13.756 17.706 14.147L14.146 17.707C13.958 17.895 13.853 18.149 13.853 18.414V21H16.439C16.704 21 16.958 20.895 17.146 20.707Z" stroke="black" stroke-width="1.5" stroke-linecap="round" stroke-linejoin="round"/>
<path d="M21 11V7.94C21 6.836 20.105 5.94 19 5.94H12.529C12.198 5.94 11.888 5.776 11.702 5.502L10.297 3.437C10.111 3.164 9.802 3 9.471 3H5C3.895 3 3 3.895 3 5V17C3 18.105 3.895 19 5 19H10" stroke="black" stroke-width="1.5" stroke-linecap="round" stroke-linejoin="round"/>
</g>
<defs>
<clipPath id="clip0_50_16698">
<rect width="24" height="24" fill="white"/>
</clipPath>
</defs>
</svg>
