<svg width="24" height="24" viewBox="0 0 24 24" fill="none" xmlns="http://www.w3.org/2000/svg">
<g clip-path="url(#clip0_50_16728)">
<path d="M8 17H4.5C3.80964 17 3.25 17.5596 3.25 18.25V19.75C3.25 20.4404 3.80964 21 4.5 21H8C8.69036 21 9.25 20.4404 9.25 19.75V18.25C9.25 17.5596 8.69036 17 8 17Z" stroke="black" stroke-width="1.5" stroke-linecap="round" stroke-linejoin="round"/>
<path d="M4.5 17V15.75C4.5 15.2859 4.68437 14.8408 5.01256 14.5126C5.34075 14.1844 5.78587 14 6.25 14C6.71413 14 7.15925 14.1844 7.48744 14.5126C7.81563 14.8408 8 15.2859 8 15.75V17" stroke="black" stroke-width="1.5" stroke-linecap="round" stroke-linejoin="round"/>
<path d="M13 20H19C19.5304 20 20.0391 19.7893 20.4142 19.4142C20.7893 19.0391 21 18.5304 21 18V8.94C21 8.40957 20.7893 7.90086 20.4142 7.52579C20.0391 7.15071 19.5304 6.94 19 6.94H12.5291C12.3661 6.94 12.2055 6.90014 12.0614 6.82389C11.9173 6.74764 11.7941 6.63732 11.7024 6.50253L10.2974 4.43747C10.2056 4.30267 10.0824 4.19235 9.93826 4.1161C9.79415 4.03985 9.63358 3.99999 9.47054 4H5C4.46957 4 3.96086 4.21071 3.58579 4.58579C3.21071 4.96086 3 5.46957 3 6V11" stroke="black" stroke-width="1.5" stroke-linecap="round" stroke-linejoin="round"/>
</g>
<defs>
<clipPath id="clip0_50_16728">
<rect width="24" height="24" fill="white"/>
</clipPath>
</defs>
</svg>
