<svg width="24" height="24" viewBox="0 0 24 24" fill="none" xmlns="http://www.w3.org/2000/svg">
<g clip-path="url(#clip0_50_16624)">
<path d="M19 6.94H12.529C12.198 6.94 11.888 6.776 11.702 6.502L10.297 4.437C10.111 4.164 9.802 4 9.471 4H5C3.895 4 3 4.895 3 6V18C3 19.105 3.895 20 5 20H19C20.105 20 21 19.105 21 18V8.94C21 7.836 20.105 6.94 19 6.94Z" stroke="black" stroke-width="1.5" stroke-linecap="round" stroke-linejoin="round"/>
<path d="M10.0102 14.6698C10.5273 15.1869 10.5273 16.0252 10.0102 16.5422C9.49315 17.0593 8.65484 17.0593 8.13778 16.5422C7.62073 16.0252 7.62073 15.1869 8.13778 14.6698C8.65484 14.1527 9.49314 14.1527 10.0102 14.6698Z" stroke="black" stroke-width="1.5" stroke-linecap="round" stroke-linejoin="round"/>
<path d="M14.8622 13.7878C15.3793 14.3049 15.3793 15.1432 14.8622 15.6602C14.3451 16.1773 13.5068 16.1773 12.9898 15.6602C12.4727 15.1432 12.4727 14.3049 12.9898 13.7878C13.5068 13.2707 14.3451 13.2707 14.8622 13.7878Z" stroke="black" stroke-width="1.5" stroke-linecap="round" stroke-linejoin="round"/>
<path d="M10.397 15.606V12.198C10.397 11.789 10.646 11.421 11.026 11.27L13.879 10.129C14.536 9.866 15.25 10.35 15.25 11.057V14.724" stroke="black" stroke-width="1.5" stroke-linecap="round" stroke-linejoin="round"/>
</g>
<defs>
<clipPath id="clip0_50_16624">
<rect width="24" height="24" fill="white"/>
</clipPath>
</defs>
</svg>
