<svg width="24" height="24" viewBox="0 0 24 24" fill="none" xmlns="http://www.w3.org/2000/svg">
<g clip-path="url(#clip0_50_16749)">
<path d="M19 11V7.34805C19 6.5524 18.6839 5.78934 18.1213 5.22673L15.7497 2.85506C15.187 2.29245 14.424 1.97638 13.6283 1.97638H7.5C6.83696 1.97638 6.20107 2.23977 5.73223 2.70861C5.26339 3.17745 5 3.81334 5 4.47638V8" stroke="black" stroke-width="1.5" stroke-linecap="round" stroke-linejoin="round"/>
<path d="M18.9764 6.97638H15.5C15.1022 6.97638 14.7206 6.81834 14.4393 6.53704C14.158 6.25574 14 5.8742 14 5.47638V2" stroke="black" stroke-width="1.5" stroke-linecap="round" stroke-linejoin="round"/>
<path d="M19 11H12.8024C12.5555 11 12.3124 10.939 12.0947 10.8225C11.8769 10.706 11.6913 10.5375 11.5544 10.3321L10.445 8.668C10.308 8.46252 10.1224 8.29403 9.9047 8.1775C9.68697 8.06097 9.44384 8 9.19689 8H5C4.46957 8 3.96086 8.21071 3.58579 8.58579C3.21071 8.96086 3 9.46957 3 10V19C3 19.5304 3.21071 20.0391 3.58579 20.4142C3.96086 20.7893 4.46957 21 5 21H19C19.5304 21 20.0391 20.7893 20.4142 20.4142C20.7893 20.0391 21 19.5304 21 19V13C21 12.4696 20.7893 11.9609 20.4142 11.5858C20.0391 11.2107 19.5304 11 19 11Z" stroke="black" stroke-width="1.5" stroke-linecap="round" stroke-linejoin="round"/>
</g>
<defs>
<clipPath id="clip0_50_16749">
<rect width="24" height="24" fill="white"/>
</clipPath>
</defs>
</svg>
