<svg width="24" height="24" viewBox="0 0 24 24" fill="none" xmlns="http://www.w3.org/2000/svg">
<g clip-path="url(#clip0_50_16597)">
<path d="M19 6.94H12.529C12.198 6.94 11.888 6.776 11.702 6.502L10.297 4.437C10.111 4.164 9.802 4 9.471 4H5C3.895 4 3 4.895 3 6V18C3 19.105 3.895 20 5 20H19C20.105 20 21 19.105 21 18V8.94C21 7.836 20.105 6.94 19 6.94Z" stroke="black" stroke-width="1.5" stroke-linecap="round" stroke-linejoin="round"/>
<path d="M10.5 17H13.5" stroke="black" stroke-width="1.5" stroke-linecap="round" stroke-linejoin="round"/>
<path d="M12 11V17" stroke="black" stroke-width="1.5" stroke-linecap="round" stroke-linejoin="round"/>
<path d="M9 12.5V11.5C9 11.224 9.224 11 9.5 11H14.5C14.776 11 15 11.224 15 11.5V12.5" stroke="black" stroke-width="1.5" stroke-linecap="round" stroke-linejoin="round"/>
</g>
<defs>
<clipPath id="clip0_50_16597">
<rect width="24" height="24" fill="white"/>
</clipPath>
</defs>
</svg>
