<svg width="24" height="24" viewBox="0 0 24 24" fill="none" xmlns="http://www.w3.org/2000/svg">
<g clip-path="url(#clip0_50_16652)">
<path d="M7 7.55556H5C4.46957 7.55556 3.96086 7.76627 3.58579 8.14134C3.21071 8.51642 3 9.02512 3 9.55556V18C3 18.5304 3.21071 19.0391 3.58579 19.4142C3.96086 19.7893 4.46957 20 5 20H15C15.5304 20 16.0391 19.7893 16.4142 19.4142C16.7893 19.0391 17 18.5304 17 18V16" stroke="black" stroke-width="1.5" stroke-linecap="round" stroke-linejoin="round"/>
<path d="M9 3H12.1101C12.2732 3 12.4337 3.03986 12.5778 3.11611C12.7219 3.19236 12.8452 3.30269 12.9369 3.43748L13.7024 4.56248C13.7941 4.69728 13.9173 4.80762 14.0614 4.88387C14.2055 4.96013 14.3661 5 14.5292 5H19C19.5304 5 20.0391 5.21071 20.4142 5.58579C20.7893 5.96086 21 6.46957 21 7V14C21 14.5304 20.7893 15.0391 20.4142 15.4142C20.0391 15.7893 19.5304 16 19 16H9C8.46957 16 7.96086 15.7893 7.58579 15.4142C7.21071 15.0391 7 14.5304 7 14V5C7 4.46957 7.21071 3.96086 7.58579 3.58579C7.96086 3.21071 8.46957 3 9 3Z" stroke="black" stroke-width="1.5" stroke-linecap="round" stroke-linejoin="round"/>
</g>
<defs>
<clipPath id="clip0_50_16652">
<rect width="24" height="24" fill="white"/>
</clipPath>
</defs>
</svg>
