<svg width="24" height="24" viewBox="0 0 24 24" fill="none" xmlns="http://www.w3.org/2000/svg">
<g clip-path="url(#clip0_50_16718)">
<path d="M6 14V15.0045" stroke="black" stroke-width="1.5" stroke-linecap="round" stroke-linejoin="round"/>
<path d="M6 18.9955V20" stroke="black" stroke-width="1.5" stroke-linecap="round" stroke-linejoin="round"/>
<path d="M3.405 15.5L4.27449 15.9955" stroke="black" stroke-width="1.5" stroke-linecap="round" stroke-linejoin="round"/>
<path d="M7.74032 18.0045L8.595 18.5" stroke="black" stroke-width="1.5" stroke-linecap="round" stroke-linejoin="round"/>
<path d="M3.405 18.5L4.27449 18.0045" stroke="black" stroke-width="1.5" stroke-linecap="round" stroke-linejoin="round"/>
<path d="M7.74032 15.9955L8.595 15.5" stroke="black" stroke-width="1.5" stroke-linecap="round" stroke-linejoin="round"/>
<path d="M6 15C6.39556 15 6.78224 15.1173 7.11114 15.3371C7.44004 15.5568 7.69638 15.8692 7.84776 16.2346C7.99913 16.6001 8.03874 17.0022 7.96157 17.3902C7.8844 17.7781 7.69392 18.1345 7.41421 18.4142C7.13451 18.6939 6.77814 18.8844 6.39018 18.9616C6.00222 19.0387 5.60009 18.9991 5.23463 18.8478C4.86918 18.6964 4.55682 18.44 4.33706 18.1111C4.1173 17.7822 4 17.3956 4 17C4 16.4696 4.21071 15.9609 4.58579 15.5858C4.96086 15.2107 5.46957 15 6 15Z" stroke="black" stroke-width="1.5" stroke-linecap="round" stroke-linejoin="round"/>
<path d="M12 20H19C19.5304 20 20.0391 19.7893 20.4142 19.4142C20.7893 19.0391 21 18.5304 21 18V8.94C21 8.40957 20.7893 7.90086 20.4142 7.52579C20.0391 7.15071 19.5304 6.94 19 6.94H12.5291C12.3661 6.94 12.2055 6.90014 12.0614 6.82389C11.9173 6.74764 11.7941 6.63732 11.7024 6.50253L10.2974 4.43747C10.2056 4.30267 10.0824 4.19235 9.93826 4.1161C9.79415 4.03985 9.63358 3.99999 9.47054 4H5C4.46957 4 3.96086 4.21071 3.58579 4.58579C3.21071 4.96086 3 5.46957 3 6V11" stroke="black" stroke-width="1.5" stroke-linecap="round" stroke-linejoin="round"/>
</g>
<defs>
<clipPath id="clip0_50_16718">
<rect width="24" height="24" fill="white"/>
</clipPath>
</defs>
</svg>
