<svg width="24" height="24" viewBox="0 0 24 24" fill="none" xmlns="http://www.w3.org/2000/svg">
<g clip-path="url(#clip0_50_16618)">
<path d="M19 6.94H12.529C12.198 6.94 11.888 6.776 11.702 6.502L10.297 4.437C10.111 4.164 9.802 4 9.471 4H5C3.895 4 3 4.895 3 6V18C3 19.105 3.895 20 5 20H19C20.105 20 21 19.105 21 18V8.94C21 7.836 20.105 6.94 19 6.94Z" stroke="black" stroke-width="1.5" stroke-linecap="round" stroke-linejoin="round"/>
<path d="M7.5 5V6" stroke="black" stroke-width="1.5" stroke-linecap="round" stroke-linejoin="round"/>
<path d="M7.5 9V10" stroke="black" stroke-width="1.5" stroke-linecap="round" stroke-linejoin="round"/>
<path d="M9 14.5C9 13.6716 8.32843 13 7.5 13C6.67157 13 6 13.6716 6 14.5V15.5C6 16.3284 6.67157 17 7.5 17C8.32843 17 9 16.3284 9 15.5V14.5Z" stroke="black" stroke-width="1.5" stroke-linecap="round" stroke-linejoin="round"/>
</g>
<defs>
<clipPath id="clip0_50_16618">
<rect width="24" height="24" fill="white"/>
</clipPath>
</defs>
</svg>
