<svg width="24" height="24" viewBox="0 0 24 24" fill="none" xmlns="http://www.w3.org/2000/svg">
<g clip-path="url(#clip0_50_16702)">
<path d="M21 11V7.94C21 6.836 20.105 5.94 19 5.94H12.529C12.198 5.94 11.888 5.776 11.702 5.502L10.297 3.437C10.111 3.164 9.802 3 9.471 3H5C3.895 3 3 3.895 3 5V17C3 18.105 3.895 19 5 19H11" stroke="black" stroke-width="1.5" stroke-linecap="round" stroke-linejoin="round"/>
<path d="M18.3429 20.023L20.0979 20.945C20.4399 21.125 20.8389 20.834 20.7739 20.454L20.4389 18.5L21.8589 17.117C22.1359 16.848 21.9829 16.378 21.6009 16.323L19.6389 16.038L18.7619 14.259C18.5909 13.913 18.0969 13.913 17.9269 14.259L17.0499 16.038L15.0879 16.323C14.7059 16.379 14.5529 16.848 14.8299 17.117L16.2499 18.5L15.9139 20.455C15.8489 20.835 16.2479 21.125 16.5899 20.946L18.3449 20.024" stroke="black" stroke-width="1.5" stroke-linecap="round" stroke-linejoin="round"/>
</g>
<defs>
<clipPath id="clip0_50_16702">
<rect width="24" height="24" fill="white"/>
</clipPath>
</defs>
</svg>
