<svg width="24" height="24" viewBox="0 0 24 24" fill="none" xmlns="http://www.w3.org/2000/svg">
<g clip-path="url(#clip0_50_16566)">
<path d="M2 22L21 3" stroke="black" stroke-width="1.5" stroke-linecap="round" stroke-linejoin="round"/>
<path d="M3 17V6C3 5.46957 3.21071 4.96086 3.58579 4.58579C3.96086 4.21071 4.46957 4 5 4H9.47111C9.63729 4 9.80095 4.04063 9.94784 4.11835C10.0947 4.19607 10.2204 4.30853 10.3139 4.44592L11.754 6.56253C11.8457 6.69732 11.969 6.80764 12.1131 6.88389C12.2572 6.96013 12.4177 7 12.5808 7H13" stroke="black" stroke-width="1.5" stroke-linecap="round" stroke-linejoin="round"/>
<path d="M17 7H19C19.5304 7 20.0391 7.21071 20.4142 7.58579C20.7893 7.96086 21 8.46957 21 9V18C21 18.5304 20.7893 19.0391 20.4142 19.4142C20.0391 19.7893 19.5304 20 19 20H4" stroke="black" stroke-width="1.5" stroke-linecap="round" stroke-linejoin="round"/>
</g>
<defs>
<clipPath id="clip0_50_16566">
<rect width="24" height="24" fill="white"/>
</clipPath>
</defs>
</svg>
