<svg width="24" height="24" viewBox="0 0 24 24" fill="none" xmlns="http://www.w3.org/2000/svg">
<g clip-path="url(#clip0_50_18064)">
<path d="M9.44772 3H3.55228C3.24726 3 3 3.24726 3 3.55228V9.44772C3 9.75274 3.24726 10 3.55228 10H9.44772C9.75274 10 10 9.75274 10 9.44772V3.55228C10 3.24726 9.75274 3 9.44772 3Z" stroke="black" stroke-width="1.5" stroke-linecap="round" stroke-linejoin="round"/>
<path d="M20.4477 3H14.5523C14.2473 3 14 3.24726 14 3.55228V9.44772C14 9.75274 14.2473 10 14.5523 10H20.4477C20.7527 10 21 9.75274 21 9.44772V3.55228C21 3.24726 20.7527 3 20.4477 3Z" stroke="black" stroke-width="1.5" stroke-linecap="round" stroke-linejoin="round"/>
<path d="M9.44772 14H3.55228C3.24726 14 3 14.2473 3 14.5523V20.4477C3 20.7527 3.24726 21 3.55228 21H9.44772C9.75274 21 10 20.7527 10 20.4477V14.5523C10 14.2473 9.75274 14 9.44772 14Z" stroke="black" stroke-width="1.5" stroke-linecap="round" stroke-linejoin="round"/>
<path d="M20.4477 14H14.5523C14.2473 14 14 14.2473 14 14.5523V20.4477C14 20.7527 14.2473 21 14.5523 21H20.4477C20.7527 21 21 20.7527 21 20.4477V14.5523C21 14.2473 20.7527 14 20.4477 14Z" stroke="black" stroke-width="1.5" stroke-linecap="round" stroke-linejoin="round"/>
</g>
<defs>
<clipPath id="clip0_50_18064">
<rect width="24" height="24" fill="white"/>
</clipPath>
</defs>
</svg>
