<svg width="24" height="24" viewBox="0 0 24 24" fill="none" xmlns="http://www.w3.org/2000/svg">
<g clip-path="url(#clip0_50_17731)">
<path d="M20 12V20" stroke="black" stroke-width="1.5" stroke-linecap="round" stroke-linejoin="round"/>
<path d="M14.7 14.67V20" stroke="black" stroke-width="1.5" stroke-linecap="round" stroke-linejoin="round"/>
<path d="M4 17V20" stroke="black" stroke-width="1.5" stroke-linecap="round" stroke-linejoin="round"/>
<path d="M9.3 13.6V20" stroke="black" stroke-width="1.5" stroke-linecap="round" stroke-linejoin="round"/>
<path d="M15.9394 8.50857C16.6228 9.19198 16.6228 10.3 15.9394 10.9834C15.256 11.6669 14.1479 11.6669 13.4645 10.9834C12.7811 10.3 12.7811 9.19198 13.4645 8.50857C14.1479 7.82515 15.256 7.82515 15.9394 8.50857Z" stroke="black" stroke-width="1.5" stroke-linecap="round" stroke-linejoin="round"/>
<path d="M21.3424 4.00556C22.0258 4.68898 22.0258 5.79702 21.3424 6.48043C20.659 7.16385 19.5509 7.16385 18.8675 6.48043C18.1841 5.79701 18.1841 4.68897 18.8675 4.00556C19.5509 3.32214 20.659 3.32214 21.3424 4.00556Z" stroke="black" stroke-width="1.5" stroke-linecap="round" stroke-linejoin="round"/>
<path d="M5.13244 9.40256C5.81586 10.086 5.81586 11.194 5.13244 11.8774C4.44902 12.5609 3.34098 12.5609 2.65757 11.8774C1.97415 11.194 1.97415 10.086 2.65757 9.40256C3.34099 8.71914 4.44903 8.71914 5.13244 9.40256Z" stroke="black" stroke-width="1.5" stroke-linecap="round" stroke-linejoin="round"/>
<path d="M10.5364 4.90056C11.2198 5.58398 11.2198 6.69202 10.5364 7.37543C9.85298 8.05885 8.74494 8.05885 8.06153 7.37543C7.37811 6.69202 7.37811 5.58397 8.06153 4.90056C8.74495 4.21715 9.85299 4.21715 10.5364 4.90056Z" stroke="black" stroke-width="1.5" stroke-linecap="round" stroke-linejoin="round"/>
<path d="M18.77 6.36L16.04 8.63" stroke="black" stroke-width="1.5" stroke-linecap="round" stroke-linejoin="round"/>
<path d="M13.24 8.78L10.75 7.11" stroke="black" stroke-width="1.5" stroke-linecap="round" stroke-linejoin="round"/>
<path d="M5.24001 9.52999L7.96001 7.25999" stroke="black" stroke-width="1.5" stroke-linecap="round" stroke-linejoin="round"/>
</g>
<defs>
<clipPath id="clip0_50_17731">
<rect width="24" height="24" fill="white"/>
</clipPath>
</defs>
</svg>
