<svg width="24" height="24" viewBox="0 0 24 24" fill="none" xmlns="http://www.w3.org/2000/svg">
<g clip-path="url(#clip0_50_19023)">
<path d="M13.6553 10.3447C14.5695 11.2589 14.5695 12.7412 13.6553 13.6554C12.7411 14.5696 11.2588 14.5696 10.3446 13.6554C9.43041 12.7412 9.43041 11.2589 10.3446 10.3447C11.2588 9.4305 12.7411 9.4305 13.6553 10.3447Z" stroke="black" stroke-width="1.5" stroke-linecap="round" stroke-linejoin="round"/>
<path d="M21.4489 10.5101C22.2717 11.3329 22.2717 12.667 21.4489 13.4898C20.6261 14.3127 19.292 14.3127 18.4691 13.4898C17.6463 12.667 17.6463 11.3329 18.4691 10.5101C19.292 9.68724 20.6261 9.68724 21.4489 10.5101Z" stroke="black" stroke-width="1.5" stroke-linecap="round" stroke-linejoin="round"/>
<path d="M5.53087 10.5101C6.3537 11.3329 6.3537 12.667 5.53087 13.4898C4.70803 14.3127 3.37396 14.3127 2.55112 13.4898C1.72828 12.667 1.72828 11.3329 2.55112 10.5101C3.37395 9.68724 4.70803 9.68724 5.53087 10.5101Z" stroke="black" stroke-width="1.5" stroke-linecap="round" stroke-linejoin="round"/>
<path d="M17.4689 3.61713C18.2917 4.43996 18.2917 5.77404 17.4689 6.59688C16.6461 7.41971 15.312 7.41971 14.4891 6.59688C13.6663 5.77404 13.6663 4.43997 14.4891 3.61713C15.312 2.79429 16.646 2.79429 17.4689 3.61713Z" stroke="black" stroke-width="1.5" stroke-linecap="round" stroke-linejoin="round"/>
<path d="M9.51088 17.4031C10.3337 18.2259 10.3337 19.56 9.51088 20.3828C8.68804 21.2057 7.35397 21.2057 6.53113 20.3828C5.70829 19.56 5.70829 18.2259 6.53113 17.4031C7.35396 16.5802 8.68804 16.5802 9.51088 17.4031Z" stroke="black" stroke-width="1.5" stroke-linecap="round" stroke-linejoin="round"/>
<path d="M9.51088 3.61713C10.3337 4.43996 10.3337 5.77404 9.51088 6.59688C8.68804 7.41971 7.35397 7.41971 6.53113 6.59688C5.70829 5.77404 5.70829 4.43997 6.53113 3.61713C7.35396 2.79429 8.68804 2.79429 9.51088 3.61713Z" stroke="black" stroke-width="1.5" stroke-linecap="round" stroke-linejoin="round"/>
<path d="M17.4689 17.4031C18.2917 18.2259 18.2917 19.56 17.4689 20.3828C16.6461 21.2057 15.312 21.2057 14.4891 20.3828C13.6663 19.56 13.6663 18.2259 14.4891 17.4031C15.312 16.5802 16.646 16.5802 17.4689 17.4031Z" stroke="black" stroke-width="1.5" stroke-linecap="round" stroke-linejoin="round"/>
<path d="M9.07001 17.07L10.83 14.02" stroke="black" stroke-width="1.5" stroke-linecap="round" stroke-linejoin="round"/>
<path d="M9.07001 6.92999L10.83 9.97999" stroke="black" stroke-width="1.5" stroke-linecap="round" stroke-linejoin="round"/>
<path d="M17.85 12H14.34" stroke="black" stroke-width="1.5" stroke-linecap="round" stroke-linejoin="round"/>
</g>
<defs>
<clipPath id="clip0_50_19023">
<rect width="24" height="24" fill="white"/>
</clipPath>
</defs>
</svg>
