<svg width="24" height="24" viewBox="0 0 24 24" fill="none" xmlns="http://www.w3.org/2000/svg">
<g clip-path="url(#clip0_50_17831)">
<path d="M15.11 18.6888L16.3494 14.9606C16.5181 14.4507 16.8733 14.0235 17.3437 13.7645C17.8142 13.5056 18.3652 13.434 18.8862 13.5642C19.1712 13.6361 19.4383 13.7661 19.6707 13.946C19.9032 14.1259 20.0961 14.3518 20.2372 14.6097C20.3784 14.8675 20.4648 15.1517 20.4911 15.4445C20.5173 15.7372 20.4829 16.0323 20.3899 16.3111L19.1506 20.0394C18.9819 20.5492 18.6267 20.9765 18.1563 21.2354C17.6858 21.4944 17.1349 21.566 16.6138 21.4358C16.3288 21.3639 16.0617 21.2339 15.8292 21.054C15.5968 20.8741 15.4039 20.6482 15.2628 20.3903C15.1216 20.1325 15.0352 19.8483 15.0089 19.5555C14.9826 19.2627 15.0171 18.9677 15.11 18.6888Z" stroke="black" stroke-width="1.5" stroke-linecap="round" stroke-linejoin="round"/>
<path d="M19.1506 20.0394L20.2852 16.6263C20.7586 15.2021 20.9999 13.711 20.9999 12.2102V11.9999C20.9999 9.61299 20.0517 7.32381 18.3639 5.63598C16.6761 3.94815 14.3869 2.99994 11.9999 2.99994C9.61299 2.99994 7.32381 3.94815 5.63598 5.63598C3.94815 7.32381 2.99994 9.61299 2.99994 11.9999V12.2098C2.99994 13.7107 3.24127 15.2018 3.7147 16.626L4.84937 20.0394" stroke="black" stroke-width="1.5" stroke-linecap="round" stroke-linejoin="round"/>
<path d="M8.89 18.6888L7.65063 14.9606C7.48192 14.4507 7.12673 14.0235 6.65627 13.7645C6.18581 13.5056 5.63484 13.434 5.11383 13.5642C4.82881 13.6361 4.56171 13.7661 4.32923 13.946C4.09675 14.1259 3.9039 14.3518 3.76275 14.6097C3.62159 14.8675 3.53517 15.1517 3.50888 15.4445C3.4826 15.7373 3.51702 16.0323 3.61 16.3112L4.8493 20.0394C5.01801 20.5493 5.3732 20.9765 5.84366 21.2355C6.31412 21.4944 6.86508 21.566 7.3861 21.4359C7.67113 21.3639 7.93824 21.2339 8.17073 21.0541C8.40322 20.8742 8.59608 20.6482 8.73725 20.3904C8.87841 20.1325 8.96484 19.8483 8.99112 19.5555C9.0174 19.2627 8.98298 18.9677 8.89 18.6888Z" stroke="black" stroke-width="1.5" stroke-linecap="round" stroke-linejoin="round"/>
</g>
<defs>
<clipPath id="clip0_50_17831">
<rect width="24" height="24" fill="white"/>
</clipPath>
</defs>
</svg>
