<svg width="24" height="24" viewBox="0 0 24 24" fill="none" xmlns="http://www.w3.org/2000/svg">
<g clip-path="url(#clip0_50_19158)">
<path d="M4.77205 5.5C5.67584 4.59444 6.88419 4 8.3 4C10.12 4 11.31 4.91 12 5.71C12.69 4.91 13.88 4 15.7 4C18.87 4 21 6.98 21 9.76C21 11.1396 20.4692 12.458 19.6653 13.6623M3.08249 8.79993C3.02804 9.11938 3 9.44101 3 9.76C3 15.39 11.84 20 12 20C12.0868 20 14.7306 18.642 17.1302 16.5" stroke="black" stroke-width="1.5" stroke-linecap="round" stroke-linejoin="round"/>
<path d="M20 19L2 3" stroke="black" stroke-width="1.5" stroke-linecap="round" stroke-linejoin="round"/>
</g>
<defs>
<clipPath id="clip0_50_19158">
<rect width="24" height="24" fill="white"/>
</clipPath>
</defs>
</svg>
