<svg width="24" height="24" viewBox="0 0 24 24" fill="none" xmlns="http://www.w3.org/2000/svg">
<g clip-path="url(#clip0_50_30840)">
<path d="M19.56 7.11902C21.48 10.089 21.479 13.913 19.561 16.882" stroke="black" stroke-width="1.5" stroke-linecap="round" stroke-linejoin="round"/>
<path d="M15.5476 8.45248C17.5068 10.4117 17.5068 13.5883 15.5476 15.5476C13.5883 17.5068 10.4117 17.5068 8.45248 15.5476C6.49322 13.5883 6.49322 10.4117 8.45248 8.45248C10.4117 6.49322 13.5883 6.49322 15.5476 8.45248Z" stroke="black" stroke-width="1.5" stroke-linecap="round" stroke-linejoin="round"/>
<path d="M14.321 7.551L16.905 4.412C17.281 3.955 17.969 3.922 18.388 4.34L19.661 5.613C20.08 6.032 20.046 6.72 19.589 7.096L16.45 9.68" stroke="black" stroke-width="1.5" stroke-linecap="round" stroke-linejoin="round"/>
<path d="M9.67899 16.449L7.09499 19.588C6.71899 20.045 6.03099 20.078 5.61199 19.66L4.33899 18.387C3.91999 17.968 3.95399 17.28 4.41099 16.904L7.54999 14.32" stroke="black" stroke-width="1.5" stroke-linecap="round" stroke-linejoin="round"/>
<path d="M7.55099 9.67899L4.41099 7.09499C3.95399 6.71899 3.92099 6.03099 4.33899 5.61199L5.61199 4.33899C6.03099 3.91999 6.71899 3.95399 7.09499 4.41099L9.67899 7.54999" stroke="black" stroke-width="1.5" stroke-linecap="round" stroke-linejoin="round"/>
<path d="M16.449 14.321L19.588 16.905C20.045 17.281 20.078 17.969 19.66 18.388L18.387 19.661C17.968 20.08 17.28 20.046 16.904 19.589L14.32 16.45" stroke="black" stroke-width="1.5" stroke-linecap="round" stroke-linejoin="round"/>
<path d="M16.882 19.561C13.913 21.479 10.088 21.48 7.11902 19.56" stroke="black" stroke-width="1.5" stroke-linecap="round" stroke-linejoin="round"/>
<path d="M4.43899 7.11798C2.52099 10.087 2.51999 13.911 4.43999 16.881" stroke="black" stroke-width="1.5" stroke-linecap="round" stroke-linejoin="round"/>
<path d="M16.881 4.43999C13.911 2.51999 10.087 2.52099 7.11798 4.43899" stroke="black" stroke-width="1.5" stroke-linecap="round" stroke-linejoin="round"/>
</g>
<defs>
<clipPath id="clip0_50_30840">
<rect width="24" height="24" fill="white"/>
</clipPath>
</defs>
</svg>
