<svg width="24" height="24" viewBox="0 0 24 24" fill="none" xmlns="http://www.w3.org/2000/svg">
<g clip-path="url(#clip0_50_16783)">
<path d="M18.216 20.859C19.873 20.859 21.216 19.516 21.216 17.859V10.526C21.216 9.6 20.789 8.726 20.058 8.158L14.058 3.491C12.975 2.648 11.458 2.648 10.374 3.491L4.374 8.158C3.643 8.726 3.216 9.6 3.216 10.526V17.859C3.216 19.516 4.559 20.859 6.216 20.859" stroke="black" stroke-width="1.5" stroke-linecap="round" stroke-linejoin="round"/>
<path d="M18.22 20.86H6.22" stroke="black" stroke-width="1.5" stroke-linecap="round" stroke-linejoin="round"/>
<path d="M10.216 10.859V11.859" stroke="black" stroke-width="1.5" stroke-linecap="round" stroke-linejoin="round"/>
<path d="M14.216 10.859V11.859" stroke="black" stroke-width="1.5" stroke-linecap="round" stroke-linejoin="round"/>
<path d="M15.716 15.547C15.716 15.547 14.404 16.859 12.216 16.859C10.028 16.859 8.716 15.547 8.716 15.547" stroke="black" stroke-width="1.5" stroke-linecap="round" stroke-linejoin="round"/>
</g>
<defs>
<clipPath id="clip0_50_16783">
<rect width="24" height="24" fill="white"/>
</clipPath>
</defs>
</svg>
