<svg width="24" height="24" viewBox="0 0 24 24" fill="none" xmlns="http://www.w3.org/2000/svg">
<g clip-path="url(#clip0_50_18835)">
<path d="M15.3025 16.5128L18.9415 19.7474C19.1068 19.8943 19.3161 19.9823 19.5366 19.9976C19.7572 20.0129 19.9767 19.9547 20.1606 19.832L20.9061 19.335C21.3474 19.0408 21.6538 18.5833 21.7578 18.0632L21.8835 17.4346C22.0579 16.5625 22.0363 15.6626 21.8202 14.7999L19.8328 6.86644C19.6898 6.29556 19.4052 5.76995 19.0052 5.33823C18.6052 4.90652 18.1028 4.58263 17.5445 4.39652L16.8937 4.1796C16.0131 3.88607 15.052 3.95438 14.2217 4.3695L13.7295 4.61558C13.5907 4.68501 13.4376 4.72116 13.2823 4.72116H10.7177C10.5624 4.72116 10.4093 4.68501 10.2705 4.61558L9.77831 4.3695C8.94806 3.95438 7.98692 3.88607 7.10631 4.1796L6.45552 4.39652C5.89719 4.58262 5.39481 4.90651 4.99483 5.33823C4.59485 5.76995 4.31019 6.29555 4.16718 6.86644L2.17983 14.7999C1.96373 15.6626 1.9421 16.5626 2.11653 17.4346L2.24225 18.0632C2.34628 18.5833 2.65266 19.0408 3.094 19.3351L3.83944 19.8321C4.02341 19.9547 4.24284 20.0129 4.4634 19.9976C4.68397 19.9823 4.89325 19.8943 5.0585 19.7474L8.6975 16.5128C8.88055 16.3501 9.11695 16.2602 9.36186 16.2602H14.6382C14.8831 16.2602 15.1195 16.3501 15.3025 16.5128Z" stroke="black" stroke-width="1.5" stroke-linecap="round" stroke-linejoin="round"/>
<path d="M6.5 10.5H9.5" stroke="black" stroke-width="1.5" stroke-linecap="round" stroke-linejoin="round"/>
<path d="M8 9V12" stroke="black" stroke-width="1.5" stroke-linecap="round" stroke-linejoin="round"/>
<path d="M16 12.5006C15.9999 12.5995 15.9705 12.696 15.9155 12.7782C15.8605 12.8603 15.7824 12.9243 15.6911 12.9621C15.5997 12.9998 15.4992 13.0097 15.4023 12.9904C15.3054 12.9711 15.2163 12.9234 15.1465 12.8536C15.0766 12.7837 15.029 12.6946 15.0096 12.5977C14.9903 12.5008 15.0002 12.4003 15.0379 12.309C15.0757 12.2176 15.1397 12.1395 15.2218 12.0845C15.3039 12.0295 15.4005 12.0001 15.4994 12C15.5651 11.9999 15.6303 12.0128 15.691 12.0379C15.7518 12.0631 15.807 12.0999 15.8535 12.1464C15.9001 12.1929 15.9369 12.2482 15.9621 12.3089C15.9872 12.3697 16.0001 12.4349 16 12.5006Z" stroke="black" stroke-width="1.5" stroke-linecap="round" stroke-linejoin="round"/>
<path d="M16 8.50062C15.9999 8.59946 15.9705 8.69604 15.9155 8.77817C15.8605 8.8603 15.7824 8.92429 15.6911 8.96206C15.5997 8.99982 15.4992 9.00967 15.4023 8.99036C15.3054 8.97105 15.2163 8.92345 15.1465 8.85356C15.0766 8.78367 15.029 8.69464 15.0096 8.59771C14.9903 8.50078 15.0002 8.4003 15.0379 8.30896C15.0757 8.21762 15.1397 8.13952 15.2218 8.08453C15.3039 8.02954 15.4005 8.00013 15.4994 8C15.5651 7.99992 15.6303 8.01281 15.691 8.03794C15.7518 8.06306 15.807 8.09994 15.8535 8.14644C15.9001 8.19294 15.9369 8.24817 15.9621 8.30894C15.9872 8.36972 16.0001 8.43485 16 8.50062Z" stroke="black" stroke-width="1.5" stroke-linecap="round" stroke-linejoin="round"/>
<path d="M17.5006 10C17.5995 10.0001 17.6961 10.0295 17.7782 10.0845C17.8603 10.1395 17.9243 10.2176 17.9621 10.309C17.9998 10.4003 18.0097 10.5008 17.9904 10.5977C17.971 10.6946 17.9234 10.7837 17.8535 10.8536C17.7837 10.9234 17.6946 10.9711 17.5977 10.9904C17.5008 11.0097 17.4003 10.9998 17.3089 10.9621C17.2176 10.9243 17.1395 10.8603 17.0845 10.7782C17.0295 10.696 17.0001 10.5995 17 10.5006C16.9999 10.4349 17.0128 10.3697 17.0379 10.3089C17.0631 10.2482 17.0999 10.1929 17.1465 10.1464C17.193 10.0999 17.2482 10.0631 17.309 10.0379C17.3697 10.0128 17.4349 9.99992 17.5006 10Z" stroke="black" stroke-width="1.5" stroke-linecap="round" stroke-linejoin="round"/>
<path d="M13.5006 10C13.5995 10.0001 13.696 10.0295 13.7782 10.0845C13.8603 10.1395 13.9243 10.2176 13.9621 10.3089C13.9998 10.4003 14.0097 10.5008 13.9904 10.5977C13.971 10.6946 13.9234 10.7837 13.8536 10.8536C13.7837 10.9234 13.6946 10.9711 13.5977 10.9904C13.5008 11.0097 13.4003 10.9998 13.3089 10.9621C13.2176 10.9243 13.1395 10.8603 13.0845 10.7782C13.0295 10.696 13.0001 10.5995 13 10.5006C12.9999 10.4349 13.0128 10.3697 13.0379 10.3089C13.0631 10.2482 13.0999 10.1929 13.1464 10.1464C13.1929 10.0999 13.2482 10.0631 13.3089 10.0379C13.3697 10.0128 13.4349 9.99992 13.5006 10Z" stroke="black" stroke-width="1.5" stroke-linecap="round" stroke-linejoin="round"/>
</g>
<defs>
<clipPath id="clip0_50_18835">
<rect width="24" height="24" fill="white"/>
</clipPath>
</defs>
</svg>
