<svg width="24" height="24" viewBox="0 0 24 24" fill="none" xmlns="http://www.w3.org/2000/svg">
<g clip-path="url(#clip0_50_17135)">
<path d="M18.5 21H5.5C3.567 21 2 19.433 2 17.5C2 15.567 3.567 14 5.5 14H18.5C20.433 14 22 15.567 22 17.5C22 19.433 20.433 21 18.5 21Z" stroke="black" stroke-width="1.5" stroke-linecap="round" stroke-linejoin="round"/>
<path d="M18.5 17.498C18.5 17.2213 18.2766 16.998 18 17C17.7234 17 17.5 17.2234 17.5 17.5C17.5 17.7766 17.7234 18 18 18C18.2766 18 18.5 17.7766 18.5 17.498Z" stroke="black" stroke-width="1.625" stroke-linecap="round" stroke-linejoin="round"/>
<path d="M14.5 17.498C14.5 17.2213 14.2766 16.998 14 17C13.7234 17 13.5 17.2234 13.5 17.5C13.5 17.7766 13.7234 18 14 18C14.2746 18 14.5 17.7766 14.5 17.498Z" stroke="black" stroke-width="1.625" stroke-linecap="round" stroke-linejoin="round"/>
<path d="M10.5 17.498C10.5 17.2213 10.2766 16.998 10 17C9.72336 17 9.5 17.2234 9.5 17.5C9.5 17.7766 9.72336 18 10 18C10.2746 18 10.5 17.7766 10.5 17.498Z" stroke="black" stroke-width="1.625" stroke-linecap="round" stroke-linejoin="round"/>
<path d="M6.5 17.498C6.5 17.2213 6.27664 16.998 6 17C5.72336 17 5.5 17.2234 5.5 17.5C5.5 17.7766 5.72336 18 6 18C6.27459 18 6.5 17.7766 6.5 17.498Z" stroke="black" stroke-width="1.625" stroke-linecap="round" stroke-linejoin="round"/>
<path d="M19 8.571V5.967" stroke="black" stroke-width="1.5" stroke-linecap="round" stroke-linejoin="round"/>
<path d="M15 8.604V6" stroke="black" stroke-width="1.5" stroke-linecap="round" stroke-linejoin="round"/>
<path d="M10.121 3.879C11.293 5.051 11.293 6.95 10.121 8.122C8.949 9.294 7.05 9.294 5.878 8.122C4.706 6.95 4.706 5.051 5.878 3.879C7.05 2.707 8.95 2.707 10.121 3.879Z" stroke="black" stroke-width="1.5" stroke-linecap="round" stroke-linejoin="round"/>
<path d="M19 5.967L11 6" stroke="black" stroke-width="1.5" stroke-linecap="round" stroke-linejoin="round"/>
</g>
<defs>
<clipPath id="clip0_50_17135">
<rect width="24" height="24" fill="white"/>
</clipPath>
</defs>
</svg>
