<svg width="24" height="24" viewBox="0 0 24 24" fill="none" xmlns="http://www.w3.org/2000/svg">
<g clip-path="url(#clip0_50_17109)">
<path d="M10.4854 12.5428L9.71881 15.2252C9.67628 15.374 9.66887 15.5307 9.69718 15.6829C9.72549 15.8351 9.78873 15.9786 9.88194 16.1022C9.97515 16.2257 10.0958 16.326 10.2343 16.395C10.3728 16.4641 10.5255 16.5 10.6803 16.5H13.3213C13.4761 16.5 13.6288 16.4641 13.7673 16.395C13.9058 16.326 14.0264 16.2258 14.1196 16.1022C14.2129 15.9787 14.2761 15.8351 14.3044 15.683C14.3327 15.5308 14.3254 15.3742 14.2828 15.2253L13.5163 12.5418" stroke="black" stroke-width="1.5" stroke-linecap="round" stroke-linejoin="round"/>
<path d="M13.5163 12.5419C14.0096 12.2159 14.3847 11.7396 14.586 11.1837C14.7873 10.6277 14.8041 10.0216 14.6338 9.45541C14.4635 8.88917 14.1153 8.39289 13.6408 8.04016C13.1662 7.68743 12.5906 7.49704 11.9993 7.49722C11.408 7.4974 10.8326 7.68814 10.3582 8.04116C9.88388 8.39417 9.53595 8.89067 9.36602 9.45701C9.19609 10.0234 9.21321 10.6294 9.41485 11.1852C9.61649 11.7411 9.9919 12.2171 10.4854 12.5428" stroke="black" stroke-width="1.5" stroke-linecap="round" stroke-linejoin="round"/>
<path d="M16 3H8C5.23858 3 3 5.23858 3 8V16C3 18.7614 5.23858 21 8 21H16C18.7614 21 21 18.7614 21 16V8C21 5.23858 18.7614 3 16 3Z" stroke="black" stroke-width="1.5" stroke-linecap="round" stroke-linejoin="round"/>
</g>
<defs>
<clipPath id="clip0_50_17109">
<rect width="24" height="24" fill="white"/>
</clipPath>
</defs>
</svg>
