<svg width="24" height="24" viewBox="0 0 24 24" fill="none" xmlns="http://www.w3.org/2000/svg">
<g clip-path="url(#clip0_50_17119)">
<path d="M8.29399 10.705C8.29399 10.542 8.16199 10.411 7.99999 10.411C7.83699 10.412 7.70599 10.544 7.70599 10.706C7.70599 10.869 7.83799 11 7.99999 11C8.16199 11 8.29399 10.868 8.29399 10.705Z" stroke="black" stroke-width="1.5" stroke-linecap="round" stroke-linejoin="round"/>
<path d="M8 10.411V5.5C8 4.119 9.119 3 10.5 3C11.881 3 13 4.119 13 5.5V6.072" stroke="black" stroke-width="1.5" stroke-linecap="round" stroke-linejoin="round"/>
<path d="M10.162 15.183C10.969 15.741 11.945 16.072 13 16.072C13.662 16.072 14.29 15.937 14.868 15.703L17.877 18.708C18.065 18.895 18.319 19 18.583 19H20C20.552 19 21 18.552 21 18V16.588C21 16.322 20.894 16.068 20.706 15.88L17.662 12.84C17.872 12.289 18 11.697 18 11.072C18 8.311 15.761 6.072 13 6.072C12.216 6.072 11.484 6.268 10.824 6.59" stroke="black" stroke-width="1.5" stroke-linecap="round" stroke-linejoin="round"/>
<path d="M6.00399 15.268C5.44699 15.025 4.92099 14.686 4.46499 14.23C2.51199 12.277 2.51199 9.112 4.46499 7.159C6.41799 5.206 9.58299 5.206 11.536 7.159C13.489 9.112 13.489 12.277 11.536 14.23C11.082 14.684 10.558 15.021 10.004 15.264L10.007 19.501C10.007 19.767 9.90199 20.021 9.71399 20.209L8.71599 21.207C8.32499 21.598 7.69199 21.598 7.30199 21.207L6.29999 20.205C6.11299 20.018 6.00699 19.764 6.00699 19.499L6.00399 15.268Z" stroke="black" stroke-width="1.5" stroke-linecap="round" stroke-linejoin="round"/>
</g>
<defs>
<clipPath id="clip0_50_17119">
<rect width="24" height="24" fill="white"/>
</clipPath>
</defs>
</svg>
