<svg width="24" height="24" viewBox="0 0 24 24" fill="none" xmlns="http://www.w3.org/2000/svg">
<g clip-path="url(#clip0_50_18351)">
<path d="M10 3.5C10 3.10218 10.158 2.72064 10.4393 2.43934C10.7206 2.15804 11.1022 2 11.5 2H20.5C20.8978 2 21.2794 2.15804 21.5607 2.43934C21.842 2.72064 22 3.10218 22 3.5V9.5C22 9.89782 21.842 10.2794 21.5607 10.5607C21.2794 10.842 20.8978 11 20.5 11H19.5352V12.999C19.5352 13.0979 19.5059 13.1946 19.451 13.2768C19.396 13.359 19.3179 13.4231 19.2266 13.4609C19.1352 13.4988 19.0347 13.5087 18.9377 13.4894C18.8407 13.4701 18.7516 13.4225 18.6817 13.3525L16.3292 11H11.5C11.1022 11 10.7206 10.842 10.4393 10.5607C10.158 10.2794 10 9.89782 10 9.5V3.5Z" stroke="black" stroke-width="1.5" stroke-linecap="round" stroke-linejoin="round"/>
<path d="M13 14V18.0642C13 18.462 12.842 18.8435 12.5607 19.1248C12.2794 19.4062 11.8978 19.5642 11.5 19.5642H7.63837L5.35 21.8526C5.28007 21.9225 5.19098 21.9701 5.094 21.9894C4.99701 22.0087 4.89648 21.9988 4.80512 21.9609C4.71376 21.9231 4.63567 21.859 4.58073 21.7768C4.52579 21.6946 4.49646 21.5979 4.49646 21.499V19.5642H3.5C3.10218 19.5642 2.72064 19.4062 2.43934 19.1248C2.15804 18.8435 2 18.462 2 18.0642V12C2 11.6022 2.15804 11.2206 2.43934 10.9393C2.72064 10.658 3.10218 10.5 3.5 10.5H7" stroke="black" stroke-width="1.5" stroke-linecap="round" stroke-linejoin="round"/>
<path d="M14.2822 7.67834H17.7067" stroke="black" stroke-width="1.5" stroke-linecap="round" stroke-linejoin="round"/>
<path d="M18 8.478L16.56 4.478H15.44L14 8.478" stroke="black" stroke-width="1.5" stroke-linecap="round" stroke-linejoin="round"/>
<path d="M7.5 14.3051V13.0321" stroke="black" stroke-width="1.5" stroke-linecap="round" stroke-linejoin="round"/>
<path d="M7.5 14.3051C7.49946 14.8467 7.36394 15.3797 7.10569 15.8558C6.84743 16.332 6.47459 16.7362 6.02086 17.0321" stroke="black" stroke-width="1.5" stroke-linecap="round" stroke-linejoin="round"/>
<path d="M8.97914 17.0321C8.52541 16.7362 8.15256 16.332 7.89431 15.8558C7.63605 15.3797 7.50053 14.8467 7.5 14.3051" stroke="black" stroke-width="1.5" stroke-linecap="round" stroke-linejoin="round"/>
<path d="M9.25 14.3051H5.75" stroke="black" stroke-width="1.5" stroke-linecap="round" stroke-linejoin="round"/>
</g>
<defs>
<clipPath id="clip0_50_18351">
<rect width="24" height="24" fill="white"/>
</clipPath>
</defs>
</svg>
