<svg width="24" height="24" viewBox="0 0 24 24" fill="none" xmlns="http://www.w3.org/2000/svg">
<g clip-path="url(#clip0_50_18805)">
<path d="M3.50006 14L1.71118 17.5778C1.57234 17.8554 1.50003 18.1616 1.5 18.472V18.9984C1.49996 19.5265 1.70875 20.0331 2.08081 20.4078C2.45288 20.7825 2.95802 20.9948 3.48605 20.9985L3.70006 21H20.2999L20.507 20.9993C21.0363 20.9974 21.5432 20.7859 21.9167 20.411C22.2903 20.0361 22.5 19.5284 22.5 18.9991V18.472C22.5 18.1616 22.4277 17.8554 22.2889 17.5778L20.5 14V5C20.5 4.46957 20.2893 3.96086 19.9142 3.58579C19.5391 3.21071 19.0304 3 18.5 3H5.5C4.96957 3 4.46086 3.21071 4.08579 3.58579C3.71071 3.96086 3.5 4.46957 3.5 5L3.50006 14Z" stroke="black" stroke-width="1.5" stroke-linecap="round" stroke-linejoin="round"/>
<path d="M3.125 14.75H20.875" stroke="black" stroke-width="1.5" stroke-linecap="round" stroke-linejoin="round"/>
<path d="M8 21L8.77208 18.6838C8.83845 18.4847 8.96579 18.3115 9.13605 18.1888C9.30632 18.066 9.51088 18 9.72076 18H14.2792C14.4891 18 14.6937 18.066 14.8639 18.1888C15.0342 18.3115 15.1615 18.4847 15.2279 18.6838L16 21" stroke="black" stroke-width="1.5" stroke-linecap="round" stroke-linejoin="round"/>
</g>
<defs>
<clipPath id="clip0_50_18805">
<rect width="24" height="24" fill="white"/>
</clipPath>
</defs>
</svg>
