<svg width="24" height="24" viewBox="0 0 24 24" fill="none" xmlns="http://www.w3.org/2000/svg">
<g clip-path="url(#clip0_50_19005)">
<path d="M15 15.19H9" stroke="black" stroke-width="1.5" stroke-linecap="round" stroke-linejoin="round"/>
<path d="M8.541 14.896C6.765 13.641 5.7 11.45 6.075 9.03801C6.481 6.43101 8.654 4.35001 11.275 4.04301C14.913 3.61601 18 6.44801 18 10C18 12.025 16.994 13.812 15.457 14.898C15.181 15.093 15 15.395 15 15.733V18.5C15 19.881 13.881 21 12.5 21H11.5C10.119 21 9 19.881 9 18.5V15.737C9 15.396 8.818 15.092 8.541 14.896Z" stroke="black" stroke-width="1.5" stroke-linecap="round" stroke-linejoin="round"/>
<path d="M20 5L21.19 3.81" stroke="black" stroke-width="1.5" stroke-linecap="round" stroke-linejoin="round"/>
<path d="M4 15L2.81 16.19" stroke="black" stroke-width="1.5" stroke-linecap="round" stroke-linejoin="round"/>
<path d="M5 4L3.81 2.81" stroke="black" stroke-width="1.5" stroke-linecap="round" stroke-linejoin="round"/>
<path d="M20 15L21.19 16.19" stroke="black" stroke-width="1.5" stroke-linecap="round" stroke-linejoin="round"/>
<path d="M21 10H22.69" stroke="black" stroke-width="1.5" stroke-linecap="round" stroke-linejoin="round"/>
<path d="M1.31 10H3" stroke="black" stroke-width="1.5" stroke-linecap="round" stroke-linejoin="round"/>
<path d="M9 18H14.87" stroke="black" stroke-width="1.5" stroke-linecap="round" stroke-linejoin="round"/>
</g>
<defs>
<clipPath id="clip0_50_19005">
<rect width="24" height="24" fill="white"/>
</clipPath>
</defs>
</svg>
