<svg width="24" height="24" viewBox="0 0 24 24" fill="none" xmlns="http://www.w3.org/2000/svg">
<g clip-path="url(#clip0_50_17458)">
<path d="M8.29999 10.5V20" stroke="black" stroke-width="1.5" stroke-linecap="round" stroke-linejoin="round"/>
<path d="M8.30001 10.5L10.63 4.63H10.62C10.82 4.12 11.39 3.87 11.9 4.06L12.53 4.3L12.52 4.29C13.68 4.73 14.46 5.84 14.46 7.09V10.47H17.45C18.83 10.47 19.94 11.58 19.94 12.97C19.93 13.17 19.91 13.37 19.86 13.57L18.735 18.07H18.725C18.445 19.18 17.445 19.96 16.295 19.96H5.41001H5.40001C4.57001 19.95 3.90001 19.28 3.90001 18.46V11.959C3.89001 11.129 4.57001 10.449 5.39001 10.449L8.30001 10.5Z" stroke="black" stroke-width="1.5" stroke-linecap="round" stroke-linejoin="round"/>
</g>
<defs>
<clipPath id="clip0_50_17458">
<rect width="24" height="24" fill="white"/>
</clipPath>
</defs>
</svg>
