<svg width="24" height="24" viewBox="0 0 24 24" fill="none" xmlns="http://www.w3.org/2000/svg">
<g clip-path="url(#clip0_50_17498)">
<path d="M6.49121 15.5758C7.27226 16.3569 7.27226 17.6232 6.49121 18.4042C5.71016 19.1853 4.44383 19.1853 3.66278 18.4042C2.88173 17.6232 2.88173 16.3569 3.66278 15.5758C4.44383 14.7948 5.71016 14.7948 6.49121 15.5758Z" stroke="black" stroke-width="1.5" stroke-linecap="round" stroke-linejoin="round"/>
<path d="M13.4142 3.58479C14.1952 4.36584 14.1952 5.63217 13.4142 6.41322C12.6332 7.19427 11.3668 7.19427 10.5858 6.41322C9.80472 5.63217 9.80472 4.36584 10.5858 3.58479C11.3668 2.80374 12.6331 2.80374 13.4142 3.58479Z" stroke="black" stroke-width="1.5" stroke-linecap="round" stroke-linejoin="round"/>
<path d="M20.3372 15.5748C21.1182 16.3558 21.1182 17.6222 20.3372 18.4032C19.5562 19.1843 18.2898 19.1843 17.5088 18.4032C16.7277 17.6222 16.7277 16.3559 17.5088 15.5748C18.2898 14.7938 19.5562 14.7938 20.3372 15.5748Z" stroke="black" stroke-width="1.5" stroke-linecap="round" stroke-linejoin="round"/>
<path d="M17.717 18.575C16.266 20.064 14.244 20.993 12 20.993C10.855 20.993 9.77 20.747 8.787 20.313" stroke="black" stroke-width="1.5" stroke-linecap="round" stroke-linejoin="round"/>
<path d="M4.298 15.147C3.738 13.149 3.946 10.938 5.066 8.998C5.64 8.003 6.399 7.185 7.27 6.55" stroke="black" stroke-width="1.5" stroke-linecap="round" stroke-linejoin="round"/>
<path d="M13.974 5.252C15.99 5.764 17.805 7.05 18.928 8.994C19.497 9.979 19.826 11.034 19.945 12.096" stroke="black" stroke-width="1.5" stroke-linecap="round" stroke-linejoin="round"/>
</g>
<defs>
<clipPath id="clip0_50_17498">
<rect width="24" height="24" fill="white"/>
</clipPath>
</defs>
</svg>
