<svg width="24" height="24" viewBox="0 0 24 24" fill="none" xmlns="http://www.w3.org/2000/svg">
<g clip-path="url(#clip0_50_17075)">
<path d="M17 21H7C5.89543 21 5 20.1046 5 19V12C5 10.8954 5.89543 10 7 10H17C18.1046 10 19 10.8954 19 12V19C19 20.1046 18.1046 21 17 21ZM17 21C17 21 17 21 17 21Z" stroke="black" stroke-width="1.5" stroke-linecap="round" stroke-linejoin="round"/>
<path d="M14 14.411L11.69 16.72L10.3 15.335" stroke="black" stroke-width="1.5" stroke-linecap="round" stroke-linejoin="round"/>
<path d="M8 10V7C8 4.79086 9.79086 3 12 3C14.2091 3 16 4.79086 16 7V10" stroke="black" stroke-width="1.5" stroke-linecap="round" stroke-linejoin="round"/>
</g>
<defs>
<clipPath id="clip0_50_17075">
<rect width="24" height="24" fill="white"/>
</clipPath>
</defs>
</svg>
