<svg width="24" height="24" viewBox="0 0 24 24" fill="none" xmlns="http://www.w3.org/2000/svg">
<g clip-path="url(#clip0_50_18394)">
<path d="M18.15 16.34L14.83 13.03" stroke="black" stroke-width="1.5"/>
<path d="M10.97 9.16999L7.66 5.85999" stroke="black" stroke-width="1.5"/>
<path d="M11.749 3.32301L13.5 5.07401C13.9311 5.50546 13.9311 6.20456 13.5 6.63601L8.484 11.651C7.41673 12.7183 7.41673 14.4487 8.484 15.516C9.5513 16.5833 11.2817 16.5833 12.349 15.516L17.364 10.5C17.7955 10.069 18.4946 10.0689 18.926 10.5L20.677 12.251C21.1081 12.6791 21.1105 13.3756 20.6824 13.8066C20.6806 13.8084 20.6788 13.8102 20.677 13.812L15.661 18.828C12.7643 21.7238 8.06872 21.7238 5.172 18.828C2.27618 15.9313 2.27618 11.2357 5.172 8.33901L10.188 3.32301C10.6161 2.89196 11.3126 2.88955 11.7436 3.31764C11.7454 3.31942 11.7472 3.32121 11.749 3.32301Z" stroke="black" stroke-width="1.5"/>
</g>
<defs>
<clipPath id="clip0_50_18394">
<rect width="24" height="24" fill="white"/>
</clipPath>
</defs>
</svg>
