<svg width="24" height="24" viewBox="0 0 24 24" fill="none" xmlns="http://www.w3.org/2000/svg">
<g clip-path="url(#clip0_50_16937)">
<path d="M2 13V19C2 19.5304 2.21071 20.0391 2.58579 20.4142C2.96086 20.7893 3.46957 21 4 21H20C20.5304 21 21.0391 20.7893 21.4142 20.4142C21.7893 20.0391 22 19.5304 22 19V13" stroke="black" stroke-width="1.5" stroke-linecap="round" stroke-linejoin="round"/>
<path d="M5.50088 9H3.62244C3.39126 9 3.16723 9.08009 2.98845 9.22665C2.80968 9.37321 2.6872 9.57719 2.64186 9.80387L2.01976 12.9142C1.99074 13.0593 1.99428 13.209 2.03011 13.3525C2.06595 13.4961 2.13319 13.6299 2.22699 13.7443C2.32079 13.8587 2.43881 13.9509 2.57254 14.0142C2.70627 14.0775 2.85238 14.1103 3.00034 14.1103H7.29371C7.4795 14.1103 7.66161 14.1621 7.81963 14.2598C7.97765 14.3575 8.10532 14.4973 8.18834 14.6635L8.65669 15.6013C8.7397 15.7675 8.86737 15.9073 9.02539 16.005C9.18341 16.1027 9.36553 16.1545 9.55132 16.1545H14.4476C14.6334 16.1545 14.8154 16.1027 14.9734 16.0051C15.1314 15.9075 15.259 15.7678 15.3421 15.6017L15.8114 14.6631C15.8944 14.497 16.0221 14.3573 16.1801 14.2597C16.338 14.162 16.5201 14.1103 16.7058 14.1103H20.9997C21.1476 14.1103 21.2937 14.0775 21.4275 14.0142C21.5612 13.9509 21.6792 13.8587 21.773 13.7443C21.8668 13.6299 21.934 13.4961 21.9699 13.3525C22.0057 13.209 22.0093 13.0593 21.9802 12.9142L21.3581 9.80387C21.3128 9.57719 21.1903 9.37321 21.0115 9.22665C20.8328 9.08009 20.6087 9 20.3776 9H18.4986" stroke="black" stroke-width="1.5" stroke-linecap="round" stroke-linejoin="round"/>
<path d="M8.99969 8H14.9997" stroke="black" stroke-width="1.5" stroke-linecap="round" stroke-linejoin="round"/>
<path d="M8.99969 11H14.9997" stroke="black" stroke-width="1.5" stroke-linecap="round" stroke-linejoin="round"/>
<path d="M5.49969 14.1103V5C5.49969 4.46957 5.71041 3.96086 6.08548 3.58579C6.46055 3.21071 6.96926 3 7.49969 3H14.6124C14.8751 3 15.1352 3.05173 15.3778 3.15224C15.6205 3.25275 15.8409 3.40007 16.0267 3.58579L17.9139 5.473C18.289 5.84807 18.4997 6.35678 18.4997 6.88721V14.1103" stroke="black" stroke-width="1.5" stroke-linecap="round" stroke-linejoin="round"/>
</g>
<defs>
<clipPath id="clip0_50_16937">
<rect width="24" height="24" fill="white"/>
</clipPath>
</defs>
</svg>
