<svg width="24" height="24" viewBox="0 0 24 24" fill="none" xmlns="http://www.w3.org/2000/svg">
<g clip-path="url(#clip0_50_16932)">
<path d="M17 12.9476V11C17 10.7348 16.8946 10.4804 16.7071 10.2929C16.5196 10.1054 16.2652 10 16 10H8C7.73478 10 7.48043 10.1054 7.29289 10.2929C7.10536 10.4804 7 10.7348 7 11V12.9497" stroke="black" stroke-width="1.5" stroke-linecap="round" stroke-linejoin="round"/>
<path d="M3 10L10.2 15.4C10.7193 15.7895 11.3509 16 12 16C12.6491 16 13.2807 15.7895 13.8 15.4L21 10" stroke="black" stroke-width="1.5" stroke-linecap="round" stroke-linejoin="round"/>
<path d="M20.216 8.513L13.824 3.61815C13.3005 3.21725 12.6594 3 12 3C11.3407 3 10.6996 3.21725 10.1761 3.61815L3.784 8.513C3.54018 8.69972 3.34263 8.94008 3.20667 9.21545C3.07071 9.49082 2.99999 9.79381 3 10.1009V18C3 18.7957 3.31607 19.5587 3.87868 20.1213C4.44129 20.6839 5.20435 21 6 21H18C18.7956 21 19.5587 20.6839 20.1213 20.1213C20.6839 19.5587 21 18.7957 21 18V10.1009C21 9.79376 20.9293 9.49079 20.7933 9.21543C20.6574 8.94007 20.4598 8.69972 20.216 8.513Z" stroke="black" stroke-width="1.5" stroke-linecap="round" stroke-linejoin="round"/>
</g>
<defs>
<clipPath id="clip0_50_16932">
<rect width="24" height="24" fill="white"/>
</clipPath>
</defs>
</svg>
