<svg width="24" height="24" viewBox="0 0 24 24" fill="none" xmlns="http://www.w3.org/2000/svg">
<g clip-path="url(#clip0_50_17346)">
<path d="M11 3H8C6.67392 3 5.40215 3.52678 4.46447 4.46447C3.52678 5.40215 3 6.67392 3 8V16C3 17.3261 3.52678 18.5979 4.46447 19.5355C5.40215 20.4732 6.67392 21 8 21H16C17.3261 21 18.5979 20.4732 19.5355 19.5355C20.4732 18.5979 21 17.3261 21 16V12" stroke="black" stroke-width="1.5" stroke-linecap="round" stroke-linejoin="round"/>
<path d="M17.502 5.00002C17.6008 5.00042 17.6973 5.03008 17.7792 5.08526C17.8612 5.14044 17.925 5.21866 17.9625 5.31006C18.0001 5.40145 18.0097 5.50192 17.9901 5.59878C17.9706 5.69563 17.9229 5.78454 17.8528 5.85426C17.7828 5.92399 17.6938 5.97141 17.5968 5.99054C17.4999 6.00967 17.3995 5.99965 17.3082 5.96175C17.217 5.92385 17.139 5.85976 17.0841 5.77758C17.0293 5.69541 17 5.59882 17 5.50001C16.9997 5.43409 17.0124 5.36875 17.0375 5.30779C17.0627 5.24684 17.0997 5.1915 17.1464 5.14497C17.1931 5.09844 17.2486 5.06167 17.3096 5.03679C17.3707 5.0119 17.4361 4.99941 17.502 5.00002Z" stroke="black" stroke-width="1.5" stroke-linecap="round" stroke-linejoin="round"/>
<path d="M21 5.5C21 4.57174 20.6313 3.6815 19.9749 3.02513C19.3185 2.36875 18.4283 2 17.5 2C16.5717 2 15.6815 2.36875 15.0251 3.02513C14.3687 3.6815 14 4.57174 14 5.5C14 7.13851 15.788 8.88882 16.808 9.75436C17.0034 9.91326 17.2476 10 17.4995 10C17.7514 10 17.9956 9.91326 18.191 9.75436C19.212 8.88881 21 7.13851 21 5.5Z" stroke="black" stroke-width="1.5" stroke-linecap="round" stroke-linejoin="round"/>
<path d="M4 5L19 20" stroke="black" stroke-width="1.5" stroke-linecap="round" stroke-linejoin="round"/>
<path d="M4 19L11 12" stroke="black" stroke-width="1.5" stroke-linecap="round" stroke-linejoin="round"/>
</g>
<defs>
<clipPath id="clip0_50_17346">
<rect width="24" height="24" fill="white"/>
</clipPath>
</defs>
</svg>
