<svg width="24" height="24" viewBox="0 0 24 24" fill="none" xmlns="http://www.w3.org/2000/svg">
<g clip-path="url(#clip0_50_17364)">
<path d="M9 19.2165V3" stroke="black" stroke-width="1.5" stroke-linecap="round" stroke-linejoin="round"/>
<path d="M15 4.7834V20.9997" stroke="black" stroke-width="1.5" stroke-linecap="round" stroke-linejoin="round"/>
<path d="M21 5.66661V17.6663C21 18.0861 20.8679 18.4952 20.6225 18.8357C20.3771 19.1762 20.0308 19.4309 19.6326 19.5636L15.6326 20.8973C15.222 21.0342 14.7781 21.0342 14.3675 20.8973L9.63253 19.3188C9.22195 19.182 8.77805 19.182 8.36747 19.3188L5.63253 20.2306C5.33189 20.3308 5.01173 20.3582 4.69844 20.3104C4.38515 20.2626 4.0877 20.1411 3.83061 19.9558C3.57351 19.7705 3.36413 19.5267 3.21972 19.2446C3.07531 18.9625 3 18.6502 3 18.3333V6.3335C3 5.91375 3.13206 5.50463 3.37749 5.1641C3.62292 4.82358 3.96926 4.5689 4.36747 4.43615L8.36747 3.10266C8.77805 2.96578 9.22195 2.96578 9.63253 3.10266L14.3674 4.68115C14.778 4.81804 15.222 4.81804 15.6326 4.68115L18.3674 3.76931C18.6681 3.66907 18.9882 3.64171 19.3015 3.68949C19.6148 3.73726 19.9123 3.85881 20.1694 4.0441C20.4265 4.22939 20.6358 4.47313 20.7803 4.75522C20.9247 5.03732 21 5.34969 21 5.66661Z" stroke="black" stroke-width="1.5" stroke-linecap="round" stroke-linejoin="round"/>
</g>
<defs>
<clipPath id="clip0_50_17364">
<rect width="24" height="24" fill="white"/>
</clipPath>
</defs>
</svg>
