<svg width="24" height="24" viewBox="0 0 24 24" fill="none" xmlns="http://www.w3.org/2000/svg">
<g clip-path="url(#clip0_50_16322)">
<path d="M11.9893 10C10.8854 10 9.9894 10.896 10.0001 12C10.0001 13.104 10.896 14 12 14C13.104 14 14 13.104 14 12C13.9946 10.896 13.0987 10 11.9893 10Z" stroke="black" stroke-width="1.5" stroke-linecap="round" stroke-linejoin="round"/>
<path d="M18.9893 10C17.8854 10 16.9894 10.896 17.0001 12C17.0001 13.104 17.896 14 19 14C20.104 14 21 13.104 21 12C20.9946 10.896 20.0987 10 18.9893 10Z" stroke="black" stroke-width="1.5" stroke-linecap="round" stroke-linejoin="round"/>
<path d="M4.98935 10C3.88538 10 2.9894 10.896 3.00006 12C3.00006 13.104 3.89605 14 5.00002 14C6.10399 14 6.99997 13.104 6.99997 12C6.99464 10.896 6.09866 10 4.98935 10Z" stroke="black" stroke-width="1.5" stroke-linecap="round" stroke-linejoin="round"/>
</g>
<defs>
<clipPath id="clip0_50_16322">
<rect width="24" height="24" fill="white"/>
</clipPath>
</defs>
</svg>
