<svg width="24" height="24" viewBox="0 0 24 24" fill="none" xmlns="http://www.w3.org/2000/svg">
<g clip-path="url(#clip0_50_16317)">
<path d="M10 12.0106C10 13.1146 10.896 14.0106 12 13.9999C13.104 13.9999 14 13.1039 14 12C14 10.896 13.104 10 12 10C10.896 10.0053 10 10.9013 10 12.0106Z" stroke="black" stroke-width="1.5" stroke-linecap="round" stroke-linejoin="round"/>
<path d="M10 5.01062C10 6.1146 10.896 7.01057 12 6.99991C13.104 6.99991 14 6.10393 14 4.99995C14 3.89598 13.104 3 12 3C10.896 3.00533 10 3.90131 10 5.01062Z" stroke="black" stroke-width="1.5" stroke-linecap="round" stroke-linejoin="round"/>
<path d="M10 19.0106C10 20.1146 10.896 21.0106 12 20.9999C13.104 20.9999 14 20.1039 14 19C14 17.896 13.104 17 12 17C10.896 17.0053 10 17.9013 10 19.0106Z" stroke="black" stroke-width="1.5" stroke-linecap="round" stroke-linejoin="round"/>
</g>
<defs>
<clipPath id="clip0_50_16317">
<rect width="24" height="24" fill="white"/>
</clipPath>
</defs>
</svg>
