<svg width="24" height="24" viewBox="0 0 24 24" fill="none" xmlns="http://www.w3.org/2000/svg">
<g clip-path="url(#clip0_50_17269)">
<path d="M18.5001 19.5642V21.499C18.5001 21.5979 18.4707 21.6946 18.4158 21.7768C18.3609 21.859 18.2828 21.9231 18.1914 21.9609C18.1 21.9988 17.9995 22.0087 17.9025 21.9894C17.8055 21.9701 17.7165 21.9225 17.6465 21.8526L15.3582 19.5642" stroke="black" stroke-width="1.5" stroke-linecap="round" stroke-linejoin="round"/>
<path d="M18 10.5H18.5035C19.1656 10.5 19.8006 10.763 20.2688 11.2312C20.737 11.6994 21 12.3344 21 12.9965V17.0678C21 17.7299 20.737 18.3648 20.2688 18.833C19.8006 19.3012 19.1656 19.5642 18.5035 19.5642" stroke="black" stroke-width="1.5" stroke-linecap="round" stroke-linejoin="round"/>
<path d="M15.3616 19.5642H12.4965C11.8344 19.5642 11.1994 19.3012 10.7312 18.833C10.263 18.3648 10 17.7299 10 17.0678V16" stroke="black" stroke-width="1.5" stroke-linecap="round" stroke-linejoin="round"/>
<path d="M8.70605 13L6.35355 15.3526C6.28362 15.4225 6.19453 15.4701 6.09754 15.4894C6.00055 15.5087 5.90001 15.4988 5.80865 15.4609C5.71729 15.4231 5.6392 15.359 5.58426 15.2768C5.52932 15.1946 5.5 15.0979 5.5 14.999V13H5.49646C5.16862 13 4.84399 12.9354 4.5411 12.81C4.23822 12.6845 3.96301 12.5006 3.73119 12.2688C3.49937 12.037 3.31548 11.7618 3.19003 11.4589C3.06457 11.156 3 10.8314 3 10.5035V6.49646C3 5.83436 3.26302 5.19937 3.7312 4.7312C4.19937 4.26302 4.83436 4 5.49646 4H12.5035C13.1656 4 13.8006 4.26302 14.2688 4.7312C14.737 5.19937 15 5.83436 15 6.49646V10.5035C15 10.8314 14.9354 11.156 14.81 11.4589C14.6845 11.7618 14.5006 12.037 14.2688 12.2688C14.037 12.5006 13.7618 12.6845 13.4589 12.81C13.156 12.9354 12.8314 13 12.5035 13H8.70605Z" stroke="black" stroke-width="1.5" stroke-linecap="round" stroke-linejoin="round"/>
</g>
<defs>
<clipPath id="clip0_50_17269">
<rect width="24" height="24" fill="white"/>
</clipPath>
</defs>
</svg>
