<svg width="24" height="24" viewBox="0 0 24 24" fill="none" xmlns="http://www.w3.org/2000/svg">
<path d="M7.083 21.813C6.345 21.813 5.646 21.65 5.018 21.359L2 22L2.631 18.976C2.338 18.346 2.174 17.644 2.174 16.904C2.174 14.196 4.369 12 7.078 12C9.787 12 11.982 14.196 11.982 16.904C11.982 19.612 9.786 21.808 7.078 21.808" stroke="black" stroke-width="1.5" stroke-linecap="round" stroke-linejoin="round"/>
<path d="M6.612 12.019C6.219 11.164 6 10.227 6 9.24C6 5.223 9.598 2 14 2C18.402 2 22 5.223 22 9.24C22 11.614 20.738 13.704 18.801 15.022C18.802 15.778 18.8 16.797 18.8 17.867L15.661 16.321C15.124 16.424 14.569 16.48 14 16.48C13.289 16.48 12.602 16.388 11.944 16.23" stroke="black" stroke-width="1.5" stroke-linecap="round" stroke-linejoin="round"/>
<path d="M14.0001 9.846C14.0001 9.189 14.4061 8.833 14.8131 8.559C15.2111 8.291 15.6091 7.942 15.6091 7.299C15.6091 6.41 14.8891 5.69 14.0001 5.69C13.1111 5.69 12.3911 6.41 12.3911 7.299" stroke="black" stroke-width="1.5" stroke-linecap="round" stroke-linejoin="round"/>
<path d="M14.2652 12.1098C14.4116 12.2563 14.4116 12.4937 14.2652 12.6402C14.1187 12.7866 13.8813 12.7866 13.7348 12.6402C13.5884 12.4937 13.5884 12.2563 13.7348 12.1098C13.8813 11.9634 14.1187 11.9634 14.2652 12.1098Z" fill="black" stroke="black" stroke-width="1.5" stroke-linecap="round" stroke-linejoin="round"/>
</svg>
