<svg width="24" height="24" viewBox="0 0 24 24" fill="none" xmlns="http://www.w3.org/2000/svg">
<g clip-path="url(#clip0_50_17263)">
<path d="M14 4H6C5.20435 4 4.44129 4.31607 3.87868 4.87868C3.31607 5.44129 3 6.20435 3 7V16C3 16.7956 3.31607 17.5587 3.87868 18.1213C4.44129 18.6839 5.20435 19 6 19H8.007V21.4429C8.007 21.5476 8.03659 21.6503 8.09235 21.7389C8.14812 21.8276 8.22779 21.8987 8.3222 21.9441C8.41662 21.9895 8.52192 22.0073 8.626 21.9954C8.73008 21.9836 8.82869 21.9426 8.91049 21.8771L12.507 19H18C18.7956 19 19.5587 18.6839 20.1213 18.1213C20.6839 17.5587 21 16.7956 21 16V11" stroke="black" stroke-width="1.5" stroke-linecap="round" stroke-linejoin="round"/>
<path d="M7 14H16" stroke="black" stroke-width="1.5" stroke-linecap="round" stroke-linejoin="round"/>
<path d="M7 10H11" stroke="black" stroke-width="1.5" stroke-linecap="round" stroke-linejoin="round"/>
<path d="M20.7071 5.22147L19.7785 4.2929C19.6857 4.20004 19.5755 4.12638 19.4541 4.07612C19.3328 4.02587 19.2028 4 19.0714 4C18.9401 4 18.8101 4.02587 18.6887 4.07612C18.5674 4.12638 18.4572 4.20004 18.3643 4.2929L15.2929 7.36432C15.2 7.45718 15.1264 7.56742 15.0761 7.68875C15.0259 7.81007 15 7.94011 15 8.07143V9.5C15 9.63261 15.0527 9.75979 15.1464 9.85356C15.2402 9.94732 15.3674 10 15.5 10H16.9285C17.0598 10 17.1899 9.97413 17.3112 9.92388C17.4325 9.87362 17.5428 9.79996 17.6356 9.7071L20.7071 6.63565C20.8946 6.44812 21 6.19377 21 5.92856C21 5.66336 20.8946 5.40901 20.7071 5.22147Z" stroke="black" stroke-width="1.5" stroke-linecap="round" stroke-linejoin="round"/>
</g>
<defs>
<clipPath id="clip0_50_17263">
<rect width="24" height="24" fill="white"/>
</clipPath>
</defs>
</svg>
