<svg width="24" height="24" viewBox="0 0 24 24" fill="none" xmlns="http://www.w3.org/2000/svg">
<g clip-path="url(#clip0_50_17253)">
<path d="M11.3863 14.7298H9V12.3435C9.00005 12.0988 9.09731 11.8641 9.27037 11.6911L12.9615 7.99998C13.1345 7.82698 13.3692 7.7298 13.6139 7.7298C13.8586 7.7298 14.0933 7.82698 14.2663 7.99998L15.7298 9.46351C15.9028 9.63655 16 9.87122 16 10.1159C16 10.3606 15.9028 10.5953 15.7298 10.7683L12.0387 14.4594C11.8657 14.6325 11.631 14.7297 11.3863 14.7298Z" stroke="black" stroke-width="1.5" stroke-linecap="round" stroke-linejoin="round"/>
<path d="M12.4999 19H17.9929C18.7886 19 19.5516 18.6839 20.1142 18.1213C20.6768 17.5587 20.9929 16.7956 20.9929 16V7C20.9929 6.20435 20.6768 5.44129 20.1142 4.87868C19.5516 4.31607 18.7886 4 17.9929 4H5.99292C5.19727 4 4.43421 4.31607 3.8716 4.87868C3.30899 5.44129 2.99292 6.20435 2.99292 7V16C2.99292 16.7956 3.30899 17.5587 3.8716 18.1213C4.43421 18.6839 5.19727 19 5.99292 19H7.99992V21.4429C7.99992 21.5476 8.02951 21.6503 8.08527 21.7389C8.14104 21.8276 8.22071 21.8987 8.31512 21.9441C8.40954 21.9895 8.51484 22.0073 8.61892 21.9954C8.723 21.9836 8.82161 21.9426 8.90341 21.8771L12.4999 19Z" stroke="black" stroke-width="1.5" stroke-linecap="round" stroke-linejoin="round"/>
</g>
<defs>
<clipPath id="clip0_50_17253">
<rect width="24" height="24" fill="white"/>
</clipPath>
</defs>
</svg>
