<svg width="24" height="24" viewBox="0 0 24 24" fill="none" xmlns="http://www.w3.org/2000/svg">
<path d="M3 11.291C3 13.974 4.42 16.336 6.599 17.825C6.598 18.68 6.6 19.832 6.6 21.041L10.131 19.294C10.735 19.41 11.359 19.473 12 19.473C16.952 19.473 21 15.83 21 11.291C21 6.75201 16.952 3.10901 12 3.10901C7.048 3.10901 3 6.75201 3 11.291Z" stroke="black" stroke-width="1.5" stroke-linecap="round" stroke-linejoin="round"/>
<path d="M11.899 12.328V12.121C11.899 11.443 12.318 11.076 12.738 10.794C13.148 10.518 13.559 10.158 13.559 9.49401C13.559 8.57701 12.816 7.83501 11.9 7.83501C10.984 7.83501 10.24 8.57601 10.24 9.49301" stroke="black" stroke-width="1.5" stroke-linecap="round" stroke-linejoin="round"/>
<path d="M12.2652 14.7098C12.4116 14.8563 12.4116 15.0937 12.2652 15.2402C12.1187 15.3866 11.8813 15.3866 11.7348 15.2402C11.5884 15.0937 11.5884 14.8563 11.7348 14.7098C11.8813 14.5634 12.1187 14.5634 12.2652 14.7098Z" fill="black" stroke="black" stroke-width="1.5" stroke-linecap="round" stroke-linejoin="round"/>
</svg>
