<svg width="24" height="24" viewBox="0 0 24 24" fill="none" xmlns="http://www.w3.org/2000/svg">
<path d="M16.327 13.363C15.472 13.363 14.663 13.174 13.936 12.837L10.441 13.579L11.172 10.077C10.833 9.348 10.643 8.535 10.643 7.678C10.643 4.543 13.185 2 16.322 2C19.459 2 22 4.543 22 7.678C22 10.813 19.457 13.356 16.322 13.356" stroke="black" stroke-width="1.5" stroke-linecap="round" stroke-linejoin="round"/>
<path d="M15.2 18.371L14.23 17.401C13.745 16.916 12.96 16.916 12.476 17.401L11.714 18.163C11.544 18.333 11.286 18.39 11.066 18.294C9.961 17.81 8.87 17.077 7.897 16.104C6.928 15.135 6.197 14.049 5.713 12.948C5.612 12.721 5.67101 12.454 5.84701 12.277L6.53 11.594C7.085 11.039 7.085 10.255 6.6 9.77L5.62901 8.8C4.98301 8.154 3.937 8.154 3.291 8.8L2.752 9.339C2.13901 9.952 1.884 10.836 2.049 11.712C2.457 13.872 3.71301 16.238 5.737 18.263C7.761 20.288 10.127 21.543 12.288 21.951C13.164 22.116 14.048 21.861 14.661 21.248L15.2 20.71C15.845 20.064 15.845 19.017 15.2 18.371Z" stroke="black" stroke-width="1.5" stroke-linecap="round" stroke-linejoin="round"/>
</svg>
