<svg width="24" height="24" viewBox="0 0 24 24" fill="none" xmlns="http://www.w3.org/2000/svg">
<g clip-path="url(#clip0_50_17778)">
<path d="M12.0009 15.5C11.0727 15.5 10.1824 15.1313 9.52604 14.4749C8.86966 13.8185 8.50092 12.9283 8.50092 12" stroke="black" stroke-width="1.5" stroke-linecap="round" stroke-linejoin="round"/>
<path d="M8.50092 9.50085V9.50093" stroke="black" stroke-width="1.5" stroke-linecap="round" stroke-linejoin="round"/>
<path d="M8.50092 12V8.50092" stroke="black" stroke-width="1.5" stroke-linecap="round" stroke-linejoin="round"/>
<path d="M17.0414 17.0414C15.9681 18.0212 14.6329 18.6677 13.1986 18.902C11.7643 19.1363 10.2928 18.9483 8.96342 18.361C7.63407 17.7736 6.5043 16.8122 5.71178 15.594C4.91927 14.3758 4.49824 12.9533 4.50001 11.5" stroke="black" stroke-width="1.5" stroke-linecap="round" stroke-linejoin="round"/>
<path d="M12 19V21" stroke="black" stroke-width="1.5" stroke-linecap="round" stroke-linejoin="round"/>
<path d="M20 20L4 4" stroke="black" stroke-width="1.5" stroke-linecap="round" stroke-linejoin="round"/>
<path d="M15.5009 11V6.5C15.5043 5.71541 15.2429 4.95262 14.7589 4.33509C14.2749 3.71757 13.5967 3.28144 12.834 3.0973C12.0713 2.91316 11.2688 2.99179 10.5564 3.32046C9.84394 3.64913 9.26326 4.20861 8.90833 4.90833" stroke="black" stroke-width="1.5" stroke-linecap="round" stroke-linejoin="round"/>
<path d="M19.5 11.5C19.4967 12.6242 19.2376 13.733 18.7421 14.7421" stroke="black" stroke-width="1.5" stroke-linecap="round" stroke-linejoin="round"/>
<path d="M14.4753 14.4753C14.1507 14.8006 13.765 15.0587 13.3403 15.2345C12.9157 15.4104 12.4605 15.5006 12.0009 15.5" stroke="black" stroke-width="1.5" stroke-linecap="round" stroke-linejoin="round"/>
</g>
<defs>
<clipPath id="clip0_50_17778">
<rect width="24" height="24" fill="white"/>
</clipPath>
</defs>
</svg>
