<svg width="24" height="24" viewBox="0 0 24 24" fill="none" xmlns="http://www.w3.org/2000/svg">
<g clip-path="url(#clip0_50_19067)">
<path d="M10.5 2H13.5C14.3284 2 15 2.67157 15 3.5V4C15 4.55229 14.5523 5 14 5H10C9.44771 5 9 4.55229 9 4V3.5C9 2.67157 9.67157 2 10.5 2Z" stroke="black" stroke-width="1.5" stroke-linecap="round" stroke-linejoin="round"/>
<path d="M17 12.4996C15.4001 13.1667 13.6 13.1668 12 12.5C10.4 11.8332 8.59989 11.8333 7 12.5004" stroke="black" stroke-width="1.5" stroke-linecap="round" stroke-linejoin="round"/>
<path d="M9.96967 4.9939C9.90436 5.65792 9.61881 6.28102 9.15845 6.764L8.12207 7.83759C7.40228 8.58326 7.00001 9.5792 7 10.6156V19C7 20.1046 7.89543 21 9 21H15C16.1046 21 17 20.1046 17 19V10.6156C17 9.5792 16.5977 8.5833 15.878 7.83763L14.8415 6.764C14.3812 6.28103 14.0956 5.65794 14.0303 4.99392" stroke="black" stroke-width="1.5" stroke-linecap="round" stroke-linejoin="round"/>
</g>
<defs>
<clipPath id="clip0_50_19067">
<rect width="24" height="24" fill="white"/>
</clipPath>
</defs>
</svg>
