<svg width="24" height="24" viewBox="0 0 24 24" fill="none" xmlns="http://www.w3.org/2000/svg">
<g clip-path="url(#clip0_50_18830)">
<path d="M12 12C11.6022 12 11.2206 11.842 10.9393 11.5607C10.658 11.2794 10.5 10.8978 10.5 10.5V8.5C10.5 8.10218 10.658 7.72064 10.9393 7.43934C11.2206 7.15804 11.6022 7 12 7C12.3978 7 12.7794 7.15804 13.0607 7.43934C13.342 7.72064 13.5 8.10218 13.5 8.5V10.5C13.5 10.8978 13.342 11.2794 13.0607 11.5607C12.7794 11.842 12.3978 12 12 12Z" stroke="black" stroke-width="1.5" stroke-linecap="round" stroke-linejoin="round"/>
<path d="M12 2.5H12C8.54822 2.5 5.75 5.29822 5.75 8.74999V15.25C5.75 18.7018 8.54822 21.5 12 21.5H12C15.4518 21.5 18.25 18.7018 18.25 15.25V8.74999C18.25 5.29822 15.4518 2.5 12 2.5Z" stroke="black" stroke-width="1.5" stroke-linecap="round" stroke-linejoin="round"/>
<path d="M12 7V3" stroke="black" stroke-width="1.5" stroke-linecap="round" stroke-linejoin="round"/>
</g>
<defs>
<clipPath id="clip0_50_18830">
<rect width="24" height="24" fill="white"/>
</clipPath>
</defs>
</svg>
