<svg width="24" height="24" viewBox="0 0 24 24" fill="none" xmlns="http://www.w3.org/2000/svg">
<g clip-path="url(#clip0_50_17815)">
<path d="M8.5 17.781V7.96399C8.5 7.54899 8.756 7.177 9.144 7.03L17.644 3.792C18.299 3.542 19 4.02599 19 4.72599V15.775" stroke="black" stroke-width="1.5" stroke-linecap="round" stroke-linejoin="round"/>
<path d="M18.2678 14.0072C19.2441 14.9835 19.2441 16.5664 18.2678 17.5427C17.2915 18.519 15.7086 18.519 14.7323 17.5427C13.756 16.5664 13.756 14.9835 14.7323 14.0072C15.7086 13.0309 17.2915 13.0309 18.2678 14.0072Z" stroke="black" stroke-width="1.5" stroke-linecap="round" stroke-linejoin="round"/>
<path d="M7.76776 16.0072C8.74407 16.9835 8.74407 18.5664 7.76776 19.5427C6.79145 20.519 5.20854 20.519 4.23223 19.5427C3.25592 18.5664 3.25592 16.9835 4.23223 16.0072C5.20854 15.0309 6.79145 15.0309 7.76776 16.0072Z" stroke="black" stroke-width="1.5" stroke-linecap="round" stroke-linejoin="round"/>
</g>
<defs>
<clipPath id="clip0_50_17815">
<rect width="24" height="24" fill="white"/>
</clipPath>
</defs>
</svg>
