<svg width="24" height="24" viewBox="0 0 24 24" fill="none" xmlns="http://www.w3.org/2000/svg">
<g clip-path="url(#clip0_50_18106)">
<path d="M4 19.5V17.5C4 17.1022 4.15804 16.7206 4.43934 16.4393C4.72064 16.158 5.10218 16 5.5 16H18.5C18.8978 16 19.2794 16.158 19.5607 16.4393C19.842 16.7206 20 17.1022 20 17.5V19.5" stroke="black" stroke-width="1.5" stroke-linecap="round" stroke-linejoin="round"/>
<path d="M19 12H5" stroke="black" stroke-width="1.5" stroke-linecap="round" stroke-linejoin="round"/>
<path d="M20 4.5V6.5C20 6.89782 19.842 7.27936 19.5607 7.56066C19.2794 7.84196 18.8978 8 18.5 8H5.5C5.10218 8 4.72064 7.84196 4.43934 7.56066C4.15804 7.27936 4 6.89782 4 6.5V4.5" stroke="black" stroke-width="1.5" stroke-linecap="round" stroke-linejoin="round"/>
</g>
<defs>
<clipPath id="clip0_50_18106">
<rect width="24" height="24" fill="white"/>
</clipPath>
</defs>
</svg>
