<svg width="24" height="24" viewBox="0 0 24 24" fill="none" xmlns="http://www.w3.org/2000/svg">
<g clip-path="url(#clip0_50_17891)">
<path d="M9 15L12.15 14.611C12.3713 14.5839 12.5772 14.4836 12.735 14.326L20.366 6.70001C21.211 5.85461 21.211 4.48441 20.366 3.63901C19.5206 2.79404 18.1504 2.79404 17.305 3.63901L9.745 11.199C9.59188 11.3521 9.49258 11.5507 9.462 11.765L9 15Z" stroke="black" stroke-width="1.5" stroke-linecap="round" stroke-linejoin="round"/>
<path d="M13 4H7C4.79086 4 3 5.79086 3 8V17C3 19.2091 4.79086 21 7 21H16C18.2091 21 20 19.2091 20 17V11" stroke="black" stroke-width="1.5" stroke-linecap="round" stroke-linejoin="round"/>
</g>
<defs>
<clipPath id="clip0_50_17891">
<rect width="24" height="24" fill="white"/>
</clipPath>
</defs>
</svg>
