<svg width="24" height="24" viewBox="0 0 24 24" fill="none" xmlns="http://www.w3.org/2000/svg">
<g clip-path="url(#clip0_50_17421)">
<path d="M11.048 12.869C9.87804 11.699 8.99604 10.389 8.41004 9.05997C8.28604 8.77897 8.35904 8.44997 8.57604 8.23297L9.39504 7.41397C10.066 6.74297 10.066 5.79397 9.48004 5.20797L8.30604 4.03497C7.52504 3.25397 6.25904 3.25397 5.47804 4.03497L4.82604 4.68597C4.08504 5.42697 3.77604 6.49597 3.97604 7.55597C4.47004 10.169 5.98804 13.03 8.43704 15.479C10.886 17.928 13.747 19.446 16.36 19.94C17.42 20.14 18.489 19.831 19.23 19.09L19.881 18.439C20.662 17.658 20.662 16.392 19.881 15.611L18.708 14.438C18.122 13.852 17.172 13.852 16.587 14.438L15.684 15.342C15.467 15.559 15.138 15.632 14.857 15.508C13.528 14.921 12.218 14.038 11.048 12.869Z" stroke="black" stroke-width="1.5" stroke-linecap="round" stroke-linejoin="round"/>
</g>
<defs>
<clipPath id="clip0_50_17421">
<rect width="24" height="24" fill="white"/>
</clipPath>
</defs>
</svg>
