<svg width="24" height="24" viewBox="0 0 24 24" fill="none" xmlns="http://www.w3.org/2000/svg">
<g clip-path="url(#clip0_50_17441)">
<path d="M7.5 3H16.504C18.987 3 21 5.013 21 7.496V16.505C21 18.987 18.987 21 16.504 21H7.496C5.013 21 3 18.987 3 16.504V7.5C3 5.015 5.015 3 7.5 3Z" stroke="black" stroke-width="1.5" stroke-linecap="round" stroke-linejoin="round"/>
<path d="M9.65101 14.346C11.834 16.53 14.6 17.922 16.245 16.284L16.644 15.885C17.176 15.354 17.102 14.474 16.484 14.045C16.095 13.774 15.677 13.483 15.215 13.158C14.737 12.822 14.082 12.875 13.667 13.286L13.216 13.734C12.657 13.38 12.104 12.925 11.59 12.412L11.588 12.41C11.075 11.897 10.62 11.343 10.266 10.784L10.714 10.333C11.126 9.919 11.177 9.263 10.842 8.785C10.516 8.323 10.225 7.905 9.95501 7.516C9.52601 6.899 8.64601 6.825 8.11501 7.356L7.71601 7.755C6.07901 9.4 7.47001 12.164 9.65301 14.349" stroke="black" stroke-width="1.5" stroke-linecap="round" stroke-linejoin="round"/>
</g>
<defs>
<clipPath id="clip0_50_17441">
<rect width="24" height="24" fill="white"/>
</clipPath>
</defs>
</svg>
