<svg width="24" height="24" viewBox="0 0 24 24" fill="none" xmlns="http://www.w3.org/2000/svg">
<g clip-path="url(#clip0_50_17424)">
<path d="M10.048 13.869C8.87801 12.699 7.99601 11.389 7.41001 10.06C7.28601 9.779 7.35901 9.45 7.57601 9.233L8.39501 8.414C9.06601 7.743 9.06601 6.794 8.48001 6.208L7.30601 5.035C6.52501 4.254 5.25901 4.254 4.47801 5.035L3.82601 5.686C3.08501 6.427 2.77601 7.496 2.97601 8.556C3.47001 11.169 4.98801 14.03 7.43701 16.479C9.88601 18.928 12.747 20.446 15.36 20.94C16.42 21.14 17.489 20.831 18.23 20.09L18.881 19.439C19.662 18.658 19.662 17.392 18.881 16.611L17.708 15.438C17.122 14.852 16.172 14.852 15.587 15.438L14.684 16.342C14.467 16.559 14.138 16.632 13.857 16.508C12.528 15.921 11.218 15.038 10.048 13.869Z" stroke="black" stroke-width="1.5" stroke-linecap="round" stroke-linejoin="round"/>
<path d="M12.92 5.17V2.83" stroke="black" stroke-width="1.5" stroke-linecap="round" stroke-linejoin="round"/>
<path d="M17.09 6.82L18.74 5.18" stroke="black" stroke-width="1.5" stroke-linecap="round" stroke-linejoin="round"/>
<path d="M18.75 11H21.08" stroke="black" stroke-width="1.5" stroke-linecap="round" stroke-linejoin="round"/>
</g>
<defs>
<clipPath id="clip0_50_17424">
<rect width="24" height="24" fill="white"/>
</clipPath>
</defs>
</svg>
