<svg width="24" height="24" viewBox="0 0 24 24" fill="none" xmlns="http://www.w3.org/2000/svg">
<g clip-path="url(#clip0_50_18039)">
<path d="M18 21H6C4.343 21 3 19.657 3 18V6C3 4.343 4.343 3 6 3H18C19.657 3 21 4.343 21 6V18C21 19.657 19.657 21 18 21Z" stroke="black" stroke-width="1.5" stroke-linecap="round" stroke-linejoin="round"/>
<path d="M9.98743 7.51256C10.6709 8.19598 10.6709 9.30402 9.98743 9.98743C9.30402 10.6709 8.19597 10.6709 7.51256 9.98743C6.82915 9.30402 6.82915 8.19597 7.51256 7.51256C8.19598 6.82915 9.30402 6.82915 9.98743 7.51256Z" stroke="black" stroke-width="1.5" stroke-linecap="round" stroke-linejoin="round"/>
<path d="M21 10.109C20.55 10.045 20.093 10 19.625 10C14.309 10 10 14.309 10 19.625C10 20.093 10.045 20.55 10.109 21" stroke="black" stroke-width="1.5" stroke-linecap="round" stroke-linejoin="round"/>
</g>
<defs>
<clipPath id="clip0_50_18039">
<rect width="24" height="24" fill="white"/>
</clipPath>
</defs>
</svg>
