<svg width="24" height="24" viewBox="0 0 24 24" fill="none" xmlns="http://www.w3.org/2000/svg">
<g clip-path="url(#clip0_50_17304)">
<path d="M5 20L9.32449 15.6755" stroke="black" stroke-width="1.5" stroke-linecap="round" stroke-linejoin="round"/>
<path d="M13.7061 7.13027C13.8323 7.00636 13.929 6.85556 13.9888 6.6891C14.0487 6.52265 14.0703 6.34483 14.0519 6.16889L13.879 4.65419C13.8652 4.53287 13.8896 4.41028 13.9487 4.30342C14.0077 4.19657 14.0986 4.11077 14.2087 4.05792C14.3188 4.00507 14.4425 3.98781 14.5629 4.00852C14.6832 4.02923 14.7941 4.08689 14.8802 4.1735L20.8266 10.1199C20.9132 10.206 20.9708 10.3168 20.9915 10.4372C21.0122 10.5575 20.995 10.6813 20.9421 10.7914C20.8893 10.9014 20.8035 10.9923 20.6966 11.0514C20.5898 11.1105 20.4672 11.1348 20.3459 11.121L18.8312 10.9481C18.6552 10.9297 18.4774 10.9513 18.3109 11.0112C18.1445 11.071 17.9937 11.1677 17.8698 11.294" stroke="black" stroke-width="1.5" stroke-linecap="round" stroke-linejoin="round"/>
<path d="M15.494 13.6697C15.3842 13.7786 15.2971 13.9082 15.2378 14.051C15.1784 14.1937 15.148 14.3468 15.1482 14.5014V18.6617C15.1478 18.8943 15.0786 19.1216 14.9492 19.3149C14.8197 19.5082 14.636 19.6588 14.421 19.7478C14.2061 19.8368 13.9696 19.8601 13.7415 19.8148C13.5133 19.7695 13.3036 19.6577 13.139 19.4934L5.51188 11.8594C5.34758 11.6947 5.23574 11.4851 5.19046 11.2569C5.14518 11.0287 5.1685 10.7923 5.25747 10.5773C5.34644 10.3624 5.49707 10.1786 5.69037 10.0492C5.88367 9.91979 6.11096 9.85053 6.34358 9.85016H10.5038C10.6574 9.84992 10.8095 9.81941 10.9513 9.76037C11.0931 9.70133 11.2219 9.61491 11.3303 9.50606" stroke="black" stroke-width="1.5" stroke-linecap="round" stroke-linejoin="round"/>
<path d="M13.4182 7.41816L13.706 7.13027" stroke="black" stroke-width="1.5" stroke-linecap="round" stroke-linejoin="round"/>
<path d="M17.8698 11.294L17.5818 11.5819" stroke="black" stroke-width="1.5" stroke-linecap="round" stroke-linejoin="round"/>
<path d="M20 18L7 5" stroke="black" stroke-width="1.5" stroke-linecap="round" stroke-linejoin="round"/>
</g>
<defs>
<clipPath id="clip0_50_17304">
<rect width="24" height="24" fill="white"/>
</clipPath>
</defs>
</svg>
