<svg width="24" height="24" viewBox="0 0 24 24" fill="none" xmlns="http://www.w3.org/2000/svg">
<g clip-path="url(#clip0_50_17312)">
<path d="M5.12701 10.045V9.873C5.12701 6.077 8.20401 3 12 3C15.796 3 18.873 6.077 18.873 9.873V10.045C18.873 13.506 14.491 18.716 12.725 20.676C12.336 21.108 11.664 21.108 11.275 20.676C9.50901 18.716 5.12701 13.506 5.12701 10.045Z" stroke="black" stroke-width="1.4468" stroke-linecap="round" stroke-linejoin="round"/>
<path d="M10 9.955C10 11.06 10.895 11.955 12 11.955C13.105 11.955 14 11.06 14 9.955V9.918C14 8.813 13.105 7.918 12 7.918C10.895 7.918 10 8.813 10 9.918" stroke="black" stroke-width="1.4468" stroke-linecap="round" stroke-linejoin="round"/>
</g>
<defs>
<clipPath id="clip0_50_17312">
<rect width="24" height="24" fill="white"/>
</clipPath>
</defs>
</svg>
