<svg width="24" height="24" viewBox="0 0 24 24" fill="none" xmlns="http://www.w3.org/2000/svg">
<g clip-path="url(#clip0_50_17316)">
<path d="M17.494 5.27561V5.27561C20.5284 8.30998 20.5284 13.2297 17.494 16.264L13.2945 20.4636V20.4636C12.5794 21.1786 11.4201 21.1786 10.705 20.4636L6.50553 16.264L6.50553 16.264C3.47116 13.2297 3.47116 8.30998 6.50553 5.27561V5.27561L6.50553 5.2756C9.53991 2.24123 14.4596 2.24123 17.494 5.2756L17.494 5.27561Z" stroke="black" stroke-width="1.5" stroke-linecap="round" stroke-linejoin="round"/>
<path d="M12 13.436C13.4724 13.436 14.666 12.2424 14.666 10.77C14.666 9.29761 13.4724 8.104 12 8.104C10.5276 8.104 9.33398 9.29761 9.33398 10.77C9.33398 12.2424 10.5276 13.436 12 13.436Z" stroke="black" stroke-width="1.5" stroke-linecap="round" stroke-linejoin="round"/>
</g>
<defs>
<clipPath id="clip0_50_17316">
<rect width="24" height="24" fill="white"/>
</clipPath>
</defs>
</svg>
