<svg width="24" height="24" viewBox="0 0 24 24" fill="none" xmlns="http://www.w3.org/2000/svg">
<g clip-path="url(#clip0_50_17334)">
<path d="M9 14.205C5.507 14.686 3 15.977 3 17.5C3 19.433 7.029 21 12 21C16.971 21 21 19.433 21 17.5C21 15.977 18.493 14.686 15 14.205" stroke="black" stroke-width="1.5" stroke-linecap="round" stroke-linejoin="round"/>
<path d="M12 17V4" stroke="black" stroke-width="1.5" stroke-linecap="round" stroke-linejoin="round"/>
<path d="M20 3H13C12.4477 3 12 3.44772 12 4V9C12 9.55228 12.4477 10 13 10H20C20.5523 10 21 9.55228 21 9V4C21 3.44772 20.5523 3 20 3Z" stroke="black" stroke-width="1.5" stroke-linecap="round" stroke-linejoin="round"/>
</g>
<defs>
<clipPath id="clip0_50_17334">
<rect width="24" height="24" fill="white"/>
</clipPath>
</defs>
</svg>
