<svg width="24" height="24" viewBox="0 0 24 24" fill="none" xmlns="http://www.w3.org/2000/svg">
<g clip-path="url(#clip0_50_19040)">
<path d="M7.37457 2.88223C10.9416 3.11915 14.3012 4.64316 16.829 7.17097C19.3569 9.69878 20.8809 13.0584 21.1178 16.6254C21.13 16.8986 21.0429 17.1669 20.8725 17.3808C20.7022 17.5947 20.4602 17.7397 20.1912 17.7889L4.48633 20.8581C4.30203 20.8941 4.11169 20.8843 3.93208 20.8294C3.75247 20.7746 3.58908 20.6765 3.45629 20.5437C3.3235 20.4109 3.22538 20.2476 3.17057 20.0679C3.11575 19.8883 3.10592 19.698 3.14194 19.5137L6.21108 3.80878C6.26033 3.53983 6.4053 3.2978 6.61919 3.12747C6.83308 2.95714 7.10142 2.87002 7.37457 2.88223Z" stroke="black" stroke-width="1.5" stroke-linecap="round" stroke-linejoin="round"/>
<path d="M17.4188 18.2639C17.5317 16.7007 17.3069 15.1316 16.7598 13.6629C16.2126 12.1943 15.3558 10.8606 14.2476 9.75242C13.1394 8.64421 11.8057 7.78744 10.3371 7.24026C8.86845 6.69309 7.29929 6.46833 5.73611 6.58125" stroke="black" stroke-width="1.5" stroke-linecap="round" stroke-linejoin="round"/>
<path d="M13 14.5006C12.9999 14.5995 12.9705 14.6961 12.9155 14.7782C12.8605 14.8603 12.7824 14.9243 12.691 14.9621C12.5997 14.9998 12.4992 15.0097 12.4023 14.9904C12.3054 14.971 12.2163 14.9234 12.1464 14.8536C12.0766 14.7837 12.029 14.6946 12.0096 14.5977C11.9903 14.5008 12.0002 14.4003 12.0379 14.309C12.0757 14.2176 12.1397 14.1395 12.2218 14.0845C12.3039 14.0295 12.4005 14.0001 12.4994 14C12.5651 13.9999 12.6303 14.0128 12.691 14.0379C12.7518 14.0631 12.807 14.0999 12.8536 14.1464C12.9001 14.193 12.9369 14.2482 12.9621 14.309C12.9872 14.3697 13.0001 14.4349 13 14.5006Z" stroke="black" stroke-width="1.5" stroke-linecap="round" stroke-linejoin="round"/>
<path d="M8 16.5006C7.99988 16.5995 7.97046 16.696 7.91548 16.7782C7.86049 16.8603 7.7824 16.9243 7.69106 16.9621C7.59972 16.9998 7.49924 17.0097 7.40231 16.9904C7.30538 16.9711 7.21634 16.9234 7.14645 16.8536C7.07656 16.7837 7.02895 16.6946 7.00964 16.5977C6.99033 16.5008 7.00017 16.4003 7.03794 16.309C7.0757 16.2176 7.13969 16.1395 7.22181 16.0845C7.30394 16.0295 7.40052 16.0001 7.49936 16C7.56513 15.9999 7.63026 16.0128 7.69104 16.0379C7.75182 16.0631 7.80704 16.0999 7.85355 16.1464C7.90005 16.1929 7.93692 16.2482 7.96206 16.3089C7.98719 16.3697 8.00008 16.4349 8 16.5006Z" stroke="black" stroke-width="1.5" stroke-linecap="round" stroke-linejoin="round"/>
<path d="M10 11.5006C9.99988 11.5995 9.97047 11.696 9.91548 11.7782C9.86049 11.8603 9.78239 11.9243 9.69106 11.9621C9.59972 11.9998 9.49924 12.0097 9.4023 11.9904C9.30537 11.971 9.21634 11.9234 9.14645 11.8536C9.07656 11.7837 9.02895 11.6946 9.00964 11.5977C8.99033 11.5008 9.00017 11.4003 9.03794 11.3089C9.07571 11.2176 9.1397 11.1395 9.22183 11.0845C9.30396 11.0295 9.40054 11.0001 9.49938 11C9.56514 10.9999 9.63028 11.0128 9.69106 11.0379C9.75183 11.0631 9.80705 11.0999 9.85355 11.1464C9.90006 11.1929 9.93693 11.2482 9.96206 11.3089C9.98719 11.3697 10.0001 11.4349 10 11.5006Z" stroke="black" stroke-width="1.5" stroke-linecap="round" stroke-linejoin="round"/>
</g>
<defs>
<clipPath id="clip0_50_19040">
<rect width="24" height="24" fill="white"/>
</clipPath>
</defs>
</svg>
