<svg width="24" height="24" viewBox="0 0 24 24" fill="none" xmlns="http://www.w3.org/2000/svg">
<g clip-path="url(#clip0_50_30874)">
<path d="M14.081 7.11601L17.393 3.80401C18.167 3.03001 19.422 3.03001 20.196 3.80401C20.97 4.57801 20.97 5.83301 20.196 6.60701L16.884 9.91901L18.676 18.836C18.742 19.164 18.639 19.503 18.403 19.74L17.743 20.4C17.233 20.91 16.366 20.728 16.104 20.056L13.48 13.323L10.074 16.729L10.256 18.899C10.281 19.192 10.175 19.482 9.967 19.69L8.881 20.776L6.76 17.24L3.224 15.119L4.31 14.033C4.518 13.825 4.807 13.719 5.101 13.744L7.271 13.926L10.677 10.52L3.945 7.89601C3.272 7.63401 3.09 6.76801 3.6 6.25701L4.26 5.59701C4.497 5.36001 4.836 5.25801 5.164 5.32401L14.081 7.11601Z" stroke="black" stroke-width="1.5" stroke-linecap="round" stroke-linejoin="round"/>
</g>
<defs>
<clipPath id="clip0_50_30874">
<rect width="24" height="24" fill="white"/>
</clipPath>
</defs>
</svg>
