<svg width="24" height="24" viewBox="0 0 24 24" fill="none" xmlns="http://www.w3.org/2000/svg">
<g clip-path="url(#clip0_50_18989)">
<path d="M21 15.669V18.889" stroke="black" stroke-width="1.5" stroke-linecap="round" stroke-linejoin="round"/>
<path d="M20.999 7.27701V10.497C20.5325 10.4029 20.0504 10.4343 19.6 10.588C18.763 10.8742 18.1279 11.5649 17.913 12.423C17.5513 13.8379 18.4051 15.278 19.82 15.6396C20.033 15.6941 20.2521 15.7218 20.472 15.722C20.6493 15.7217 20.8262 15.704 21 15.669V18.889C21 20.0548 20.0549 21 18.8892 21M18.8892 21C18.889 21 18.8893 21 18.8892 21ZM18.8892 21H15.6688C15.763 20.5335 15.7316 20.0514 15.5778 19.601C15.2917 18.764 14.6009 18.1289 13.7428 17.914C12.328 17.5524 10.8879 18.4061 10.5262 19.821C10.4717 20.0341 10.4441 20.2531 10.4438 20.473C10.4441 20.6503 10.4619 20.8272 10.4968 21.001L7.27799 21C6.11242 21.0002 5.16733 20.0556 5.16699 18.89V15.67C4.99316 15.705 4.8163 15.7227 4.63899 15.723C3.17866 15.7215 1.99608 14.5364 1.99762 13.076C1.99785 12.8561 2.02552 12.6371 2.07999 12.424C2.29493 11.5659 2.92996 10.8752 3.76699 10.589C4.21737 10.4353 4.70049 10.4039 5.16699 10.498L5.16599 7.27801C5.16599 6.11223 6.11104 5.16701 7.27683 5.16701M7.27683 5.16701C7.27693 5.16701 7.27672 5.16701 7.27683 5.16701ZM7.27683 5.16701H10.4971C10.4622 4.99317 10.4444 4.81632 10.4441 4.63901C10.4457 3.17868 11.6307 1.99617 13.0911 1.99768C13.3109 1.99791 13.5299 2.02556 13.7429 2.07998C14.6006 2.29553 15.2911 2.93034 15.5779 3.76698C15.7316 4.21736 15.763 4.70049 15.6689 5.16698H18.8889C20.0547 5.16684 20.9998 6.11178 21 7.27756M21 7.27756C21 7.27771 21 7.27741 21 7.27756Z" stroke="black" stroke-width="1.5" stroke-linecap="round" stroke-linejoin="round"/>
</g>
<defs>
<clipPath id="clip0_50_18989">
<rect width="24" height="24" fill="white"/>
</clipPath>
</defs>
</svg>
