<svg width="24" height="24" viewBox="0 0 24 24" fill="none" xmlns="http://www.w3.org/2000/svg">
<g clip-path="url(#clip0_50_17403)">
<path d="M16 21H8C6.67392 21 5.40215 20.4732 4.46447 19.5355C3.52678 18.5979 3 17.3261 3 16V8C3 6.67392 3.52678 5.40215 4.46447 4.46447C5.40215 3.52678 6.67392 3 8 3H16C17.3261 3 18.5979 3.52678 19.5355 4.46447C20.4732 5.40215 21 6.67392 21 8V16C21 17.3261 20.4732 18.5979 19.5355 19.5355C18.5979 20.4732 17.3261 21 16 21Z" stroke="black" stroke-width="1.5" stroke-linecap="round" stroke-linejoin="round"/>
<path d="M12 12.7111L13.327 11.9738C13.6522 11.7932 13.9232 11.5289 14.1119 11.2082C14.3005 10.8876 14.4 10.5224 14.4 10.1504C14.3623 9.54518 14.0868 8.97945 13.6336 8.5766C13.1804 8.17375 12.5863 7.96648 11.9809 8C11.435 7.97734 10.8984 8.14604 10.4637 8.47695C10.029 8.80787 9.72349 9.28022 9.60001 9.81241" stroke="black" stroke-width="1.5" stroke-linecap="round" stroke-linejoin="round"/>
<path d="M12.2652 15.7098C12.4116 15.8563 12.4116 16.0937 12.2652 16.2401C12.1187 16.3866 11.8813 16.3866 11.7348 16.2401C11.5884 16.0937 11.5884 15.8563 11.7348 15.7098C11.8813 15.5634 12.1187 15.5634 12.2652 15.7098Z" fill="black" stroke="black" stroke-width="1.5" stroke-linecap="round" stroke-linejoin="round"/>
</g>
<defs>
<clipPath id="clip0_50_17403">
<rect width="24" height="24" fill="white"/>
</clipPath>
</defs>
</svg>
