<svg width="24" height="24" viewBox="0 0 24 24" fill="none" xmlns="http://www.w3.org/2000/svg">
<g clip-path="url(#clip0_50_18032)">
<path d="M13.25 12H15.75C16.026 12 16.25 12.224 16.25 12.5V14.5C16.25 14.776 16.026 15 15.75 15H13.75C13.474 15 13.25 14.776 13.25 14.5V12Z" stroke="black" stroke-width="1.5" stroke-linecap="round" stroke-linejoin="round"/>
<path d="M13.25 12C13.25 10 13.625 9.667 14.75 9" stroke="black" stroke-width="1.5" stroke-linecap="round" stroke-linejoin="round"/>
<path d="M7.75 12H10.25C10.526 12 10.75 12.224 10.75 12.5V14.5C10.75 14.776 10.526 15 10.25 15H8.25C7.974 15 7.75 14.776 7.75 14.5V12Z" stroke="black" stroke-width="1.5" stroke-linecap="round" stroke-linejoin="round"/>
<path d="M7.75 12C7.75 10 8.125 9.667 9.25 9" stroke="black" stroke-width="1.5" stroke-linecap="round" stroke-linejoin="round"/>
<path d="M18 21H6C4.343 21 3 19.657 3 18V6C3 4.343 4.343 3 6 3H18C19.657 3 21 4.343 21 6V18C21 19.657 19.657 21 18 21Z" stroke="black" stroke-width="1.5" stroke-linecap="round" stroke-linejoin="round"/>
</g>
<defs>
<clipPath id="clip0_50_18032">
<rect width="24" height="24" fill="white"/>
</clipPath>
</defs>
</svg>
