<svg width="24" height="24" viewBox="0 0 24 24" fill="none" xmlns="http://www.w3.org/2000/svg">
<g clip-path="url(#clip0_50_19016)">
<path d="M13.1554 10.7794L6.08545 17.8494" stroke="black" stroke-width="1.5" stroke-linecap="round" stroke-linejoin="round"/>
<path d="M6.84828 12.7183L3.38528 11.9003C3.00428 11.8103 2.87028 11.3373 3.14628 11.0603L5.90028 8.30633C6.08528 8.12133 6.33628 8.01533 6.59928 8.01333L9.70429 7.98633" stroke="black" stroke-width="1.5" stroke-linecap="round" stroke-linejoin="round"/>
<path d="M20.0944 8.69436L20.9024 4.80635C21.1224 3.74835 20.1864 2.81235 19.1284 3.03235L15.2404 3.84035C14.0954 4.07835 13.0454 4.64535 12.2194 5.47235L9.0294 8.66136C7.8124 9.87836 7.0204 11.4564 6.7704 13.1594L6.7594 13.2324C6.6014 14.3194 6.9654 15.4164 7.7414 16.1934C8.5174 16.9694 9.6154 17.3334 10.7024 17.1744L10.7754 17.1634C12.4784 16.9144 14.0564 16.1214 15.2734 14.9044L18.4624 11.7154C19.2894 10.8894 19.8564 9.83935 20.0944 8.69436Z" stroke="black" stroke-width="1.5" stroke-linecap="round" stroke-linejoin="round"/>
<path d="M13.6152 4.43335C15.9262 6.00935 17.9252 8.00835 19.5012 10.3193" stroke="black" stroke-width="1.5" stroke-linecap="round" stroke-linejoin="round"/>
<path d="M11.2153 17.0863L12.0333 20.5493C12.1233 20.9303 12.5963 21.0643 12.8733 20.7883L15.6273 18.0343C15.8123 17.8493 15.9183 17.5983 15.9203 17.3353L15.9473 14.2303" stroke="black" stroke-width="1.5" stroke-linecap="round" stroke-linejoin="round"/>
</g>
<defs>
<clipPath id="clip0_50_19016">
<rect width="24" height="24" fill="white"/>
</clipPath>
</defs>
</svg>
