<svg width="24" height="24" viewBox="0 0 24 24" fill="none" xmlns="http://www.w3.org/2000/svg">
<g clip-path="url(#clip0_50_17930)">
<path d="M8.79185 15.4412C9.88805 16.5374 9.88805 18.3147 8.79185 19.4109C7.69565 20.5071 5.91835 20.5071 4.82215 19.4109C3.72595 18.3147 3.72595 16.5374 4.82215 15.4412C5.91835 14.345 7.69565 14.345 8.79185 15.4412Z" stroke="black" stroke-width="1.5" stroke-linecap="round" stroke-linejoin="round"/>
<path d="M8.79185 4.58915C9.88805 5.68535 9.88805 7.46265 8.79185 8.55885C7.69565 9.65505 5.91835 9.65505 4.82215 8.55885C3.72595 7.46265 3.72595 5.68535 4.82215 4.58915C5.91835 3.49295 7.69565 3.49295 8.79185 4.58915Z" stroke="black" stroke-width="1.5" stroke-linecap="round" stroke-linejoin="round"/>
<path d="M20 16.86L5.39999 9.01001" stroke="black" stroke-width="1.5" stroke-linecap="round" stroke-linejoin="round"/>
<path d="M20 7.14001L5.39999 14.99" stroke="black" stroke-width="1.5" stroke-linecap="round" stroke-linejoin="round"/>
</g>
<defs>
<clipPath id="clip0_50_17930">
<rect width="24" height="24" fill="white"/>
</clipPath>
</defs>
</svg>
