<svg width="24" height="24" viewBox="0 0 24 24" fill="none" xmlns="http://www.w3.org/2000/svg">
<g clip-path="url(#clip0_50_17008)">
<path d="M16.747 6.187C19.663 9.103 19.663 13.831 16.747 16.747C13.831 19.663 9.103 19.663 6.187 16.747C3.271 13.831 3.271 9.103 6.187 6.187C9.103 3.271 13.831 3.271 16.747 6.187Z" stroke="black" stroke-width="1.5" stroke-linecap="round" stroke-linejoin="round"/>
<path d="M11.2098 11.7902C11.0634 11.6437 11.0634 11.4063 11.2098 11.2599C11.3563 11.1134 11.5937 11.1134 11.7401 11.2599C11.8866 11.4063 11.8866 11.6437 11.7401 11.7902C11.5937 11.9366 11.3563 11.9366 11.2098 11.7902Z" fill="black" stroke="black" stroke-width="1.5" stroke-linecap="round" stroke-linejoin="round"/>
<path d="M15.2098 11.7902C15.0634 11.6437 15.0634 11.4063 15.2098 11.2599C15.3563 11.1134 15.5937 11.1134 15.7401 11.2599C15.8866 11.4063 15.8866 11.6437 15.7401 11.7902C15.5937 11.9366 15.3563 11.9366 15.2098 11.7902Z" fill="black" stroke="black" stroke-width="1.5" stroke-linecap="round" stroke-linejoin="round"/>
<path d="M7.20981 11.7902C7.06336 11.6437 7.06336 11.4063 7.20981 11.2599C7.35626 11.1134 7.59369 11.1134 7.74014 11.2599C7.88659 11.4063 7.88659 11.6437 7.74014 11.7902C7.59369 11.9366 7.35626 11.9366 7.20981 11.7902Z" fill="black" stroke="black" stroke-width="1.5" stroke-linecap="round" stroke-linejoin="round"/>
<path d="M20 20L16.75 16.75" stroke="black" stroke-width="1.5" stroke-linecap="round" stroke-linejoin="round"/>
</g>
<defs>
<clipPath id="clip0_50_17008">
<rect width="24" height="24" fill="white"/>
</clipPath>
</defs>
</svg>
