<svg width="24" height="24" viewBox="0 0 24 24" fill="none" xmlns="http://www.w3.org/2000/svg">
<g clip-path="url(#clip0_50_16996)">
<path d="M9.347 16.267V6.42C9.347 5.088 8.268 4.009 6.936 4.009C5.837 4.009 4.878 4.752 4.602 5.815L2.112 15.425" stroke="black" stroke-width="1.5" stroke-linecap="round" stroke-linejoin="round"/>
<path d="M8.27191 13.7281C9.7067 15.1629 9.7067 17.4891 8.27191 18.9239C6.83712 20.3587 4.51088 20.3587 3.07609 18.9239C1.6413 17.4891 1.6413 15.1629 3.07609 13.7281C4.51088 12.2933 6.83712 12.2933 8.27191 13.7281Z" stroke="black" stroke-width="1.5"/>
<path d="M14.653 16.267V6.42C14.653 5.088 15.732 4.009 17.064 4.009C18.163 4.009 19.122 4.752 19.398 5.815L21.888 15.425" stroke="black" stroke-width="1.5" stroke-linecap="round" stroke-linejoin="round"/>
<path d="M14.653 10C14.653 8.532 13.465 7.342 12 7.342C10.535 7.342 9.347 8.532 9.347 10" stroke="black" stroke-width="1.5" stroke-linecap="round" stroke-linejoin="round"/>
<path d="M9.347 16C9.347 14.532 10.535 13.342 12 13.342C13.465 13.342 14.653 14.532 14.653 16" stroke="black" stroke-width="1.5" stroke-linecap="round" stroke-linejoin="round"/>
<path d="M20.9239 13.7281C22.3587 15.1629 22.3587 17.4891 20.9239 18.9239C19.4891 20.3587 17.1629 20.3587 15.7281 18.9239C14.2933 17.4891 14.2933 15.1629 15.7281 13.7281C17.1629 12.2933 19.4891 12.2933 20.9239 13.7281Z" stroke="black" stroke-width="1.5"/>
</g>
<defs>
<clipPath id="clip0_50_16996">
<rect width="24" height="24" fill="white"/>
</clipPath>
</defs>
</svg>
