<svg width="24" height="24" viewBox="0 0 24 24" fill="none" xmlns="http://www.w3.org/2000/svg">
<g clip-path="url(#clip0_50_17541)">
<path d="M3.90001 15.647L5.29801 15.861C6.33001 16.019 7.06701 16.943 6.99101 17.984L6.88801 19.395C6.85801 19.806 7.08201 20.193 7.45301 20.372L8.48701 20.87C8.85801 21.049 9.30101 20.982 9.60401 20.703L10.643 19.743C11.409 19.035 12.591 19.035 13.358 19.743L14.397 20.703C14.7 20.983 15.142 21.049 15.514 20.87L16.55 20.371C16.92 20.193 17.143 19.807 17.113 19.397L17.01 17.984C16.934 16.943 17.671 16.019 18.703 15.861L20.101 15.647C20.508 15.585 20.836 15.28 20.928 14.878L21.183 13.76C21.275 13.358 21.112 12.941 20.772 12.709L19.605 11.91C18.744 11.32 18.481 10.168 19.001 9.263L19.706 8.037C19.911 7.68 19.877 7.233 19.62 6.911L18.905 6.014C18.648 5.692 18.22 5.559 17.826 5.68L16.474 6.094C15.475 6.4 14.41 5.887 14.026 4.916L13.508 3.603C13.356 3.219 12.985 2.967 12.572 2.968L11.426 2.971C11.013 2.972 10.643 3.226 10.493 3.611L9.98801 4.909C9.60801 5.886 8.53801 6.403 7.53601 6.095L6.12801 5.663C5.73301 5.541 5.30301 5.675 5.04601 5.999L4.33601 6.897C4.07901 7.222 4.04801 7.67 4.25701 8.027L4.97801 9.256C5.50901 10.162 5.24901 11.325 4.38301 11.918L3.23001 12.708C2.89001 12.941 2.72701 13.358 2.81901 13.759L3.07401 14.877C3.16501 15.28 3.49301 15.585 3.90001 15.647Z" stroke="black" stroke-width="1.5" stroke-linecap="round" stroke-linejoin="round"/>
<path d="M13.916 10.084C14.974 11.142 14.974 12.858 13.916 13.916C12.858 14.974 11.142 14.974 10.084 13.916C9.026 12.858 9.026 11.142 10.084 10.084C11.142 9.026 12.858 9.026 13.916 10.084Z" stroke="black" stroke-width="1.5" stroke-linecap="round" stroke-linejoin="round"/>
</g>
<defs>
<clipPath id="clip0_50_17541">
<rect width="24" height="24" fill="white"/>
</clipPath>
</defs>
</svg>
