<svg width="24" height="24" viewBox="0 0 24 24" fill="none" xmlns="http://www.w3.org/2000/svg">
<g clip-path="url(#clip0_50_17605)">
<path d="M9 7V13.5M15 17V10.5M16.75 8V9.5C16.75 10.0523 16.3023 10.5 15.75 10.5H14.25C13.6977 10.5 13.25 10.0523 13.25 9.5V8C13.25 7.44771 13.6977 7 14.25 7H15.75C16.3023 7 16.75 7.44771 16.75 8ZM16.75 8C16.75 8 16.75 8 16.75 8ZM16 21H8C5.23858 21 3 18.7614 3 16V8C3 5.23858 5.23858 3 8 3H16C18.7614 3 21 5.23858 21 8V16C21 18.7614 18.7614 21 16 21ZM7.25 16V14.5C7.25 13.9477 7.69772 13.5 8.25 13.5H9.75C10.3023 13.5 10.75 13.9477 10.75 14.5V16C10.75 16.5523 10.3023 17 9.75 17H8.25C7.69772 17 7.25 16.5523 7.25 16Z" stroke="black" stroke-width="1.5" stroke-linecap="round" stroke-linejoin="round"/>
</g>
<defs>
<clipPath id="clip0_50_17605">
<rect width="24" height="24" fill="white"/>
</clipPath>
</defs>
</svg>
