<svg width="24" height="24" viewBox="0 0 24 24" fill="none" xmlns="http://www.w3.org/2000/svg">
<g clip-path="url(#clip0_50_17583)">
<path d="M15.5345 9.46447C17.4871 11.4171 17.4871 14.5829 15.5345 16.5355C13.5819 18.4882 10.416 18.4882 8.46343 16.5355C6.51081 14.5829 6.51081 11.4171 8.46343 9.46447C10.416 7.51184 13.5819 7.51184 15.5345 9.46447Z" stroke="black" stroke-width="1.5093" stroke-linecap="round" stroke-linejoin="round"/>
<path d="M12 13L8.46001 16.54" stroke="black" stroke-width="1.5093" stroke-linecap="round" stroke-linejoin="round"/>
<path d="M18.7172 6.28282C18.8637 6.42927 18.8637 6.66671 18.7172 6.81315C18.5708 6.9596 18.3333 6.9596 18.1869 6.81315C18.0404 6.66671 18.0404 6.42927 18.1869 6.28282C18.3333 6.13638 18.5708 6.13638 18.7172 6.28282Z" fill="black" stroke="black" stroke-width="1.5" stroke-linecap="round" stroke-linejoin="round"/>
<path d="M5.81315 19.1868C5.9596 19.3332 5.9596 19.5707 5.81315 19.7171C5.66671 19.8636 5.42927 19.8636 5.28282 19.7171C5.13638 19.5707 5.13638 19.3332 5.28282 19.1868C5.42927 19.0404 5.66671 19.0404 5.81315 19.1868Z" fill="black" stroke="black" stroke-width="1.5" stroke-linecap="round" stroke-linejoin="round"/>
<path d="M21.3902 12.7348C21.5366 12.8813 21.5366 13.1187 21.3902 13.2651C21.2437 13.4116 21.0063 13.4116 20.8599 13.2651C20.7134 13.1187 20.7134 12.8813 20.8599 12.7348C21.0063 12.5884 21.2437 12.5884 21.3902 12.7348Z" fill="black" stroke="black" stroke-width="1.5" stroke-linecap="round" stroke-linejoin="round"/>
<path d="M3.14017 12.7348C3.28661 12.8813 3.28661 13.1187 3.14017 13.2651C2.99372 13.4116 2.75628 13.4116 2.60984 13.2651C2.46339 13.1187 2.46339 12.8813 2.60984 12.7348C2.75628 12.5884 2.99372 12.5884 3.14017 12.7348Z" fill="black" stroke="black" stroke-width="1.5" stroke-linecap="round" stroke-linejoin="round"/>
<path d="M18.7172 19.1868C18.8637 19.3332 18.8637 19.5707 18.7172 19.7171C18.5708 19.8636 18.3333 19.8636 18.1869 19.7171C18.0404 19.5707 18.0404 19.3332 18.1869 19.1868C18.3333 19.0404 18.5708 19.0404 18.7172 19.1868Z" fill="black" stroke="black" stroke-width="1.5" stroke-linecap="round" stroke-linejoin="round"/>
<path d="M5.81315 6.28282C5.9596 6.42927 5.9596 6.66671 5.81315 6.81315C5.66671 6.9596 5.42927 6.9596 5.28282 6.81315C5.13638 6.66671 5.13638 6.42927 5.28282 6.28282C5.42927 6.13638 5.66671 6.13638 5.81315 6.28282Z" fill="black" stroke="black" stroke-width="1.5" stroke-linecap="round" stroke-linejoin="round"/>
<path d="M12.2652 3.60984C12.4116 3.75628 12.4116 3.99372 12.2652 4.14017C12.1187 4.28661 11.8813 4.28661 11.7349 4.14017C11.5884 3.99372 11.5884 3.75628 11.7349 3.60984C11.8813 3.46339 12.1187 3.46339 12.2652 3.60984Z" fill="black" stroke="black" stroke-width="1.5" stroke-linecap="round" stroke-linejoin="round"/>
</g>
<defs>
<clipPath id="clip0_50_17583">
<rect width="24" height="24" fill="white"/>
</clipPath>
</defs>
</svg>
