<svg width="24" height="24" viewBox="0 0 24 24" fill="none" xmlns="http://www.w3.org/2000/svg">
<g clip-path="url(#clip0_50_17594)">
<path d="M15.5371 16.5359C17.4897 14.5833 17.4896 11.4175 15.537 9.46486C13.5844 7.51226 10.4185 7.51229 8.46593 9.46493C6.51333 11.4176 6.51335 14.5834 8.46599 16.536C10.4186 18.4886 13.5845 18.4885 15.5371 16.5359ZM15.5371 16.5359C15.537 16.536 15.5371 16.5359 15.5371 16.5359Z" stroke="black" stroke-width="1.5" stroke-linecap="round" stroke-linejoin="round"/>
<path d="M15.541 9.461L12 13" stroke="black" stroke-width="1.5" stroke-linecap="round" stroke-linejoin="round"/>
<path d="M18.7173 6.28281C18.8638 6.42926 18.8638 6.66669 18.7173 6.81314C18.5709 6.95959 18.3334 6.95959 18.187 6.81314C18.0405 6.66669 18.0405 6.42926 18.187 6.28281C18.3334 6.13636 18.5709 6.13636 18.7173 6.28281Z" fill="black" stroke="black" stroke-width="1.5" stroke-linecap="round" stroke-linejoin="round"/>
<path d="M5.81326 19.1868C5.95971 19.3332 5.95971 19.5707 5.81326 19.7171C5.66681 19.8636 5.42938 19.8636 5.28293 19.7171C5.13648 19.5707 5.13648 19.3332 5.28293 19.1868C5.42938 19.0404 5.66681 19.0404 5.81326 19.1868Z" fill="black" stroke="black" stroke-width="1.5" stroke-linecap="round" stroke-linejoin="round"/>
<path d="M21.3902 12.7348C21.5366 12.8812 21.5366 13.1187 21.3902 13.2651C21.2437 13.4116 21.0063 13.4116 20.8598 13.2651C20.7134 13.1187 20.7134 12.8812 20.8598 12.7348C21.0063 12.5883 21.2437 12.5883 21.3902 12.7348Z" fill="black" stroke="black" stroke-width="1.5" stroke-linecap="round" stroke-linejoin="round"/>
<path d="M3.14017 12.7348C3.28661 12.8812 3.28661 13.1187 3.14017 13.2651C2.99372 13.4116 2.75628 13.4116 2.60984 13.2651C2.46339 13.1187 2.46339 12.8812 2.60984 12.7348C2.75628 12.5883 2.99372 12.5883 3.14017 12.7348Z" fill="black" stroke="black" stroke-width="1.5" stroke-linecap="round" stroke-linejoin="round"/>
<path d="M18.7173 19.1868C18.8638 19.3332 18.8638 19.5707 18.7173 19.7171C18.5709 19.8636 18.3334 19.8636 18.187 19.7171C18.0405 19.5707 18.0405 19.3332 18.187 19.1868C18.3334 19.0404 18.5709 19.0404 18.7173 19.1868Z" fill="black" stroke="black" stroke-width="1.5" stroke-linecap="round" stroke-linejoin="round"/>
<path d="M5.81326 6.28281C5.95971 6.42926 5.95971 6.66669 5.81326 6.81314C5.66681 6.95959 5.42938 6.95959 5.28293 6.81314C5.13648 6.66669 5.13648 6.42926 5.28293 6.28281C5.42938 6.13636 5.66681 6.13636 5.81326 6.28281Z" fill="black" stroke="black" stroke-width="1.5" stroke-linecap="round" stroke-linejoin="round"/>
<path d="M12.2652 3.60984C12.4116 3.75628 12.4116 3.99372 12.2652 4.14017C12.1187 4.28661 11.8813 4.28661 11.7348 4.14017C11.5884 3.99372 11.5884 3.75628 11.7348 3.60984C11.8813 3.46339 12.1187 3.46339 12.2652 3.60984Z" fill="black" stroke="black" stroke-width="1.5" stroke-linecap="round" stroke-linejoin="round"/>
</g>
<defs>
<clipPath id="clip0_50_17594">
<rect width="24" height="24" fill="white"/>
</clipPath>
</defs>
</svg>
