<svg width="24" height="24" viewBox="0 0 24 24" fill="none" xmlns="http://www.w3.org/2000/svg">
<g clip-path="url(#clip0_50_17163)">
<path d="M10 10.447H14C14.55 10.447 15 10.897 15 11.447V14.5C15 15.052 14.552 15.5 14 15.5H10C9.448 15.5 9 15.052 9 14.5V11.447C9 10.895 9.448 10.447 10 10.447Z" stroke="black" stroke-width="1.5" stroke-linecap="round" stroke-linejoin="round"/>
<path d="M10.316 10.447V9.184C10.316 8.254 11.07 7.5 12 7.5C12.93 7.5 13.684 8.254 13.684 9.184V10.445" stroke="black" stroke-width="1.5" stroke-linecap="round" stroke-linejoin="round"/>
<path d="M5.973 5.067L11.315 3.121C11.757 2.96 12.242 2.96 12.684 3.121L18.026 5.067C19.212 5.499 20 6.625 20 7.886V12.758C20 16.339 18.172 17.808 12.995 20.739C12.378 21.088 11.622 21.088 11.005 20.739C5.828 17.808 4 16.339 4 12.758V7.886C4 6.625 4.788 5.499 5.973 5.067Z" stroke="black" stroke-width="1.5" stroke-linecap="round" stroke-linejoin="round"/>
</g>
<defs>
<clipPath id="clip0_50_17163">
<rect width="24" height="24" fill="white"/>
</clipPath>
</defs>
</svg>
