<svg width="24" height="24" viewBox="0 0 24 24" fill="none" xmlns="http://www.w3.org/2000/svg">
<g clip-path="url(#clip0_50_18825)">
<path d="M8.86291 6H15.1371C15.6816 6 16.2147 6.15527 16.6741 6.44758C17.0804 6.70615 17.415 7.06305 17.6467 7.48525C17.8785 7.90744 18 8.38128 18 8.86291V15.1371C18 15.6187 17.8785 16.0926 17.6467 16.5148C17.415 16.9369 17.0804 17.2938 16.6741 17.5524C16.2148 17.8447 15.6816 18 15.1371 18H8.86291C8.31844 18 7.78526 17.8447 7.32591 17.5524C6.91958 17.2938 6.58505 16.9369 6.35328 16.5148C6.12151 16.0926 6 15.6187 6 15.1371V8.86291C6 8.38129 6.12151 7.90744 6.35327 7.48525C6.58503 7.06305 6.91956 6.70615 7.32589 6.44758C7.78524 6.15526 8.31843 6 8.86291 6Z" stroke="black" stroke-width="1.5" stroke-linecap="round" stroke-linejoin="round"/>
<path d="M16.0032 17.8654L15.4319 20.2345C15.3792 20.4527 15.2547 20.6468 15.0784 20.7857C14.9021 20.9245 14.6842 21 14.4597 21H9.54028C9.31584 21 9.09792 20.9245 8.9216 20.7857C8.74527 20.6468 8.62078 20.4527 8.56815 20.2345L7.99677 17.8654" stroke="black" stroke-width="1.5" stroke-linecap="round" stroke-linejoin="round"/>
<path d="M7.99677 6.13466L8.56815 3.76554C8.62078 3.54736 8.74527 3.35322 8.9216 3.21436C9.09792 3.0755 9.31584 3 9.54028 3H14.4597C14.6842 3 14.9021 3.0755 15.0784 3.21436C15.2548 3.35322 15.3792 3.54736 15.4319 3.76554L16.0032 6.13466" stroke="black" stroke-width="1.5" stroke-linecap="round" stroke-linejoin="round"/>
</g>
<defs>
<clipPath id="clip0_50_18825">
<rect width="24" height="24" fill="white"/>
</clipPath>
</defs>
</svg>
