<svg width="24" height="24" viewBox="0 0 24 24" fill="none" xmlns="http://www.w3.org/2000/svg">
<g clip-path="url(#clip0_50_18993)">
<path d="M3 12C3 13.78 3.52784 15.5201 4.51677 17.0001C5.50571 18.4802 6.91131 19.6337 8.55585 20.3149C10.2004 20.9961 12.01 21.1743 13.7558 20.8271C15.5016 20.4798 17.1053 19.6226 18.364 18.364C19.6226 17.1053 20.4798 15.5016 20.8271 13.7558C21.1743 12.01 20.9961 10.2004 20.3149 8.55585C19.6337 6.91131 18.4802 5.50571 17.0001 4.51677C15.5201 3.52784 13.78 3 12 3C9.61305 3 7.32387 3.94821 5.63604 5.63604C3.94821 7.32387 3 9.61305 3 12Z" stroke="black" stroke-width="1.5" stroke-linecap="round" stroke-linejoin="round"/>
<path d="M3.51749 8.98645C4.63142 10.1004 5.95386 10.984 7.40929 11.5869C8.86472 12.1897 10.4246 12.5 12 12.5C13.5753 12.5 15.1353 12.1897 16.5907 11.5869C18.0461 10.984 19.3685 10.1004 20.4825 8.98645" stroke="black" stroke-width="1.5" stroke-linecap="round" stroke-linejoin="round"/>
<path d="M6.215 5.10376C6.97469 5.86346 7.87658 6.46608 8.86918 6.87723C9.86177 7.28837 10.9256 7.49999 12 7.49999C13.0744 7.49999 14.1382 7.28837 15.1308 6.87723C16.1234 6.46608 17.0253 5.86346 17.785 5.10376" stroke="black" stroke-width="1.5" stroke-linecap="round" stroke-linejoin="round"/>
</g>
<defs>
<clipPath id="clip0_50_18993">
<rect width="24" height="24" fill="white"/>
</clipPath>
</defs>
</svg>
