<svg width="24" height="24" viewBox="0 0 24 24" fill="none" xmlns="http://www.w3.org/2000/svg">
<g clip-path="url(#clip0_50_16957)">
<path d="M7.73301 20.829C6.99862 21.2124 6.0925 20.9278 5.70916 20.1934C5.55582 19.8996 5.50407 19.5633 5.56201 19.237L6.37101 14.6L2.96501 11.336C2.3655 10.7643 2.34297 9.8148 2.9147 9.21529C3.14803 8.97061 3.45719 8.81194 3.79201 8.76501L8.52101 8.08901L10.656 3.83001C11.0239 3.08774 11.9238 2.78422 12.6661 3.15209C12.9601 3.29782 13.1983 3.53596 13.344 3.83001L15.479 8.08901L20.208 8.76501C21.0284 8.88 21.6003 9.63829 21.4853 10.4587C21.4384 10.7935 21.2797 11.1027 21.035 11.336L17.629 14.6L18.438 19.238C18.5829 20.0537 18.039 20.8323 17.2234 20.9772C16.8971 21.0351 16.5608 20.9834 16.267 20.83L12 18.625L7.73301 20.829Z" stroke="black" stroke-width="1.5" stroke-linecap="round" stroke-linejoin="round"/>
</g>
<defs>
<clipPath id="clip0_50_16957">
<rect width="24" height="24" fill="white"/>
</clipPath>
</defs>
</svg>
