<svg width="24" height="24" viewBox="0 0 24 24" fill="none" xmlns="http://www.w3.org/2000/svg">
<g clip-path="url(#clip0_50_18060)">
<path d="M13 21H8C6.67392 21 5.40215 20.4732 4.46447 19.5355C3.52678 18.5979 3 17.3261 3 16V8C3 6.67392 3.52678 5.40215 4.46447 4.46447C5.40215 3.52678 6.67392 3 8 3H16C17.3261 3 18.5979 3.52678 19.5355 4.46447C20.4732 5.40215 21 6.67392 21 8V13C21 15.1217 20.1571 17.1566 18.6569 18.6569C17.1566 20.1571 15.1217 21 13 21Z" stroke="black" stroke-width="1.5" stroke-linecap="round" stroke-linejoin="round"/>
<path d="M21 10V11C21 11.5304 20.7893 12.0391 20.4142 12.4142C20.0391 12.7893 19.5304 13 19 13H17C15.9391 13 14.9217 13.4214 14.1716 14.1716C13.4214 14.9217 13 15.9391 13 17V19C13 19.5304 12.7893 20.0391 12.4142 20.4142C12.0391 20.7893 11.5304 21 11 21H10" stroke="black" stroke-width="1.5" stroke-linecap="round" stroke-linejoin="round"/>
</g>
<defs>
<clipPath id="clip0_50_18060">
<rect width="24" height="24" fill="white"/>
</clipPath>
</defs>
</svg>
