<svg width="24" height="24" viewBox="0 0 24 24" fill="none" xmlns="http://www.w3.org/2000/svg">
<g clip-path="url(#clip0_50_17848)">
<path d="M4.50012 12.5V10.7541C4.49912 10.5835 4.53313 10.4145 4.60005 10.2576C4.66697 10.1007 4.76537 9.95918 4.88918 9.84181C5.01298 9.72445 5.15955 9.63374 5.31981 9.57529C5.48008 9.51685 5.65063 9.4919 5.82092 9.50201C7.99336 9.57115 10.1154 10.1737 12 11.2566C13.8846 10.1737 16.0066 9.57115 18.1791 9.50201C18.3494 9.4919 18.5199 9.51683 18.6802 9.57528C18.8405 9.63373 18.9871 9.72444 19.1109 9.8418C19.2347 9.95917 19.3331 10.1007 19.4 10.2576C19.4669 10.4145 19.5009 10.5835 19.4999 10.7541L19.5 12.5" stroke="black" stroke-width="1.5" stroke-linecap="round" stroke-linejoin="round"/>
<path d="M4.50007 16.5V18.2151C4.50179 18.4734 4.60289 18.7212 4.78239 18.907C4.96189 19.0927 5.20602 19.2023 5.46412 19.2128C7.76606 19.193 10.0285 19.8116 12 21C13.9716 19.8116 16.234 19.193 18.5359 19.2128C18.794 19.2023 19.0382 19.0927 19.2177 18.907C19.3972 18.7212 19.4983 18.4734 19.5 18.2151V16.5" stroke="black" stroke-width="1.5" stroke-linecap="round" stroke-linejoin="round"/>
<path d="M12 11.2566V21" stroke="black" stroke-width="1.5" stroke-linecap="round" stroke-linejoin="round"/>
<path d="M12 7.5C13.5188 7.5 14.75 6.26878 14.75 4.75C14.75 3.23122 13.5188 2 12 2C10.4812 2 9.25 3.23122 9.25 4.75C9.25 6.26878 10.4812 7.5 12 7.5Z" stroke="black" stroke-width="1.5" stroke-linecap="round" stroke-linejoin="round"/>
<path d="M4 12.5H5C5.53043 12.5 6.03914 12.7107 6.41421 13.0858C6.78929 13.4609 7 13.9696 7 14.5C7 15.0304 6.78929 15.5391 6.41421 15.9142C6.03914 16.2893 5.53043 16.5 5 16.5H4C3.73478 16.5 3.48043 16.3946 3.29289 16.2071C3.10536 16.0196 3 15.7652 3 15.5V13.5C3 13.2348 3.10536 12.9804 3.29289 12.7929C3.48043 12.6054 3.73478 12.5 4 12.5Z" stroke="black" stroke-width="1.5" stroke-linecap="round" stroke-linejoin="round"/>
<path d="M20 16.5H19C18.4696 16.5 17.9609 16.2893 17.5858 15.9142C17.2107 15.5391 17 15.0304 17 14.5C17 13.9696 17.2107 13.4609 17.5858 13.0858C17.9609 12.7107 18.4696 12.5 19 12.5H20C20.2652 12.5 20.5196 12.6054 20.7071 12.7929C20.8946 12.9804 21 13.2348 21 13.5V15.5C21 15.7652 20.8946 16.0196 20.7071 16.2071C20.5196 16.3946 20.2652 16.5 20 16.5Z" stroke="black" stroke-width="1.5" stroke-linecap="round" stroke-linejoin="round"/>
</g>
<defs>
<clipPath id="clip0_50_17848">
<rect width="24" height="24" fill="white"/>
</clipPath>
</defs>
</svg>
