<svg width="24" height="24" viewBox="0 0 24 24" fill="none" xmlns="http://www.w3.org/2000/svg">
<g clip-path="url(#clip0_50_30828)">
<path d="M7.633 10.726C7.633 9.91201 8.293 9.25201 9.107 9.25201C9.921 9.25201 10.581 9.91201 10.581 10.726C10.581 12.568 7.633 12.568 7.633 14.75H10.581" stroke="black" stroke-width="1.5" stroke-linecap="round" stroke-linejoin="round"/>
<path d="M15.532 14.75C15.532 14.75 15.532 13.876 15.532 13.495M15.532 13.495H16.367M15.532 13.495H13.168C12.744 13.495 12.477 13.039 12.69 12.672C13.281 11.655 13.965 10.504 14.592 9.48999C14.861 9.05399 15.532 9.24999 15.532 9.76199V13.495Z" stroke="black" stroke-width="1.5" stroke-linecap="round" stroke-linejoin="round"/>
<path d="M20.424 4.80298V7.69598H17.531" stroke="black" stroke-width="1.5" stroke-linecap="round" stroke-linejoin="round"/>
<path d="M19.905 7.696C18.379 4.899 15.412 3 12 3C7.029 3 3 7.03 3 12C3 16.97 7.029 21 12 21C16.971 21 21 16.97 21 12" stroke="black" stroke-width="1.5" stroke-linecap="round" stroke-linejoin="round"/>
</g>
<defs>
<clipPath id="clip0_50_30828">
<rect width="24" height="24" fill="white"/>
</clipPath>
</defs>
</svg>
