<svg width="24" height="24" viewBox="0 0 24 24" fill="none" xmlns="http://www.w3.org/2000/svg">
<g clip-path="url(#clip0_50_19080)">
<path d="M17.9875 11L17.9876 19.5431C17.9975 20.4411 17.4001 21.2326 16.5339 21.4694C13.5442 22.1769 10.4308 22.1769 7.44112 21.4694C6.57484 21.2326 5.97749 20.4411 5.9874 19.5431L5.98748 11" stroke="black" stroke-width="1.5" stroke-linecap="round" stroke-linejoin="round"/>
<path d="M18.0039 13L21.229 12.2403C21.7666 12.1137 22.0997 11.5752 21.9731 11.0377C21.9695 11.0224 21.9655 11.0073 21.9612 10.9922L20.7482 6.74665C20.4311 5.63676 19.65 4.71797 18.6056 4.22639L16.8092 3.38086C16.2763 3.13005 15.6946 3 15.1057 3H8.89431C8.30537 3 7.7237 3.13005 7.19084 3.38086L5.39443 4.22639C4.35003 4.71797 3.56891 5.63676 3.2518 6.74665L2.0388 10.9922C1.88707 11.5233 2.19456 12.0768 2.72559 12.2285C2.74063 12.2328 2.75577 12.2367 2.771 12.2403L5.99611 13" stroke="black" stroke-width="1.5" stroke-linecap="round" stroke-linejoin="round"/>
<path d="M15.5 3.0199C15.5 4.66578 14.1657 6.00003 12.5199 6.00003H11.4801C9.83425 6.00003 8.5 4.66578 8.5 3.0199" stroke="black" stroke-width="1.5" stroke-linecap="round" stroke-linejoin="round"/>
</g>
<defs>
<clipPath id="clip0_50_19080">
<rect width="24" height="24" fill="white"/>
</clipPath>
</defs>
</svg>
