<svg width="24" height="24" viewBox="0 0 24 24" fill="none" xmlns="http://www.w3.org/2000/svg">
<path d="M9 6.44003H20" stroke="black" stroke-width="1.5" stroke-linecap="round" stroke-linejoin="round"/>
<path d="M4.51516 12.2652C4.36872 12.4116 4.13128 12.4116 3.98484 12.2652C3.83839 12.1187 3.83839 11.8813 3.98484 11.7348C4.13128 11.5884 4.36872 11.5884 4.51516 11.7348C4.66161 11.8813 4.66161 12.1187 4.51516 12.2652Z" fill="black" stroke="black" stroke-width="1.5" stroke-linecap="round" stroke-linejoin="round"/>
<path d="M4.51516 6.74014C4.36872 6.88659 4.13128 6.88659 3.98484 6.74014C3.83839 6.59369 3.83839 6.35626 3.98484 6.20981C4.13128 6.06336 4.36872 6.06336 4.51516 6.20981C4.66161 6.35626 4.66161 6.59369 4.51516 6.74014Z" fill="black" stroke="black" stroke-width="1.5" stroke-linecap="round" stroke-linejoin="round"/>
<path d="M4.51516 17.8401C4.36872 17.9866 4.13128 17.9866 3.98484 17.8401C3.83839 17.6937 3.83839 17.4562 3.98484 17.3098C4.13128 17.1633 4.36872 17.1633 4.51516 17.3098C4.66161 17.4562 4.66161 17.6937 4.51516 17.8401Z" fill="black" stroke="black" stroke-width="1.5" stroke-linecap="round" stroke-linejoin="round"/>
<path d="M20 12H9" stroke="black" stroke-width="1.5" stroke-linecap="round" stroke-linejoin="round"/>
<path d="M9 17.56H20" stroke="black" stroke-width="1.5" stroke-linecap="round" stroke-linejoin="round"/>
</svg>
