<svg width="24" height="24" viewBox="0 0 24 24" fill="none" xmlns="http://www.w3.org/2000/svg">
<g clip-path="url(#clip0_50_18743)">
<path d="M21 12C21 7.02944 16.9706 3 12 3C7.02944 3 3 7.02944 3 12C3 16.9706 7.02944 21 12 21C16.9706 21 21 16.9706 21 12Z" stroke="black" stroke-width="1.5" stroke-linecap="round" stroke-linejoin="round"/>
<path d="M9.20396 16V10.409C9.18237 10.0285 9.23866 9.64769 9.36938 9.28975C9.50011 8.93181 9.70253 8.60432 9.96424 8.32734C10.2259 8.05035 10.5414 7.82971 10.8914 7.6789C11.2413 7.5281 11.6184 7.45032 11.9995 7.45032C12.3805 7.45032 12.7576 7.5281 13.1075 7.6789C13.4575 7.82971 13.773 8.05035 14.0347 8.32734C14.2964 8.60432 14.4988 8.93181 14.6295 9.28975C14.7603 9.64769 14.8166 10.0285 14.795 10.409V16" stroke="black" stroke-width="1.5" stroke-linecap="round" stroke-linejoin="round"/>
<path d="M9.20398 12.505H14.795" stroke="black" stroke-width="1.5" stroke-linecap="round" stroke-linejoin="round"/>
</g>
<defs>
<clipPath id="clip0_50_18743">
<rect width="24" height="24" fill="white"/>
</clipPath>
</defs>
</svg>
