<svg width="24" height="24" viewBox="0 0 24 24" fill="none" xmlns="http://www.w3.org/2000/svg">
<g clip-path="url(#clip0_50_19085)">
<path d="M11.2929 4.29289L8.29492 7.29089C8.15507 7.43074 8.05982 7.60892 8.02123 7.80291C7.98264 7.99689 8.00244 8.19795 8.07813 8.38068C8.15381 8.56341 8.28198 8.71959 8.44643 8.82947C8.61088 8.93936 8.80422 8.99801 9.002 8.99801H14.998C15.1958 8.998 15.3891 8.93934 15.5535 8.82946C15.718 8.71958 15.8461 8.56341 15.9218 8.38069C15.9975 8.19798 16.0173 7.99693 15.9787 7.80296C15.9401 7.60899 15.8449 7.43082 15.7051 7.29096L12.7071 4.29296C12.5196 4.10543 12.2652 4.00007 12 4.00006C11.7348 4.00005 11.4805 4.10538 11.2929 4.29289Z" stroke="black" stroke-width="1.5" stroke-linecap="round" stroke-linejoin="round"/>
<path d="M8.65485 8.93298L6.29492 11.2929C6.15508 11.4327 6.05984 11.6109 6.02126 11.8049C5.98268 11.9989 6.00248 12.1999 6.07816 12.3827C6.15385 12.5654 6.28201 12.7216 6.44645 12.8314C6.61089 12.9413 6.80423 13 7.002 13H16.998C17.1958 13 17.3891 12.9413 17.5536 12.8314C17.718 12.7216 17.8462 12.5654 17.9219 12.3827C17.9975 12.1999 18.0173 11.9989 17.9788 11.8049C17.9402 11.6109 17.8449 11.4327 17.7051 11.2929L15.3452 8.93298" stroke="black" stroke-width="1.5" stroke-linecap="round" stroke-linejoin="round"/>
<path d="M13.5 18V21" stroke="black" stroke-width="1.5" stroke-linecap="round" stroke-linejoin="round"/>
<path d="M10.5 21V18" stroke="black" stroke-width="1.5" stroke-linecap="round" stroke-linejoin="round"/>
<path d="M15 21H9" stroke="black" stroke-width="1.5" stroke-linecap="round" stroke-linejoin="round"/>
<path d="M7.58783 13L4.29492 16.2929C4.15508 16.4328 4.05984 16.6109 4.02126 16.8049C3.98268 16.9989 4.00248 17.2 4.07816 17.3827C4.15385 17.5654 4.28201 17.7216 4.44645 17.8315C4.61089 17.9413 4.80423 18 5.002 18H18.998C19.1958 18 19.3891 17.9413 19.5536 17.8315C19.718 17.7216 19.8462 17.5654 19.9219 17.3827C19.9975 17.2 20.0173 16.9989 19.9788 16.8049C19.9402 16.6109 19.8449 16.4328 19.7051 16.2929L16.4122 13" stroke="black" stroke-width="1.5" stroke-linecap="round" stroke-linejoin="round"/>
</g>
<defs>
<clipPath id="clip0_50_19085">
<rect width="24" height="24" fill="white"/>
</clipPath>
</defs>
</svg>
