<svg width="24" height="24" viewBox="0 0 24 24" fill="none" xmlns="http://www.w3.org/2000/svg">
<g clip-path="url(#clip0_50_30927)">
<path d="M16 18.5H8.17" stroke="black" stroke-width="1.5" stroke-linecap="round" stroke-linejoin="round"/>
<path d="M18.996 18.5H20.996H20.986C21.536 18.5 21.986 18.05 21.986 17.5V11.38C21.986 11.12 21.936 10.87 21.836 10.63L20.476 7.23998C20.166 6.47998 19.436 5.97998 18.616 5.97998H14.966" stroke="black" stroke-width="1.5" stroke-linecap="round" stroke-linejoin="round"/>
<path d="M22 13H18.5H18.49C18.21 12.99 17.99 12.77 17.99 12.49V8.98901H21.19" stroke="black" stroke-width="1.5" stroke-linecap="round" stroke-linejoin="round"/>
<path d="M18.55 17.44C19.13 18.02 19.13 18.97 18.55 19.56C17.96 20.14 17.01 20.14 16.42 19.56C15.83 18.97 15.83 18.02 16.41 17.43C16.41 17.42 16.41 17.42 16.41 17.42V17.41H16.4C16.98 16.82 17.93 16.82 18.52 17.4" stroke="black" stroke-width="1.5" stroke-linecap="round" stroke-linejoin="round"/>
<path d="M7.55 17.44C8.13 18.02 8.13 18.97 7.55 19.56C6.96 20.14 6.01 20.14 5.42 19.56C4.83 18.97 4.83 18.02 5.41 17.43C5.41 17.42 5.41 17.42 5.41 17.42V17.41H5.4C5.98 16.82 6.93 16.82 7.52 17.41" stroke="black" stroke-width="1.5" stroke-linecap="round" stroke-linejoin="round"/>
<path d="M5 18.5H3H2.99C2.43 18.49 1.99 18.05 1.99 17.49V4.98001C1.98 4.42001 2.43 3.97001 2.98 3.97001H13.98H13.97C14.52 3.96001 14.97 4.41001 14.97 4.96001V13.96" stroke="black" stroke-width="1.5" stroke-linecap="round" stroke-linejoin="round"/>
<path d="M15 14H2" stroke="black" stroke-width="1.5" stroke-linecap="round" stroke-linejoin="round"/>
</g>
<defs>
<clipPath id="clip0_50_30927">
<rect width="24" height="24" fill="white"/>
</clipPath>
</defs>
</svg>
