<svg width="24" height="24" viewBox="0 0 24 24" fill="none" xmlns="http://www.w3.org/2000/svg">
<g clip-path="url(#clip0_50_18648)">
<path d="M16 18.42H8.33997" stroke="black" stroke-width="1.5" stroke-linecap="round" stroke-linejoin="round"/>
<path d="M22 13H18.5H18.49C18.21 12.99 17.99 12.77 17.99 12.49V8.98901H21.48" stroke="black" stroke-width="1.5" stroke-linecap="round" stroke-linejoin="round"/>
<path d="M18.55 17.4301C19.13 18.0101 19.13 18.9601 18.55 19.5501C17.96 20.1301 17.01 20.1301 16.42 19.5501C15.83 18.9601 15.83 18.0101 16.41 17.4201C16.41 17.4101 16.41 17.4101 16.41 17.4101V17.4001H16.4C16.98 16.8101 17.93 16.8101 18.52 17.3901" stroke="black" stroke-width="1.5" stroke-linecap="round" stroke-linejoin="round"/>
<path d="M2 4H10" stroke="black" stroke-width="1.5" stroke-linecap="round" stroke-linejoin="round"/>
<path d="M9.99999 3.99998H9.98999C10.54 3.98998 10.99 4.43998 10.99 4.98998" stroke="black" stroke-width="1.5" stroke-linecap="round" stroke-linejoin="round"/>
<path d="M11 5V11" stroke="black" stroke-width="1.5" stroke-linecap="round" stroke-linejoin="round"/>
<path d="M4.55996 17.43C5.13996 18.01 5.13996 18.96 4.55996 19.55C3.96996 20.13 3.01996 20.13 2.42996 19.55C1.83996 18.96 1.83996 18.01 2.41996 17.42C2.41996 17.41 2.41996 17.41 2.41996 17.41V17.4H2.40996C2.98996 16.81 3.93996 16.81 4.52996 17.4" stroke="black" stroke-width="1.5" stroke-linecap="round" stroke-linejoin="round"/>
<path d="M7.73001 17.43C8.31001 18.01 8.31001 18.96 7.73001 19.55C7.14001 20.13 6.19001 20.13 5.60001 19.55C5.01001 18.96 5.01001 18.01 5.59001 17.42C5.59001 17.41 5.59001 17.41 5.59001 17.41V17.4H5.58001C6.16001 16.81 7.11001 16.81 7.70001 17.4" stroke="black" stroke-width="1.5" stroke-linecap="round" stroke-linejoin="round"/>
<path d="M18.99 18.5H20.99H20.98C21.53 18.5 21.98 18.05 21.98 17.5V10.47V10.46C21.98 10.14 21.9 9.83997 21.76 9.55997L20.52 7.07997C20.18 6.39997 19.48 5.96997 18.73 5.96997H13.96" stroke="black" stroke-width="1.5" stroke-linecap="round" stroke-linejoin="round"/>
<path d="M2 14H14V4" stroke="black" stroke-width="1.5" stroke-linecap="round" stroke-linejoin="round"/>
</g>
<defs>
<clipPath id="clip0_50_18648">
<rect width="24" height="24" fill="white"/>
</clipPath>
</defs>
</svg>
