<svg width="24" height="24" viewBox="0 0 24 24" fill="none" xmlns="http://www.w3.org/2000/svg">
<g clip-path="url(#clip0_50_18856)">
<path d="M11.165 7.11797L15.194 3.08897C15.589 2.69397 16.229 2.69397 16.623 3.08897L20.911 7.37697C21.306 7.77197 21.306 8.41197 20.911 8.80597L16.874 12.843" stroke="black" stroke-width="1.5" stroke-linecap="round" stroke-linejoin="round"/>
<path d="M15.92 6.29999L15.13 7.07999" stroke="black" stroke-width="1.5" stroke-linecap="round" stroke-linejoin="round"/>
<path d="M13.88 17.874L16.598 15.156C17.342 14.412 17.342 13.205 16.598 12.461L11.539 7.40199C10.795 6.65799 9.58801 6.65799 8.84401 7.40199L5.83401 10.412C4.40701 11.839 4.40701 14.154 5.83401 15.581L8.41901 18.166C9.84501 19.594 12.452 19.301 13.88 17.874Z" stroke="black" stroke-width="1.5" stroke-linecap="round" stroke-linejoin="round"/>
<path d="M17.7 8.08002L16.92 8.87002" stroke="black" stroke-width="1.5" stroke-linecap="round" stroke-linejoin="round"/>
<path d="M8.78599 18.477L6.76999 20.493C6.36999 20.893 5.72199 20.893 5.32199 20.493L3.50599 18.677C3.10599 18.277 3.10599 17.629 3.50599 17.229L5.50599 15.229" stroke="black" stroke-width="1.5" stroke-linecap="round" stroke-linejoin="round"/>
</g>
<defs>
<clipPath id="clip0_50_18856">
<rect width="24" height="24" fill="white"/>
</clipPath>
</defs>
</svg>
