<svg width="24" height="24" viewBox="0 0 24 24" fill="none" xmlns="http://www.w3.org/2000/svg">
<g clip-path="url(#clip0_50_16811)">
<path d="M8.00001 12C9.92748 12 11.49 10.4375 11.49 8.51C11.49 6.58252 9.92748 5.02 8.00001 5.02C6.07254 5.02 4.51001 6.58252 4.51001 8.51C4.51001 10.4375 6.07254 12 8.00001 12Z" stroke="black" stroke-width="1.5" stroke-linecap="round" stroke-linejoin="round"/>
<path d="M17 12C18.3807 12 19.5 10.8807 19.5 9.5C19.5 8.11929 18.3807 7 17 7C15.6193 7 14.5 8.11929 14.5 9.5C14.5 10.8807 15.6193 12 17 12Z" stroke="black" stroke-width="1.5" stroke-linecap="round" stroke-linejoin="round"/>
<path d="M2 20V18.983C2 17.9266 2.41964 16.9136 3.16659 16.1666C3.91355 15.4196 4.92664 15 5.983 15H10.017C11.0734 15 12.0864 15.4196 12.8334 16.1666C13.5804 16.9136 14 17.9266 14 18.983V20" stroke="black" stroke-width="1.5" stroke-linecap="round" stroke-linejoin="round"/>
<path d="M17 15H18.1C19.1564 15 20.1694 15.4196 20.9164 16.1666C21.6634 16.9136 22.083 17.9266 22.083 18.983V20" stroke="black" stroke-width="1.5" stroke-linecap="round" stroke-linejoin="round"/>
</g>
<defs>
<clipPath id="clip0_50_16811">
<rect width="24" height="24" fill="white"/>
</clipPath>
</defs>
</svg>
