<svg width="24" height="24" viewBox="0 0 24 24" fill="none" xmlns="http://www.w3.org/2000/svg">
<g clip-path="url(#clip0_50_16829)">
<path d="M4.937 5.971C3.875 7.061 3.104 8.431 2.733 9.959" stroke="black" stroke-width="1.5" stroke-linecap="round" stroke-linejoin="round"/>
<path d="M9.28999 20.443C9.88099 20.571 10.494 20.642 11.124 20.642C12.016 20.642 12.877 20.506 13.687 20.255" stroke="black" stroke-width="1.5" stroke-linecap="round" stroke-linejoin="round"/>
<path d="M2.73399 14.041C3.10499 15.569 3.87599 16.939 4.93799 18.029" stroke="black" stroke-width="1.5" stroke-linecap="round" stroke-linejoin="round"/>
<path d="M19.405 14.464C18.986 15.876 18.212 17.133 17.193 18.142" stroke="black" stroke-width="1.5" stroke-linecap="round" stroke-linejoin="round"/>
<path d="M17.193 5.858C18.212 6.867 18.985 8.124 19.405 9.536" stroke="black" stroke-width="1.5" stroke-linecap="round" stroke-linejoin="round"/>
<path d="M9.28999 3.557C9.88099 3.429 10.494 3.358 11.124 3.358C12.016 3.358 12.877 3.494 13.687 3.745" stroke="black" stroke-width="1.5" stroke-linecap="round" stroke-linejoin="round"/>
<path d="M21.5338 10.2322C22.5101 11.2085 22.5101 12.7914 21.5338 13.7677C20.5575 14.744 18.9746 14.744 17.9983 13.7677C17.022 12.7914 17.022 11.2085 17.9983 10.2322C18.9746 9.25589 20.5575 9.25589 21.5338 10.2322Z" stroke="black" stroke-width="1.5" stroke-linecap="round" stroke-linejoin="round"/>
<path d="M8.82677 17.5692C9.80308 18.5455 9.80308 20.1284 8.82677 21.1047C7.85046 22.081 6.26755 22.081 5.29124 21.1047C4.31493 20.1284 4.31493 18.5455 5.29124 17.5692C6.26755 16.5929 7.85046 16.5929 8.82677 17.5692Z" stroke="black" stroke-width="1.5" stroke-linecap="round" stroke-linejoin="round"/>
<path d="M8.82677 2.89523C9.80308 3.87154 9.80308 5.45445 8.82677 6.43076C7.85046 7.40707 6.26755 7.40707 5.29124 6.43076C4.31493 5.45445 4.31493 3.87154 5.29124 2.89523C6.26755 1.91892 7.85046 1.91892 8.82677 2.89523Z" stroke="black" stroke-width="1.5" stroke-linecap="round" stroke-linejoin="round"/>
</g>
<defs>
<clipPath id="clip0_50_16829">
<rect width="24" height="24" fill="white"/>
</clipPath>
</defs>
</svg>
