<svg width="24" height="24" viewBox="0 0 24 24" fill="none" xmlns="http://www.w3.org/2000/svg">
<g clip-path="url(#clip0_50_17471)">
<path d="M6 20L19 3" stroke="black" stroke-width="1.5" stroke-linecap="round" stroke-linejoin="round"/>
<path d="M12.002 20C12.2787 20 12.502 19.7766 12.5 19.5C12.5 19.2234 12.2766 19 12 19C11.7234 19 11.5 19.2234 11.5 19.5C11.5 19.7746 11.7234 20 12.002 20Z" stroke="black" stroke-width="1.625" stroke-linecap="round" stroke-linejoin="round"/>
<path d="M14.116 9.387C10.781 8.759 7.179 9.627 4.591 12" stroke="black" stroke-width="1.5" stroke-linecap="round" stroke-linejoin="round"/>
<path d="M17.514 4.944C12.204 3.053 5.89799 4.006 1.59399 7.804" stroke="black" stroke-width="1.5" stroke-linecap="round" stroke-linejoin="round"/>
<path d="M17.267 10.497C18.032 10.902 18.754 11.399 19.408 12" stroke="black" stroke-width="1.5" stroke-linecap="round" stroke-linejoin="round"/>
<path d="M20.421 6.37199C21.114 6.79699 21.787 7.25899 22.406 7.80399" stroke="black" stroke-width="1.5" stroke-linecap="round" stroke-linejoin="round"/>
<path d="M14.262 14.427C15.048 14.728 15.786 15.191 16.42 15.821" stroke="black" stroke-width="1.5" stroke-linecap="round" stroke-linejoin="round"/>
</g>
<defs>
<clipPath id="clip0_50_17471">
<rect width="24" height="24" fill="white"/>
</clipPath>
</defs>
</svg>
