<svg width="24" height="24" viewBox="0 0 24 24" fill="none" xmlns="http://www.w3.org/2000/svg">
<g clip-path="url(#clip0_50_17760)">
<path d="M16 3H8C5.23858 3 3 5.23858 3 8V16C3 18.7614 5.23858 21 8 21H16C18.7614 21 21 18.7614 21 16V8C21 5.23858 18.7614 3 16 3Z" stroke="black" stroke-width="1.5" stroke-linecap="round" stroke-linejoin="round"/>
<path d="M15.25 9.75V14.25" stroke="black" stroke-width="1.5" stroke-linecap="round" stroke-linejoin="round"/>
<path d="M15.25 9.75H16.9C17.258 9.75 17.6014 9.89223 17.8546 10.1454C18.1078 10.3986 18.25 10.742 18.25 11.1C18.25 11.458 18.1078 11.8014 17.8546 12.0546C17.6014 12.3078 17.258 12.45 16.9 12.45H15.252" stroke="black" stroke-width="1.5" stroke-linecap="round" stroke-linejoin="round"/>
<path d="M12.15 9.75V14.25" stroke="black" stroke-width="1.5" stroke-linecap="round" stroke-linejoin="round"/>
<path d="M6.25 9.75H9.25L6.25 14.25H9.25" stroke="black" stroke-width="1.5" stroke-linecap="round" stroke-linejoin="round"/>
</g>
<defs>
<clipPath id="clip0_50_17760">
<rect width="24" height="24" fill="white"/>
</clipPath>
</defs>
</svg>
